%TF.GenerationSoftware,KiCad,Pcbnew,9.0.7*%
%TF.CreationDate,2026-06-11T04:23:12+05:30*%
%TF.ProjectId,SmartGuard_v1,536d6172-7447-4756-9172-645f76312e6b,rev?*%
%TF.SameCoordinates,Original*%
%TF.FileFunction,Soldermask,Bot*%
%TF.FilePolarity,Negative*%
%FSLAX46Y46*%
G04 Gerber Fmt 4.6, Leading zero omitted, Abs format (unit mm)*
G04 Created by KiCad (PCBNEW 9.0.7) date 2026-06-11 04:23:12*
%MOMM*%
%LPD*%
G01*
G04 APERTURE LIST*
G04 Aperture macros list*
%AMRoundRect*
0 Rectangle with rounded corners*
0 $1 Rounding radius*
0 $2 $3 $4 $5 $6 $7 $8 $9 X,Y pos of 4 corners*
0 Add a 4 corners polygon primitive as box body*
4,1,4,$2,$3,$4,$5,$6,$7,$8,$9,$2,$3,0*
0 Add four circle primitives for the rounded corners*
1,1,$1+$1,$2,$3*
1,1,$1+$1,$4,$5*
1,1,$1+$1,$6,$7*
1,1,$1+$1,$8,$9*
0 Add four rect primitives between the rounded corners*
20,1,$1+$1,$2,$3,$4,$5,0*
20,1,$1+$1,$4,$5,$6,$7,0*
20,1,$1+$1,$6,$7,$8,$9,0*
20,1,$1+$1,$8,$9,$2,$3,0*%
G04 Aperture macros list end*
%ADD10RoundRect,0.250000X-0.350000X-0.625000X0.350000X-0.625000X0.350000X0.625000X-0.350000X0.625000X0*%
%ADD11O,1.200000X1.750000*%
%ADD12R,1.800000X1.800000*%
%ADD13C,1.800000*%
%ADD14C,1.600000*%
%ADD15R,1.700000X1.700000*%
%ADD16C,1.700000*%
%ADD17RoundRect,0.250000X-0.550000X-0.550000X0.550000X-0.550000X0.550000X0.550000X-0.550000X0.550000X0*%
%ADD18R,1.905000X2.000000*%
%ADD19O,1.905000X2.000000*%
%ADD20R,5.080000X1.500000*%
G04 APERTURE END LIST*
D10*
%TO.C,J4*%
X115000000Y-94550000D03*
D11*
X117000000Y-94550000D03*
%TD*%
D12*
%TO.C,D3*%
X124460000Y-76500000D03*
D13*
X127000000Y-76500000D03*
%TD*%
D14*
%TO.C,R4*%
X130840000Y-61500000D03*
X141000000Y-61500000D03*
%TD*%
%TO.C,R1*%
X63000000Y-81000000D03*
X73160000Y-81000000D03*
%TD*%
D15*
%TO.C,U4*%
X123500000Y-101960000D03*
D16*
X123500000Y-104500000D03*
X123500000Y-107040000D03*
X123500000Y-109580000D03*
%TD*%
D12*
%TO.C,D1*%
X124460000Y-61500000D03*
D13*
X127000000Y-61500000D03*
%TD*%
D14*
%TO.C,C2*%
X148500000Y-73500000D03*
X153500000Y-73500000D03*
%TD*%
D15*
%TO.C,J2*%
X81000000Y-98460000D03*
D16*
X81000000Y-101000000D03*
X81000000Y-103540000D03*
%TD*%
D14*
%TO.C,C5*%
X149520000Y-97500000D03*
X154520000Y-97500000D03*
%TD*%
D17*
%TO.C,C4*%
X143000000Y-106000000D03*
D14*
X145500000Y-106000000D03*
%TD*%
D12*
%TO.C,D2*%
X124460000Y-69000000D03*
D13*
X127000000Y-69000000D03*
%TD*%
D15*
%TO.C,J1*%
X76410000Y-98460000D03*
D16*
X76410000Y-101000000D03*
X76410000Y-103540000D03*
%TD*%
D18*
%TO.C,U5*%
X127420000Y-97000000D03*
D19*
X129960000Y-97000000D03*
X132500000Y-97000000D03*
%TD*%
D15*
%TO.C,U2*%
X54500000Y-94500000D03*
D16*
X54500000Y-91960000D03*
X54500000Y-89420000D03*
X54500000Y-86880000D03*
X54500000Y-84340000D03*
X54500000Y-81800000D03*
%TD*%
D14*
%TO.C,R5*%
X131990000Y-101500000D03*
X142150000Y-101500000D03*
%TD*%
%TO.C,R3*%
X73000000Y-88500000D03*
X62840000Y-88500000D03*
%TD*%
%TO.C,R6*%
X130840000Y-68500000D03*
X141000000Y-68500000D03*
%TD*%
%TO.C,C1*%
X59000000Y-89500000D03*
X59000000Y-84500000D03*
%TD*%
D20*
%TO.C,AE1*%
X146637500Y-58750000D03*
X146637500Y-67250000D03*
%TD*%
D15*
%TO.C,J3*%
X95000000Y-106000000D03*
D16*
X95000000Y-108540000D03*
%TD*%
D14*
%TO.C,R7*%
X130840000Y-76500000D03*
X141000000Y-76500000D03*
%TD*%
%TO.C,C3*%
X127500000Y-106000000D03*
X132500000Y-106000000D03*
%TD*%
%TO.C,R2*%
X63000000Y-85000000D03*
X73160000Y-85000000D03*
%TD*%
M02*
