M48
; DRILL file {KiCad 9.0.7} date 2026-06-11T04:24:19+0530
; FORMAT={-:-/ absolute / metric / decimal}
; #@! TF.CreationDate,2026-06-11T04:24:19+05:30
; #@! TF.GenerationSoftware,Kicad,Pcbnew,9.0.7
; #@! TF.FileFunction,Plated,1,2,PTH
FMAT,2
METRIC
; #@! TA.AperFunction,Plated,PTH,ComponentDrill
T1C0.200
; #@! TA.AperFunction,Plated,PTH,ViaDrill
T2C0.400
; #@! TA.AperFunction,Plated,PTH,ComponentDrill
T3C0.750
; #@! TA.AperFunction,Plated,PTH,ComponentDrill
T4C0.800
; #@! TA.AperFunction,Plated,PTH,ComponentDrill
T5C0.900
; #@! TA.AperFunction,Plated,PTH,ComponentDrill
T6C1.000
; #@! TA.AperFunction,Plated,PTH,ComponentDrill
T7C1.100
%
G90
G05
T1
X91.1Y-87.26
X91.1Y-88.66
X91.8Y-86.56
X91.8Y-87.96
X91.8Y-89.36
X92.5Y-87.26
X92.5Y-88.66
X93.2Y-86.56
X93.2Y-87.96
X93.2Y-89.36
X93.9Y-87.26
X93.9Y-88.66
T2
X80.991Y-90.526
X82.312Y-92.642
X83.885Y-80.403
X92.395Y-100.725
X101.106Y-96.37
X101.339Y-80.245
X101.386Y-95.369
X106.256Y-87.567
X118.239Y-95.028
X158.363Y-89.418
T3
X115.0Y-94.55
X117.0Y-94.55
T4
X59.0Y-84.5
X59.0Y-89.5
X62.84Y-88.5
X63.0Y-81.0
X63.0Y-85.0
X73.0Y-88.5
X73.16Y-81.0
X73.16Y-85.0
X127.5Y-106.0
X130.84Y-61.5
X130.84Y-68.5
X130.84Y-76.5
X131.99Y-101.5
X132.5Y-106.0
X141.0Y-61.5
X141.0Y-68.5
X141.0Y-76.5
X142.15Y-101.5
X143.0Y-106.0
X145.5Y-106.0
X148.5Y-73.5
X149.52Y-97.5
X153.5Y-73.5
X154.52Y-97.5
T5
X124.46Y-61.5
X124.46Y-69.0
X124.46Y-76.5
X127.0Y-61.5
X127.0Y-69.0
X127.0Y-76.5
T6
X54.5Y-81.8
X54.5Y-84.34
X54.5Y-86.88
X54.5Y-89.42
X54.5Y-91.96
X54.5Y-94.5
X76.41Y-98.46
X76.41Y-101.0
X76.41Y-103.54
X81.0Y-98.46
X81.0Y-101.0
X81.0Y-103.54
X95.0Y-106.0
X95.0Y-108.54
X123.5Y-101.96
X123.5Y-104.5
X123.5Y-107.04
X123.5Y-109.58
T7
X127.42Y-97.0
X129.96Y-97.0
X132.5Y-97.0
M30
