%TF.GenerationSoftware,KiCad,Pcbnew,9.0.7*%
%TF.CreationDate,2026-06-11T04:23:12+05:30*%
%TF.ProjectId,SmartGuard_v1,536d6172-7447-4756-9172-645f76312e6b,rev?*%
%TF.SameCoordinates,Original*%
%TF.FileFunction,Legend,Top*%
%TF.FilePolarity,Positive*%
%FSLAX46Y46*%
G04 Gerber Fmt 4.6, Leading zero omitted, Abs format (unit mm)*
G04 Created by KiCad (PCBNEW 9.0.7) date 2026-06-11 04:23:12*
%MOMM*%
%LPD*%
G01*
G04 APERTURE LIST*
%ADD10C,0.150000*%
%ADD11C,0.120000*%
G04 APERTURE END LIST*
D10*
X152213095Y-74254819D02*
X152213095Y-75064342D01*
X152213095Y-75064342D02*
X152260714Y-75159580D01*
X152260714Y-75159580D02*
X152308333Y-75207200D01*
X152308333Y-75207200D02*
X152403571Y-75254819D01*
X152403571Y-75254819D02*
X152594047Y-75254819D01*
X152594047Y-75254819D02*
X152689285Y-75207200D01*
X152689285Y-75207200D02*
X152736904Y-75159580D01*
X152736904Y-75159580D02*
X152784523Y-75064342D01*
X152784523Y-75064342D02*
X152784523Y-74254819D01*
X153165476Y-74254819D02*
X153784523Y-74254819D01*
X153784523Y-74254819D02*
X153451190Y-74635771D01*
X153451190Y-74635771D02*
X153594047Y-74635771D01*
X153594047Y-74635771D02*
X153689285Y-74683390D01*
X153689285Y-74683390D02*
X153736904Y-74731009D01*
X153736904Y-74731009D02*
X153784523Y-74826247D01*
X153784523Y-74826247D02*
X153784523Y-75064342D01*
X153784523Y-75064342D02*
X153736904Y-75159580D01*
X153736904Y-75159580D02*
X153689285Y-75207200D01*
X153689285Y-75207200D02*
X153594047Y-75254819D01*
X153594047Y-75254819D02*
X153308333Y-75254819D01*
X153308333Y-75254819D02*
X153213095Y-75207200D01*
X153213095Y-75207200D02*
X153165476Y-75159580D01*
X116116666Y-91904819D02*
X116116666Y-92619104D01*
X116116666Y-92619104D02*
X116069047Y-92761961D01*
X116069047Y-92761961D02*
X115973809Y-92857200D01*
X115973809Y-92857200D02*
X115830952Y-92904819D01*
X115830952Y-92904819D02*
X115735714Y-92904819D01*
X117021428Y-92238152D02*
X117021428Y-92904819D01*
X116783333Y-91857200D02*
X116545238Y-92571485D01*
X116545238Y-92571485D02*
X117164285Y-92571485D01*
X124991905Y-72994819D02*
X124991905Y-71994819D01*
X124991905Y-71994819D02*
X125230000Y-71994819D01*
X125230000Y-71994819D02*
X125372857Y-72042438D01*
X125372857Y-72042438D02*
X125468095Y-72137676D01*
X125468095Y-72137676D02*
X125515714Y-72232914D01*
X125515714Y-72232914D02*
X125563333Y-72423390D01*
X125563333Y-72423390D02*
X125563333Y-72566247D01*
X125563333Y-72566247D02*
X125515714Y-72756723D01*
X125515714Y-72756723D02*
X125468095Y-72851961D01*
X125468095Y-72851961D02*
X125372857Y-72947200D01*
X125372857Y-72947200D02*
X125230000Y-72994819D01*
X125230000Y-72994819D02*
X124991905Y-72994819D01*
X125896667Y-71994819D02*
X126515714Y-71994819D01*
X126515714Y-71994819D02*
X126182381Y-72375771D01*
X126182381Y-72375771D02*
X126325238Y-72375771D01*
X126325238Y-72375771D02*
X126420476Y-72423390D01*
X126420476Y-72423390D02*
X126468095Y-72471009D01*
X126468095Y-72471009D02*
X126515714Y-72566247D01*
X126515714Y-72566247D02*
X126515714Y-72804342D01*
X126515714Y-72804342D02*
X126468095Y-72899580D01*
X126468095Y-72899580D02*
X126420476Y-72947200D01*
X126420476Y-72947200D02*
X126325238Y-72994819D01*
X126325238Y-72994819D02*
X126039524Y-72994819D01*
X126039524Y-72994819D02*
X125944286Y-72947200D01*
X125944286Y-72947200D02*
X125896667Y-72899580D01*
X135753333Y-59584819D02*
X135420000Y-59108628D01*
X135181905Y-59584819D02*
X135181905Y-58584819D01*
X135181905Y-58584819D02*
X135562857Y-58584819D01*
X135562857Y-58584819D02*
X135658095Y-58632438D01*
X135658095Y-58632438D02*
X135705714Y-58680057D01*
X135705714Y-58680057D02*
X135753333Y-58775295D01*
X135753333Y-58775295D02*
X135753333Y-58918152D01*
X135753333Y-58918152D02*
X135705714Y-59013390D01*
X135705714Y-59013390D02*
X135658095Y-59061009D01*
X135658095Y-59061009D02*
X135562857Y-59108628D01*
X135562857Y-59108628D02*
X135181905Y-59108628D01*
X136610476Y-58918152D02*
X136610476Y-59584819D01*
X136372381Y-58537200D02*
X136134286Y-59251485D01*
X136134286Y-59251485D02*
X136753333Y-59251485D01*
X67913333Y-79084819D02*
X67580000Y-78608628D01*
X67341905Y-79084819D02*
X67341905Y-78084819D01*
X67341905Y-78084819D02*
X67722857Y-78084819D01*
X67722857Y-78084819D02*
X67818095Y-78132438D01*
X67818095Y-78132438D02*
X67865714Y-78180057D01*
X67865714Y-78180057D02*
X67913333Y-78275295D01*
X67913333Y-78275295D02*
X67913333Y-78418152D01*
X67913333Y-78418152D02*
X67865714Y-78513390D01*
X67865714Y-78513390D02*
X67818095Y-78561009D01*
X67818095Y-78561009D02*
X67722857Y-78608628D01*
X67722857Y-78608628D02*
X67341905Y-78608628D01*
X68865714Y-79084819D02*
X68294286Y-79084819D01*
X68580000Y-79084819D02*
X68580000Y-78084819D01*
X68580000Y-78084819D02*
X68484762Y-78227676D01*
X68484762Y-78227676D02*
X68389524Y-78322914D01*
X68389524Y-78322914D02*
X68294286Y-78370533D01*
X122738095Y-99034819D02*
X122738095Y-99844342D01*
X122738095Y-99844342D02*
X122785714Y-99939580D01*
X122785714Y-99939580D02*
X122833333Y-99987200D01*
X122833333Y-99987200D02*
X122928571Y-100034819D01*
X122928571Y-100034819D02*
X123119047Y-100034819D01*
X123119047Y-100034819D02*
X123214285Y-99987200D01*
X123214285Y-99987200D02*
X123261904Y-99939580D01*
X123261904Y-99939580D02*
X123309523Y-99844342D01*
X123309523Y-99844342D02*
X123309523Y-99034819D01*
X124214285Y-99368152D02*
X124214285Y-100034819D01*
X123976190Y-98987200D02*
X123738095Y-99701485D01*
X123738095Y-99701485D02*
X124357142Y-99701485D01*
X124991905Y-57994819D02*
X124991905Y-56994819D01*
X124991905Y-56994819D02*
X125230000Y-56994819D01*
X125230000Y-56994819D02*
X125372857Y-57042438D01*
X125372857Y-57042438D02*
X125468095Y-57137676D01*
X125468095Y-57137676D02*
X125515714Y-57232914D01*
X125515714Y-57232914D02*
X125563333Y-57423390D01*
X125563333Y-57423390D02*
X125563333Y-57566247D01*
X125563333Y-57566247D02*
X125515714Y-57756723D01*
X125515714Y-57756723D02*
X125468095Y-57851961D01*
X125468095Y-57851961D02*
X125372857Y-57947200D01*
X125372857Y-57947200D02*
X125230000Y-57994819D01*
X125230000Y-57994819D02*
X124991905Y-57994819D01*
X126515714Y-57994819D02*
X125944286Y-57994819D01*
X126230000Y-57994819D02*
X126230000Y-56994819D01*
X126230000Y-56994819D02*
X126134762Y-57137676D01*
X126134762Y-57137676D02*
X126039524Y-57232914D01*
X126039524Y-57232914D02*
X125944286Y-57280533D01*
X150833333Y-71359580D02*
X150785714Y-71407200D01*
X150785714Y-71407200D02*
X150642857Y-71454819D01*
X150642857Y-71454819D02*
X150547619Y-71454819D01*
X150547619Y-71454819D02*
X150404762Y-71407200D01*
X150404762Y-71407200D02*
X150309524Y-71311961D01*
X150309524Y-71311961D02*
X150261905Y-71216723D01*
X150261905Y-71216723D02*
X150214286Y-71026247D01*
X150214286Y-71026247D02*
X150214286Y-70883390D01*
X150214286Y-70883390D02*
X150261905Y-70692914D01*
X150261905Y-70692914D02*
X150309524Y-70597676D01*
X150309524Y-70597676D02*
X150404762Y-70502438D01*
X150404762Y-70502438D02*
X150547619Y-70454819D01*
X150547619Y-70454819D02*
X150642857Y-70454819D01*
X150642857Y-70454819D02*
X150785714Y-70502438D01*
X150785714Y-70502438D02*
X150833333Y-70550057D01*
X151214286Y-70550057D02*
X151261905Y-70502438D01*
X151261905Y-70502438D02*
X151357143Y-70454819D01*
X151357143Y-70454819D02*
X151595238Y-70454819D01*
X151595238Y-70454819D02*
X151690476Y-70502438D01*
X151690476Y-70502438D02*
X151738095Y-70550057D01*
X151738095Y-70550057D02*
X151785714Y-70645295D01*
X151785714Y-70645295D02*
X151785714Y-70740533D01*
X151785714Y-70740533D02*
X151738095Y-70883390D01*
X151738095Y-70883390D02*
X151166667Y-71454819D01*
X151166667Y-71454819D02*
X151785714Y-71454819D01*
X80666666Y-95534819D02*
X80666666Y-96249104D01*
X80666666Y-96249104D02*
X80619047Y-96391961D01*
X80619047Y-96391961D02*
X80523809Y-96487200D01*
X80523809Y-96487200D02*
X80380952Y-96534819D01*
X80380952Y-96534819D02*
X80285714Y-96534819D01*
X81095238Y-95630057D02*
X81142857Y-95582438D01*
X81142857Y-95582438D02*
X81238095Y-95534819D01*
X81238095Y-95534819D02*
X81476190Y-95534819D01*
X81476190Y-95534819D02*
X81571428Y-95582438D01*
X81571428Y-95582438D02*
X81619047Y-95630057D01*
X81619047Y-95630057D02*
X81666666Y-95725295D01*
X81666666Y-95725295D02*
X81666666Y-95820533D01*
X81666666Y-95820533D02*
X81619047Y-95963390D01*
X81619047Y-95963390D02*
X81047619Y-96534819D01*
X81047619Y-96534819D02*
X81666666Y-96534819D01*
X151853333Y-95359580D02*
X151805714Y-95407200D01*
X151805714Y-95407200D02*
X151662857Y-95454819D01*
X151662857Y-95454819D02*
X151567619Y-95454819D01*
X151567619Y-95454819D02*
X151424762Y-95407200D01*
X151424762Y-95407200D02*
X151329524Y-95311961D01*
X151329524Y-95311961D02*
X151281905Y-95216723D01*
X151281905Y-95216723D02*
X151234286Y-95026247D01*
X151234286Y-95026247D02*
X151234286Y-94883390D01*
X151234286Y-94883390D02*
X151281905Y-94692914D01*
X151281905Y-94692914D02*
X151329524Y-94597676D01*
X151329524Y-94597676D02*
X151424762Y-94502438D01*
X151424762Y-94502438D02*
X151567619Y-94454819D01*
X151567619Y-94454819D02*
X151662857Y-94454819D01*
X151662857Y-94454819D02*
X151805714Y-94502438D01*
X151805714Y-94502438D02*
X151853333Y-94550057D01*
X152758095Y-94454819D02*
X152281905Y-94454819D01*
X152281905Y-94454819D02*
X152234286Y-94931009D01*
X152234286Y-94931009D02*
X152281905Y-94883390D01*
X152281905Y-94883390D02*
X152377143Y-94835771D01*
X152377143Y-94835771D02*
X152615238Y-94835771D01*
X152615238Y-94835771D02*
X152710476Y-94883390D01*
X152710476Y-94883390D02*
X152758095Y-94931009D01*
X152758095Y-94931009D02*
X152805714Y-95026247D01*
X152805714Y-95026247D02*
X152805714Y-95264342D01*
X152805714Y-95264342D02*
X152758095Y-95359580D01*
X152758095Y-95359580D02*
X152710476Y-95407200D01*
X152710476Y-95407200D02*
X152615238Y-95454819D01*
X152615238Y-95454819D02*
X152377143Y-95454819D01*
X152377143Y-95454819D02*
X152281905Y-95407200D01*
X152281905Y-95407200D02*
X152234286Y-95359580D01*
X144083333Y-102609580D02*
X144035714Y-102657200D01*
X144035714Y-102657200D02*
X143892857Y-102704819D01*
X143892857Y-102704819D02*
X143797619Y-102704819D01*
X143797619Y-102704819D02*
X143654762Y-102657200D01*
X143654762Y-102657200D02*
X143559524Y-102561961D01*
X143559524Y-102561961D02*
X143511905Y-102466723D01*
X143511905Y-102466723D02*
X143464286Y-102276247D01*
X143464286Y-102276247D02*
X143464286Y-102133390D01*
X143464286Y-102133390D02*
X143511905Y-101942914D01*
X143511905Y-101942914D02*
X143559524Y-101847676D01*
X143559524Y-101847676D02*
X143654762Y-101752438D01*
X143654762Y-101752438D02*
X143797619Y-101704819D01*
X143797619Y-101704819D02*
X143892857Y-101704819D01*
X143892857Y-101704819D02*
X144035714Y-101752438D01*
X144035714Y-101752438D02*
X144083333Y-101800057D01*
X144940476Y-102038152D02*
X144940476Y-102704819D01*
X144702381Y-101657200D02*
X144464286Y-102371485D01*
X144464286Y-102371485D02*
X145083333Y-102371485D01*
X124991905Y-65494819D02*
X124991905Y-64494819D01*
X124991905Y-64494819D02*
X125230000Y-64494819D01*
X125230000Y-64494819D02*
X125372857Y-64542438D01*
X125372857Y-64542438D02*
X125468095Y-64637676D01*
X125468095Y-64637676D02*
X125515714Y-64732914D01*
X125515714Y-64732914D02*
X125563333Y-64923390D01*
X125563333Y-64923390D02*
X125563333Y-65066247D01*
X125563333Y-65066247D02*
X125515714Y-65256723D01*
X125515714Y-65256723D02*
X125468095Y-65351961D01*
X125468095Y-65351961D02*
X125372857Y-65447200D01*
X125372857Y-65447200D02*
X125230000Y-65494819D01*
X125230000Y-65494819D02*
X124991905Y-65494819D01*
X125944286Y-64590057D02*
X125991905Y-64542438D01*
X125991905Y-64542438D02*
X126087143Y-64494819D01*
X126087143Y-64494819D02*
X126325238Y-64494819D01*
X126325238Y-64494819D02*
X126420476Y-64542438D01*
X126420476Y-64542438D02*
X126468095Y-64590057D01*
X126468095Y-64590057D02*
X126515714Y-64685295D01*
X126515714Y-64685295D02*
X126515714Y-64780533D01*
X126515714Y-64780533D02*
X126468095Y-64923390D01*
X126468095Y-64923390D02*
X125896667Y-65494819D01*
X125896667Y-65494819D02*
X126515714Y-65494819D01*
X76076666Y-95534819D02*
X76076666Y-96249104D01*
X76076666Y-96249104D02*
X76029047Y-96391961D01*
X76029047Y-96391961D02*
X75933809Y-96487200D01*
X75933809Y-96487200D02*
X75790952Y-96534819D01*
X75790952Y-96534819D02*
X75695714Y-96534819D01*
X77076666Y-96534819D02*
X76505238Y-96534819D01*
X76790952Y-96534819D02*
X76790952Y-95534819D01*
X76790952Y-95534819D02*
X76695714Y-95677676D01*
X76695714Y-95677676D02*
X76600476Y-95772914D01*
X76600476Y-95772914D02*
X76505238Y-95820533D01*
X129198095Y-92354819D02*
X129198095Y-93164342D01*
X129198095Y-93164342D02*
X129245714Y-93259580D01*
X129245714Y-93259580D02*
X129293333Y-93307200D01*
X129293333Y-93307200D02*
X129388571Y-93354819D01*
X129388571Y-93354819D02*
X129579047Y-93354819D01*
X129579047Y-93354819D02*
X129674285Y-93307200D01*
X129674285Y-93307200D02*
X129721904Y-93259580D01*
X129721904Y-93259580D02*
X129769523Y-93164342D01*
X129769523Y-93164342D02*
X129769523Y-92354819D01*
X130721904Y-92354819D02*
X130245714Y-92354819D01*
X130245714Y-92354819D02*
X130198095Y-92831009D01*
X130198095Y-92831009D02*
X130245714Y-92783390D01*
X130245714Y-92783390D02*
X130340952Y-92735771D01*
X130340952Y-92735771D02*
X130579047Y-92735771D01*
X130579047Y-92735771D02*
X130674285Y-92783390D01*
X130674285Y-92783390D02*
X130721904Y-92831009D01*
X130721904Y-92831009D02*
X130769523Y-92926247D01*
X130769523Y-92926247D02*
X130769523Y-93164342D01*
X130769523Y-93164342D02*
X130721904Y-93259580D01*
X130721904Y-93259580D02*
X130674285Y-93307200D01*
X130674285Y-93307200D02*
X130579047Y-93354819D01*
X130579047Y-93354819D02*
X130340952Y-93354819D01*
X130340952Y-93354819D02*
X130245714Y-93307200D01*
X130245714Y-93307200D02*
X130198095Y-93259580D01*
X53738095Y-96334819D02*
X53738095Y-97144342D01*
X53738095Y-97144342D02*
X53785714Y-97239580D01*
X53785714Y-97239580D02*
X53833333Y-97287200D01*
X53833333Y-97287200D02*
X53928571Y-97334819D01*
X53928571Y-97334819D02*
X54119047Y-97334819D01*
X54119047Y-97334819D02*
X54214285Y-97287200D01*
X54214285Y-97287200D02*
X54261904Y-97239580D01*
X54261904Y-97239580D02*
X54309523Y-97144342D01*
X54309523Y-97144342D02*
X54309523Y-96334819D01*
X54738095Y-96430057D02*
X54785714Y-96382438D01*
X54785714Y-96382438D02*
X54880952Y-96334819D01*
X54880952Y-96334819D02*
X55119047Y-96334819D01*
X55119047Y-96334819D02*
X55214285Y-96382438D01*
X55214285Y-96382438D02*
X55261904Y-96430057D01*
X55261904Y-96430057D02*
X55309523Y-96525295D01*
X55309523Y-96525295D02*
X55309523Y-96620533D01*
X55309523Y-96620533D02*
X55261904Y-96763390D01*
X55261904Y-96763390D02*
X54690476Y-97334819D01*
X54690476Y-97334819D02*
X55309523Y-97334819D01*
X136903333Y-99584819D02*
X136570000Y-99108628D01*
X136331905Y-99584819D02*
X136331905Y-98584819D01*
X136331905Y-98584819D02*
X136712857Y-98584819D01*
X136712857Y-98584819D02*
X136808095Y-98632438D01*
X136808095Y-98632438D02*
X136855714Y-98680057D01*
X136855714Y-98680057D02*
X136903333Y-98775295D01*
X136903333Y-98775295D02*
X136903333Y-98918152D01*
X136903333Y-98918152D02*
X136855714Y-99013390D01*
X136855714Y-99013390D02*
X136808095Y-99061009D01*
X136808095Y-99061009D02*
X136712857Y-99108628D01*
X136712857Y-99108628D02*
X136331905Y-99108628D01*
X137808095Y-98584819D02*
X137331905Y-98584819D01*
X137331905Y-98584819D02*
X137284286Y-99061009D01*
X137284286Y-99061009D02*
X137331905Y-99013390D01*
X137331905Y-99013390D02*
X137427143Y-98965771D01*
X137427143Y-98965771D02*
X137665238Y-98965771D01*
X137665238Y-98965771D02*
X137760476Y-99013390D01*
X137760476Y-99013390D02*
X137808095Y-99061009D01*
X137808095Y-99061009D02*
X137855714Y-99156247D01*
X137855714Y-99156247D02*
X137855714Y-99394342D01*
X137855714Y-99394342D02*
X137808095Y-99489580D01*
X137808095Y-99489580D02*
X137760476Y-99537200D01*
X137760476Y-99537200D02*
X137665238Y-99584819D01*
X137665238Y-99584819D02*
X137427143Y-99584819D01*
X137427143Y-99584819D02*
X137331905Y-99537200D01*
X137331905Y-99537200D02*
X137284286Y-99489580D01*
X67753333Y-91324819D02*
X67420000Y-90848628D01*
X67181905Y-91324819D02*
X67181905Y-90324819D01*
X67181905Y-90324819D02*
X67562857Y-90324819D01*
X67562857Y-90324819D02*
X67658095Y-90372438D01*
X67658095Y-90372438D02*
X67705714Y-90420057D01*
X67705714Y-90420057D02*
X67753333Y-90515295D01*
X67753333Y-90515295D02*
X67753333Y-90658152D01*
X67753333Y-90658152D02*
X67705714Y-90753390D01*
X67705714Y-90753390D02*
X67658095Y-90801009D01*
X67658095Y-90801009D02*
X67562857Y-90848628D01*
X67562857Y-90848628D02*
X67181905Y-90848628D01*
X68086667Y-90324819D02*
X68705714Y-90324819D01*
X68705714Y-90324819D02*
X68372381Y-90705771D01*
X68372381Y-90705771D02*
X68515238Y-90705771D01*
X68515238Y-90705771D02*
X68610476Y-90753390D01*
X68610476Y-90753390D02*
X68658095Y-90801009D01*
X68658095Y-90801009D02*
X68705714Y-90896247D01*
X68705714Y-90896247D02*
X68705714Y-91134342D01*
X68705714Y-91134342D02*
X68658095Y-91229580D01*
X68658095Y-91229580D02*
X68610476Y-91277200D01*
X68610476Y-91277200D02*
X68515238Y-91324819D01*
X68515238Y-91324819D02*
X68229524Y-91324819D01*
X68229524Y-91324819D02*
X68134286Y-91277200D01*
X68134286Y-91277200D02*
X68086667Y-91229580D01*
X135753333Y-66584819D02*
X135420000Y-66108628D01*
X135181905Y-66584819D02*
X135181905Y-65584819D01*
X135181905Y-65584819D02*
X135562857Y-65584819D01*
X135562857Y-65584819D02*
X135658095Y-65632438D01*
X135658095Y-65632438D02*
X135705714Y-65680057D01*
X135705714Y-65680057D02*
X135753333Y-65775295D01*
X135753333Y-65775295D02*
X135753333Y-65918152D01*
X135753333Y-65918152D02*
X135705714Y-66013390D01*
X135705714Y-66013390D02*
X135658095Y-66061009D01*
X135658095Y-66061009D02*
X135562857Y-66108628D01*
X135562857Y-66108628D02*
X135181905Y-66108628D01*
X136610476Y-65584819D02*
X136420000Y-65584819D01*
X136420000Y-65584819D02*
X136324762Y-65632438D01*
X136324762Y-65632438D02*
X136277143Y-65680057D01*
X136277143Y-65680057D02*
X136181905Y-65822914D01*
X136181905Y-65822914D02*
X136134286Y-66013390D01*
X136134286Y-66013390D02*
X136134286Y-66394342D01*
X136134286Y-66394342D02*
X136181905Y-66489580D01*
X136181905Y-66489580D02*
X136229524Y-66537200D01*
X136229524Y-66537200D02*
X136324762Y-66584819D01*
X136324762Y-66584819D02*
X136515238Y-66584819D01*
X136515238Y-66584819D02*
X136610476Y-66537200D01*
X136610476Y-66537200D02*
X136658095Y-66489580D01*
X136658095Y-66489580D02*
X136705714Y-66394342D01*
X136705714Y-66394342D02*
X136705714Y-66156247D01*
X136705714Y-66156247D02*
X136658095Y-66061009D01*
X136658095Y-66061009D02*
X136610476Y-66013390D01*
X136610476Y-66013390D02*
X136515238Y-65965771D01*
X136515238Y-65965771D02*
X136324762Y-65965771D01*
X136324762Y-65965771D02*
X136229524Y-66013390D01*
X136229524Y-66013390D02*
X136181905Y-66061009D01*
X136181905Y-66061009D02*
X136134286Y-66156247D01*
X56859580Y-87166666D02*
X56907200Y-87214285D01*
X56907200Y-87214285D02*
X56954819Y-87357142D01*
X56954819Y-87357142D02*
X56954819Y-87452380D01*
X56954819Y-87452380D02*
X56907200Y-87595237D01*
X56907200Y-87595237D02*
X56811961Y-87690475D01*
X56811961Y-87690475D02*
X56716723Y-87738094D01*
X56716723Y-87738094D02*
X56526247Y-87785713D01*
X56526247Y-87785713D02*
X56383390Y-87785713D01*
X56383390Y-87785713D02*
X56192914Y-87738094D01*
X56192914Y-87738094D02*
X56097676Y-87690475D01*
X56097676Y-87690475D02*
X56002438Y-87595237D01*
X56002438Y-87595237D02*
X55954819Y-87452380D01*
X55954819Y-87452380D02*
X55954819Y-87357142D01*
X55954819Y-87357142D02*
X56002438Y-87214285D01*
X56002438Y-87214285D02*
X56050057Y-87166666D01*
X56954819Y-86214285D02*
X56954819Y-86785713D01*
X56954819Y-86499999D02*
X55954819Y-86499999D01*
X55954819Y-86499999D02*
X56097676Y-86595237D01*
X56097676Y-86595237D02*
X56192914Y-86690475D01*
X56192914Y-86690475D02*
X56240533Y-86785713D01*
X82954819Y-97661904D02*
X83764342Y-97661904D01*
X83764342Y-97661904D02*
X83859580Y-97614285D01*
X83859580Y-97614285D02*
X83907200Y-97566666D01*
X83907200Y-97566666D02*
X83954819Y-97471428D01*
X83954819Y-97471428D02*
X83954819Y-97280952D01*
X83954819Y-97280952D02*
X83907200Y-97185714D01*
X83907200Y-97185714D02*
X83859580Y-97138095D01*
X83859580Y-97138095D02*
X83764342Y-97090476D01*
X83764342Y-97090476D02*
X82954819Y-97090476D01*
X83954819Y-96090476D02*
X83954819Y-96661904D01*
X83954819Y-96376190D02*
X82954819Y-96376190D01*
X82954819Y-96376190D02*
X83097676Y-96471428D01*
X83097676Y-96471428D02*
X83192914Y-96566666D01*
X83192914Y-96566666D02*
X83240533Y-96661904D01*
X142846604Y-61166666D02*
X142846604Y-60690476D01*
X143132319Y-61261904D02*
X142132319Y-60928571D01*
X142132319Y-60928571D02*
X143132319Y-60595238D01*
X142608509Y-60261904D02*
X142608509Y-59928571D01*
X143132319Y-59785714D02*
X143132319Y-60261904D01*
X143132319Y-60261904D02*
X142132319Y-60261904D01*
X142132319Y-60261904D02*
X142132319Y-59785714D01*
X143132319Y-58833333D02*
X143132319Y-59404761D01*
X143132319Y-59119047D02*
X142132319Y-59119047D01*
X142132319Y-59119047D02*
X142275176Y-59214285D01*
X142275176Y-59214285D02*
X142370414Y-59309523D01*
X142370414Y-59309523D02*
X142418033Y-59404761D01*
X94666666Y-103074819D02*
X94666666Y-103789104D01*
X94666666Y-103789104D02*
X94619047Y-103931961D01*
X94619047Y-103931961D02*
X94523809Y-104027200D01*
X94523809Y-104027200D02*
X94380952Y-104074819D01*
X94380952Y-104074819D02*
X94285714Y-104074819D01*
X95047619Y-103074819D02*
X95666666Y-103074819D01*
X95666666Y-103074819D02*
X95333333Y-103455771D01*
X95333333Y-103455771D02*
X95476190Y-103455771D01*
X95476190Y-103455771D02*
X95571428Y-103503390D01*
X95571428Y-103503390D02*
X95619047Y-103551009D01*
X95619047Y-103551009D02*
X95666666Y-103646247D01*
X95666666Y-103646247D02*
X95666666Y-103884342D01*
X95666666Y-103884342D02*
X95619047Y-103979580D01*
X95619047Y-103979580D02*
X95571428Y-104027200D01*
X95571428Y-104027200D02*
X95476190Y-104074819D01*
X95476190Y-104074819D02*
X95190476Y-104074819D01*
X95190476Y-104074819D02*
X95095238Y-104027200D01*
X95095238Y-104027200D02*
X95047619Y-103979580D01*
X135753333Y-74584819D02*
X135420000Y-74108628D01*
X135181905Y-74584819D02*
X135181905Y-73584819D01*
X135181905Y-73584819D02*
X135562857Y-73584819D01*
X135562857Y-73584819D02*
X135658095Y-73632438D01*
X135658095Y-73632438D02*
X135705714Y-73680057D01*
X135705714Y-73680057D02*
X135753333Y-73775295D01*
X135753333Y-73775295D02*
X135753333Y-73918152D01*
X135753333Y-73918152D02*
X135705714Y-74013390D01*
X135705714Y-74013390D02*
X135658095Y-74061009D01*
X135658095Y-74061009D02*
X135562857Y-74108628D01*
X135562857Y-74108628D02*
X135181905Y-74108628D01*
X136086667Y-73584819D02*
X136753333Y-73584819D01*
X136753333Y-73584819D02*
X136324762Y-74584819D01*
X129833333Y-103859580D02*
X129785714Y-103907200D01*
X129785714Y-103907200D02*
X129642857Y-103954819D01*
X129642857Y-103954819D02*
X129547619Y-103954819D01*
X129547619Y-103954819D02*
X129404762Y-103907200D01*
X129404762Y-103907200D02*
X129309524Y-103811961D01*
X129309524Y-103811961D02*
X129261905Y-103716723D01*
X129261905Y-103716723D02*
X129214286Y-103526247D01*
X129214286Y-103526247D02*
X129214286Y-103383390D01*
X129214286Y-103383390D02*
X129261905Y-103192914D01*
X129261905Y-103192914D02*
X129309524Y-103097676D01*
X129309524Y-103097676D02*
X129404762Y-103002438D01*
X129404762Y-103002438D02*
X129547619Y-102954819D01*
X129547619Y-102954819D02*
X129642857Y-102954819D01*
X129642857Y-102954819D02*
X129785714Y-103002438D01*
X129785714Y-103002438D02*
X129833333Y-103050057D01*
X130166667Y-102954819D02*
X130785714Y-102954819D01*
X130785714Y-102954819D02*
X130452381Y-103335771D01*
X130452381Y-103335771D02*
X130595238Y-103335771D01*
X130595238Y-103335771D02*
X130690476Y-103383390D01*
X130690476Y-103383390D02*
X130738095Y-103431009D01*
X130738095Y-103431009D02*
X130785714Y-103526247D01*
X130785714Y-103526247D02*
X130785714Y-103764342D01*
X130785714Y-103764342D02*
X130738095Y-103859580D01*
X130738095Y-103859580D02*
X130690476Y-103907200D01*
X130690476Y-103907200D02*
X130595238Y-103954819D01*
X130595238Y-103954819D02*
X130309524Y-103954819D01*
X130309524Y-103954819D02*
X130214286Y-103907200D01*
X130214286Y-103907200D02*
X130166667Y-103859580D01*
X67913333Y-83084819D02*
X67580000Y-82608628D01*
X67341905Y-83084819D02*
X67341905Y-82084819D01*
X67341905Y-82084819D02*
X67722857Y-82084819D01*
X67722857Y-82084819D02*
X67818095Y-82132438D01*
X67818095Y-82132438D02*
X67865714Y-82180057D01*
X67865714Y-82180057D02*
X67913333Y-82275295D01*
X67913333Y-82275295D02*
X67913333Y-82418152D01*
X67913333Y-82418152D02*
X67865714Y-82513390D01*
X67865714Y-82513390D02*
X67818095Y-82561009D01*
X67818095Y-82561009D02*
X67722857Y-82608628D01*
X67722857Y-82608628D02*
X67341905Y-82608628D01*
X68294286Y-82180057D02*
X68341905Y-82132438D01*
X68341905Y-82132438D02*
X68437143Y-82084819D01*
X68437143Y-82084819D02*
X68675238Y-82084819D01*
X68675238Y-82084819D02*
X68770476Y-82132438D01*
X68770476Y-82132438D02*
X68818095Y-82180057D01*
X68818095Y-82180057D02*
X68865714Y-82275295D01*
X68865714Y-82275295D02*
X68865714Y-82370533D01*
X68865714Y-82370533D02*
X68818095Y-82513390D01*
X68818095Y-82513390D02*
X68246667Y-83084819D01*
X68246667Y-83084819D02*
X68865714Y-83084819D01*
D11*
%TO.C,U3*%
X144375000Y-76100000D02*
X144135000Y-75764000D01*
X144615000Y-75764000D01*
X144375000Y-76100000D01*
G36*
X144375000Y-76100000D02*
G01*
X144135000Y-75764000D01*
X144615000Y-75764000D01*
X144375000Y-76100000D01*
G37*
X161075000Y-92100000D02*
X161075000Y-91700000D01*
X161075000Y-75900000D02*
X161075000Y-76300000D01*
X144875000Y-92100000D02*
X161075000Y-92100000D01*
X144875000Y-91700000D02*
X144875000Y-92100000D01*
X144875000Y-75900000D02*
X161075000Y-75900000D01*
%TO.C,J4*%
X112940000Y-93090000D02*
X112940000Y-100910000D01*
X112940000Y-94690000D02*
X113860000Y-94690000D01*
X112940000Y-100910000D02*
X119060000Y-100910000D01*
X113860000Y-93090000D02*
X112940000Y-93090000D01*
X113860000Y-94690000D02*
X113860000Y-93090000D01*
X114140000Y-94690000D02*
X113860000Y-94690000D01*
X114140000Y-94690000D02*
X114140000Y-93475000D01*
X114200000Y-98650000D02*
X114200000Y-100910000D01*
X114700000Y-98650000D02*
X114700000Y-100910000D01*
X115500000Y-96550000D02*
X116500000Y-96550000D01*
X115500000Y-100910000D02*
X115500000Y-96550000D01*
X116500000Y-96550000D02*
X116500000Y-100910000D01*
X118140000Y-93090000D02*
X118140000Y-94690000D01*
X118140000Y-94690000D02*
X117860000Y-94690000D01*
X119060000Y-93090000D02*
X118140000Y-93090000D01*
X119060000Y-94690000D02*
X118140000Y-94690000D01*
X119060000Y-100910000D02*
X119060000Y-93090000D01*
X113700000Y-97050000D02*
X114700000Y-97050000D01*
X114700000Y-98650000D01*
X113700000Y-98650000D01*
X113700000Y-97050000D01*
X117300000Y-97050000D02*
X118300000Y-97050000D01*
X118300000Y-98650000D01*
X117300000Y-98650000D01*
X117300000Y-97050000D01*
%TO.C,D3*%
X123170000Y-74955000D02*
X123170000Y-78045000D01*
X123170000Y-74955170D02*
G75*
G02*
X128720000Y-76500000I2560000J-1544830D01*
G01*
X128720000Y-76500000D02*
G75*
G02*
X123170000Y-78044830I-2990000J0D01*
G01*
X128230000Y-76500000D02*
G75*
G02*
X123230000Y-76500000I-2500000J0D01*
G01*
X123230000Y-76500000D02*
G75*
G02*
X128230000Y-76500000I2500000J0D01*
G01*
%TO.C,R4*%
X131880000Y-61500000D02*
X132650000Y-61500000D01*
X139960000Y-61500000D02*
X139190000Y-61500000D01*
X132650000Y-60130000D02*
X139190000Y-60130000D01*
X139190000Y-62870000D01*
X132650000Y-62870000D01*
X132650000Y-60130000D01*
%TO.C,R1*%
X64040000Y-81000000D02*
X64810000Y-81000000D01*
X72120000Y-81000000D02*
X71350000Y-81000000D01*
X64810000Y-79630000D02*
X71350000Y-79630000D01*
X71350000Y-82370000D01*
X64810000Y-82370000D01*
X64810000Y-79630000D01*
%TO.C,U4*%
X122120000Y-100580000D02*
X123500000Y-100580000D01*
X122120000Y-101960000D02*
X122120000Y-100580000D01*
X122120000Y-103230000D02*
X122120000Y-110960000D01*
X122120000Y-103230000D02*
X124880000Y-103230000D01*
X122120000Y-110960000D02*
X124880000Y-110960000D01*
X124880000Y-103230000D02*
X124880000Y-110960000D01*
%TO.C,D1*%
X123170000Y-59955000D02*
X123170000Y-63045000D01*
X123170000Y-59955170D02*
G75*
G02*
X128720000Y-61500000I2560000J-1544830D01*
G01*
X128720000Y-61500000D02*
G75*
G02*
X123170000Y-63044830I-2990000J0D01*
G01*
X128230000Y-61500000D02*
G75*
G02*
X123230000Y-61500000I-2500000J0D01*
G01*
X123230000Y-61500000D02*
G75*
G02*
X128230000Y-61500000I2500000J0D01*
G01*
%TO.C,C2*%
X148380000Y-72130000D02*
X153620000Y-72130000D01*
X148380000Y-72467000D02*
X148380000Y-72130000D01*
X148380000Y-74870000D02*
X148380000Y-74533000D01*
X153620000Y-72130000D02*
X153620000Y-72467000D01*
X153620000Y-74533000D02*
X153620000Y-74870000D01*
X153620000Y-74870000D02*
X148380000Y-74870000D01*
%TO.C,J2*%
X79620000Y-97080000D02*
X81000000Y-97080000D01*
X79620000Y-98460000D02*
X79620000Y-97080000D01*
X79620000Y-99730000D02*
X79620000Y-104920000D01*
X79620000Y-99730000D02*
X82380000Y-99730000D01*
X79620000Y-104920000D02*
X82380000Y-104920000D01*
X82380000Y-99730000D02*
X82380000Y-104920000D01*
%TO.C,C5*%
X149400000Y-96130000D02*
X154640000Y-96130000D01*
X149400000Y-96467000D02*
X149400000Y-96130000D01*
X149400000Y-98870000D02*
X149400000Y-98533000D01*
X154640000Y-96130000D02*
X154640000Y-96467000D01*
X154640000Y-98533000D02*
X154640000Y-98870000D01*
X154640000Y-98870000D02*
X149400000Y-98870000D01*
%TO.C,C4*%
X141445225Y-104525000D02*
X141945225Y-104525000D01*
X141695225Y-104275000D02*
X141695225Y-104775000D01*
X144250000Y-103420000D02*
X144250000Y-108580000D01*
X144290000Y-103420000D02*
X144290000Y-108580000D01*
X144330000Y-103421000D02*
X144330000Y-108579000D01*
X144370000Y-103423000D02*
X144370000Y-108577000D01*
X144410000Y-103425000D02*
X144410000Y-108575000D01*
X144450000Y-103428000D02*
X144450000Y-108572000D01*
X144490000Y-103431000D02*
X144490000Y-104960000D01*
X144490000Y-107040000D02*
X144490000Y-108569000D01*
X144530000Y-103435000D02*
X144530000Y-104960000D01*
X144530000Y-107040000D02*
X144530000Y-108565000D01*
X144570000Y-103440000D02*
X144570000Y-104960000D01*
X144570000Y-107040000D02*
X144570000Y-108560000D01*
X144610000Y-103445000D02*
X144610000Y-104960000D01*
X144610000Y-107040000D02*
X144610000Y-108555000D01*
X144650000Y-103451000D02*
X144650000Y-104960000D01*
X144650000Y-107040000D02*
X144650000Y-108549000D01*
X144690000Y-103457000D02*
X144690000Y-104960000D01*
X144690000Y-107040000D02*
X144690000Y-108543000D01*
X144730000Y-103464000D02*
X144730000Y-104960000D01*
X144730000Y-107040000D02*
X144730000Y-108536000D01*
X144770000Y-103472000D02*
X144770000Y-104960000D01*
X144770000Y-107040000D02*
X144770000Y-108528000D01*
X144810000Y-103481000D02*
X144810000Y-104960000D01*
X144810000Y-107040000D02*
X144810000Y-108519000D01*
X144850000Y-103490000D02*
X144850000Y-104960000D01*
X144850000Y-107040000D02*
X144850000Y-108510000D01*
X144890000Y-103499000D02*
X144890000Y-104960000D01*
X144890000Y-107040000D02*
X144890000Y-108501000D01*
X144930000Y-103510000D02*
X144930000Y-104960000D01*
X144930000Y-107040000D02*
X144930000Y-108490000D01*
X144970000Y-103521000D02*
X144970000Y-104960000D01*
X144970000Y-107040000D02*
X144970000Y-108479000D01*
X145010000Y-103533000D02*
X145010000Y-104960000D01*
X145010000Y-107040000D02*
X145010000Y-108467000D01*
X145050000Y-103545000D02*
X145050000Y-104960000D01*
X145050000Y-107040000D02*
X145050000Y-108455000D01*
X145090000Y-103558000D02*
X145090000Y-104960000D01*
X145090000Y-107040000D02*
X145090000Y-108442000D01*
X145130000Y-103572000D02*
X145130000Y-104960000D01*
X145130000Y-107040000D02*
X145130000Y-108428000D01*
X145170000Y-103587000D02*
X145170000Y-104960000D01*
X145170000Y-107040000D02*
X145170000Y-108413000D01*
X145210000Y-103602000D02*
X145210000Y-104960000D01*
X145210000Y-107040000D02*
X145210000Y-108398000D01*
X145250000Y-103618000D02*
X145250000Y-104960000D01*
X145250000Y-107040000D02*
X145250000Y-108382000D01*
X145290000Y-103635000D02*
X145290000Y-104960000D01*
X145290000Y-107040000D02*
X145290000Y-108365000D01*
X145330000Y-103653000D02*
X145330000Y-104960000D01*
X145330000Y-107040000D02*
X145330000Y-108347000D01*
X145370000Y-103671000D02*
X145370000Y-104960000D01*
X145370000Y-107040000D02*
X145370000Y-108329000D01*
X145410000Y-103691000D02*
X145410000Y-104960000D01*
X145410000Y-107040000D02*
X145410000Y-108309000D01*
X145450000Y-103711000D02*
X145450000Y-104960000D01*
X145450000Y-107040000D02*
X145450000Y-108289000D01*
X145490000Y-103732000D02*
X145490000Y-104960000D01*
X145490000Y-107040000D02*
X145490000Y-108268000D01*
X145530000Y-103754000D02*
X145530000Y-104960000D01*
X145530000Y-107040000D02*
X145530000Y-108246000D01*
X145570000Y-103777000D02*
X145570000Y-104960000D01*
X145570000Y-107040000D02*
X145570000Y-108223000D01*
X145610000Y-103801000D02*
X145610000Y-104960000D01*
X145610000Y-107040000D02*
X145610000Y-108199000D01*
X145650000Y-103825000D02*
X145650000Y-104960000D01*
X145650000Y-107040000D02*
X145650000Y-108175000D01*
X145690000Y-103851000D02*
X145690000Y-104960000D01*
X145690000Y-107040000D02*
X145690000Y-108149000D01*
X145730000Y-103878000D02*
X145730000Y-104960000D01*
X145730000Y-107040000D02*
X145730000Y-108122000D01*
X145770000Y-103906000D02*
X145770000Y-104960000D01*
X145770000Y-107040000D02*
X145770000Y-108094000D01*
X145810000Y-103935000D02*
X145810000Y-104960000D01*
X145810000Y-107040000D02*
X145810000Y-108065000D01*
X145850000Y-103965000D02*
X145850000Y-104960000D01*
X145850000Y-107040000D02*
X145850000Y-108035000D01*
X145890000Y-103997000D02*
X145890000Y-104960000D01*
X145890000Y-107040000D02*
X145890000Y-108003000D01*
X145930000Y-104030000D02*
X145930000Y-104960000D01*
X145930000Y-107040000D02*
X145930000Y-107970000D01*
X145970000Y-104064000D02*
X145970000Y-104960000D01*
X145970000Y-107040000D02*
X145970000Y-107936000D01*
X146010000Y-104099000D02*
X146010000Y-104960000D01*
X146010000Y-107040000D02*
X146010000Y-107901000D01*
X146050000Y-104136000D02*
X146050000Y-104960000D01*
X146050000Y-107040000D02*
X146050000Y-107864000D01*
X146090000Y-104175000D02*
X146090000Y-104960000D01*
X146090000Y-107040000D02*
X146090000Y-107825000D01*
X146130000Y-104215000D02*
X146130000Y-104960000D01*
X146130000Y-107040000D02*
X146130000Y-107785000D01*
X146170000Y-104257000D02*
X146170000Y-104960000D01*
X146170000Y-107040000D02*
X146170000Y-107743000D01*
X146210000Y-104301000D02*
X146210000Y-104960000D01*
X146210000Y-107040000D02*
X146210000Y-107699000D01*
X146250000Y-104348000D02*
X146250000Y-104960000D01*
X146250000Y-107040000D02*
X146250000Y-107652000D01*
X146290000Y-104396000D02*
X146290000Y-104960000D01*
X146290000Y-107040000D02*
X146290000Y-107604000D01*
X146330000Y-104447000D02*
X146330000Y-104960000D01*
X146330000Y-107040000D02*
X146330000Y-107553000D01*
X146370000Y-104501000D02*
X146370000Y-104960000D01*
X146370000Y-107040000D02*
X146370000Y-107499000D01*
X146410000Y-104557000D02*
X146410000Y-104960000D01*
X146410000Y-107040000D02*
X146410000Y-107443000D01*
X146450000Y-104617000D02*
X146450000Y-104960000D01*
X146450000Y-107040000D02*
X146450000Y-107383000D01*
X146490000Y-104681000D02*
X146490000Y-104960000D01*
X146490000Y-107040000D02*
X146490000Y-107319000D01*
X146530000Y-104749000D02*
X146530000Y-104960000D01*
X146530000Y-107040000D02*
X146530000Y-107251000D01*
X146570000Y-104823000D02*
X146570000Y-107177000D01*
X146610000Y-104902000D02*
X146610000Y-107098000D01*
X146650000Y-104989000D02*
X146650000Y-107011000D01*
X146690000Y-105086000D02*
X146690000Y-106914000D01*
X146730000Y-105195000D02*
X146730000Y-106805000D01*
X146770000Y-105323000D02*
X146770000Y-106677000D01*
X146810000Y-105483000D02*
X146810000Y-106517000D01*
X146850000Y-105717000D02*
X146850000Y-106283000D01*
X146870000Y-106000000D02*
G75*
G02*
X141630000Y-106000000I-2620000J0D01*
G01*
X141630000Y-106000000D02*
G75*
G02*
X146870000Y-106000000I2620000J0D01*
G01*
%TO.C,D2*%
X123170000Y-67455000D02*
X123170000Y-70545000D01*
X123170000Y-67455170D02*
G75*
G02*
X128720000Y-69000000I2560000J-1544830D01*
G01*
X128720000Y-69000000D02*
G75*
G02*
X123170000Y-70544830I-2990000J0D01*
G01*
X128230000Y-69000000D02*
G75*
G02*
X123230000Y-69000000I-2500000J0D01*
G01*
X123230000Y-69000000D02*
G75*
G02*
X128230000Y-69000000I2500000J0D01*
G01*
%TO.C,J1*%
X75030000Y-97080000D02*
X76410000Y-97080000D01*
X75030000Y-98460000D02*
X75030000Y-97080000D01*
X75030000Y-99730000D02*
X75030000Y-104920000D01*
X75030000Y-99730000D02*
X77790000Y-99730000D01*
X75030000Y-104920000D02*
X77790000Y-104920000D01*
X77790000Y-99730000D02*
X77790000Y-104920000D01*
%TO.C,U5*%
X124850000Y-93740000D02*
X135070000Y-93740000D01*
X124850000Y-95120000D02*
X135070000Y-95120000D01*
X124850000Y-98360000D02*
X124850000Y-93740000D01*
X128110000Y-93740000D02*
X128110000Y-95120000D01*
X131810000Y-93740000D02*
X131810000Y-95120000D01*
X135070000Y-93740000D02*
X135070000Y-98360000D01*
X135070000Y-98360000D02*
X124850000Y-98360000D01*
%TO.C,U2*%
X53120000Y-93230000D02*
X53120000Y-80420000D01*
X55880000Y-80420000D02*
X53120000Y-80420000D01*
X55880000Y-93230000D02*
X53120000Y-93230000D01*
X55880000Y-93230000D02*
X55880000Y-80420000D01*
X55880000Y-94500000D02*
X55880000Y-95880000D01*
X55880000Y-95880000D02*
X54500000Y-95880000D01*
%TO.C,R5*%
X133030000Y-101500000D02*
X133800000Y-101500000D01*
X141110000Y-101500000D02*
X140340000Y-101500000D01*
X133800000Y-100130000D02*
X140340000Y-100130000D01*
X140340000Y-102870000D01*
X133800000Y-102870000D01*
X133800000Y-100130000D01*
%TO.C,R3*%
X63880000Y-88500000D02*
X64650000Y-88500000D01*
X71960000Y-88500000D02*
X71190000Y-88500000D01*
X71190000Y-89870000D02*
X64650000Y-89870000D01*
X64650000Y-87130000D01*
X71190000Y-87130000D01*
X71190000Y-89870000D01*
%TO.C,R6*%
X131880000Y-68500000D02*
X132650000Y-68500000D01*
X139960000Y-68500000D02*
X139190000Y-68500000D01*
X132650000Y-67130000D02*
X139190000Y-67130000D01*
X139190000Y-69870000D01*
X132650000Y-69870000D01*
X132650000Y-67130000D01*
%TO.C,C1*%
X57630000Y-84380000D02*
X57967000Y-84380000D01*
X57630000Y-89620000D02*
X57630000Y-84380000D01*
X57967000Y-89620000D02*
X57630000Y-89620000D01*
X60033000Y-84380000D02*
X60370000Y-84380000D01*
X60370000Y-84380000D02*
X60370000Y-89620000D01*
X60370000Y-89620000D02*
X60033000Y-89620000D01*
%TO.C,U1*%
X84800000Y-72600000D02*
X84800000Y-78800000D01*
X84800000Y-72600000D02*
X103200000Y-72600000D01*
X84800000Y-97450000D02*
X84800000Y-98450000D01*
X84800000Y-98450000D02*
X86300000Y-98450000D01*
X103200000Y-72600000D02*
X103200000Y-78800000D01*
X103200000Y-98450000D02*
X101700000Y-98450000D01*
X103200000Y-98450000D02*
X103200000Y-97450000D01*
X84800000Y-79475000D02*
X84300000Y-79475000D01*
X84800000Y-78975000D01*
X84800000Y-79475000D01*
G36*
X84800000Y-79475000D02*
G01*
X84300000Y-79475000D01*
X84800000Y-78975000D01*
X84800000Y-79475000D01*
G37*
%TO.C,AE1*%
X142927500Y-62750000D02*
X142927500Y-63250000D01*
X142927500Y-63250000D02*
X143427500Y-63000000D01*
X143427500Y-63000000D02*
X142927500Y-62750000D01*
%TO.C,J3*%
X93620000Y-104620000D02*
X95000000Y-104620000D01*
X93620000Y-106000000D02*
X93620000Y-104620000D01*
X93620000Y-107270000D02*
X93620000Y-109920000D01*
X93620000Y-107270000D02*
X96380000Y-107270000D01*
X93620000Y-109920000D02*
X96380000Y-109920000D01*
X96380000Y-107270000D02*
X96380000Y-109920000D01*
%TO.C,R7*%
X131880000Y-76500000D02*
X132650000Y-76500000D01*
X139960000Y-76500000D02*
X139190000Y-76500000D01*
X132650000Y-75130000D02*
X139190000Y-75130000D01*
X139190000Y-77870000D01*
X132650000Y-77870000D01*
X132650000Y-75130000D01*
%TO.C,C3*%
X127380000Y-104630000D02*
X132620000Y-104630000D01*
X127380000Y-104967000D02*
X127380000Y-104630000D01*
X127380000Y-107370000D02*
X127380000Y-107033000D01*
X132620000Y-104630000D02*
X132620000Y-104967000D01*
X132620000Y-107033000D02*
X132620000Y-107370000D01*
X132620000Y-107370000D02*
X127380000Y-107370000D01*
%TO.C,R2*%
X64040000Y-85000000D02*
X64810000Y-85000000D01*
X72120000Y-85000000D02*
X71350000Y-85000000D01*
X64810000Y-83630000D02*
X71350000Y-83630000D01*
X71350000Y-86370000D01*
X64810000Y-86370000D01*
X64810000Y-83630000D01*
%TD*%
M02*
