%TF.GenerationSoftware,KiCad,Pcbnew,9.0.7*%
%TF.CreationDate,2026-06-11T04:23:12+05:30*%
%TF.ProjectId,SmartGuard_v1,536d6172-7447-4756-9172-645f76312e6b,rev?*%
%TF.SameCoordinates,Original*%
%TF.FileFunction,Copper,L2,Bot*%
%TF.FilePolarity,Positive*%
%FSLAX46Y46*%
G04 Gerber Fmt 4.6, Leading zero omitted, Abs format (unit mm)*
G04 Created by KiCad (PCBNEW 9.0.7) date 2026-06-11 04:23:12*
%MOMM*%
%LPD*%
G01*
G04 APERTURE LIST*
G04 Aperture macros list*
%AMRoundRect*
0 Rectangle with rounded corners*
0 $1 Rounding radius*
0 $2 $3 $4 $5 $6 $7 $8 $9 X,Y pos of 4 corners*
0 Add a 4 corners polygon primitive as box body*
4,1,4,$2,$3,$4,$5,$6,$7,$8,$9,$2,$3,0*
0 Add four circle primitives for the rounded corners*
1,1,$1+$1,$2,$3*
1,1,$1+$1,$4,$5*
1,1,$1+$1,$6,$7*
1,1,$1+$1,$8,$9*
0 Add four rect primitives between the rounded corners*
20,1,$1+$1,$2,$3,$4,$5,0*
20,1,$1+$1,$4,$5,$6,$7,0*
20,1,$1+$1,$6,$7,$8,$9,0*
20,1,$1+$1,$8,$9,$2,$3,0*%
G04 Aperture macros list end*
%TA.AperFunction,ComponentPad*%
%ADD10RoundRect,0.250000X-0.350000X-0.625000X0.350000X-0.625000X0.350000X0.625000X-0.350000X0.625000X0*%
%TD*%
%TA.AperFunction,ComponentPad*%
%ADD11O,1.200000X1.750000*%
%TD*%
%TA.AperFunction,ComponentPad*%
%ADD12R,1.800000X1.800000*%
%TD*%
%TA.AperFunction,ComponentPad*%
%ADD13C,1.800000*%
%TD*%
%TA.AperFunction,ComponentPad*%
%ADD14C,1.600000*%
%TD*%
%TA.AperFunction,ComponentPad*%
%ADD15R,1.700000X1.700000*%
%TD*%
%TA.AperFunction,ComponentPad*%
%ADD16C,1.700000*%
%TD*%
%TA.AperFunction,ComponentPad*%
%ADD17RoundRect,0.250000X-0.550000X-0.550000X0.550000X-0.550000X0.550000X0.550000X-0.550000X0.550000X0*%
%TD*%
%TA.AperFunction,ComponentPad*%
%ADD18R,1.905000X2.000000*%
%TD*%
%TA.AperFunction,ComponentPad*%
%ADD19O,1.905000X2.000000*%
%TD*%
%TA.AperFunction,HeatsinkPad*%
%ADD20C,0.600000*%
%TD*%
%TA.AperFunction,SMDPad,CuDef*%
%ADD21R,5.080000X1.500000*%
%TD*%
%TA.AperFunction,ViaPad*%
%ADD22C,0.800000*%
%TD*%
%TA.AperFunction,Conductor*%
%ADD23C,0.250000*%
%TD*%
%TA.AperFunction,Conductor*%
%ADD24C,0.500000*%
%TD*%
G04 APERTURE END LIST*
D10*
%TO.P,J4,1,VBAT*%
%TO.N,Net-(J4-VBAT)*%
X115000000Y-94550000D03*
D11*
%TO.P,J4,2,Pin_2*%
%TO.N,GND*%
X117000000Y-94550000D03*
%TD*%
D12*
%TO.P,D3,1,K*%
%TO.N,GND*%
X124460000Y-76500000D03*
D13*
%TO.P,D3,2,A*%
%TO.N,Net-(D3-A)*%
X127000000Y-76500000D03*
%TD*%
D14*
%TO.P,R4,1*%
%TO.N,/LED_RED*%
X130840000Y-61500000D03*
%TO.P,R4,2*%
%TO.N,Net-(D1-A)*%
X141000000Y-61500000D03*
%TD*%
%TO.P,R1,1*%
%TO.N,Net-(U1-EN)*%
X63000000Y-81000000D03*
%TO.P,R1,2*%
%TO.N,+3V3*%
X73160000Y-81000000D03*
%TD*%
D15*
%TO.P,U4,1,TEMP*%
%TO.N,unconnected-(U4-TEMP-Pad1)*%
X123500000Y-101960000D03*
D16*
%TO.P,U4,2,PROG*%
%TO.N,Net-(U4-PROG)*%
X123500000Y-104500000D03*
%TO.P,U4,3,GND*%
%TO.N,GND*%
X123500000Y-107040000D03*
%TO.P,U4,4,V_{CC}*%
%TO.N,VCC*%
X123500000Y-109580000D03*
%TD*%
D12*
%TO.P,D1,1,K*%
%TO.N,GND*%
X124460000Y-61500000D03*
D13*
%TO.P,D1,2,A*%
%TO.N,Net-(D1-A)*%
X127000000Y-61500000D03*
%TD*%
D14*
%TO.P,C2,1*%
%TO.N,VCC*%
X148500000Y-73500000D03*
%TO.P,C2,2*%
%TO.N,GND*%
X153500000Y-73500000D03*
%TD*%
D15*
%TO.P,J2,1,VCC*%
%TO.N,+5V*%
X81000000Y-98460000D03*
D16*
%TO.P,J2,2,PIR_B*%
%TO.N,/PIR_B*%
X81000000Y-101000000D03*
%TO.P,J2,3,GND*%
%TO.N,GND*%
X81000000Y-103540000D03*
%TD*%
D14*
%TO.P,C5,1*%
%TO.N,+3V3*%
X149520000Y-97500000D03*
%TO.P,C5,2*%
%TO.N,GND*%
X154520000Y-97500000D03*
%TD*%
D17*
%TO.P,C4,1*%
%TO.N,Net-(J4-VBAT)*%
X143000000Y-106000000D03*
D14*
%TO.P,C4,2*%
%TO.N,GND*%
X145500000Y-106000000D03*
%TD*%
D12*
%TO.P,D2,1,K*%
%TO.N,GND*%
X124460000Y-69000000D03*
D13*
%TO.P,D2,2,A*%
%TO.N,Net-(D2-A)*%
X127000000Y-69000000D03*
%TD*%
D15*
%TO.P,J1,1,VCC*%
%TO.N,+5V*%
X76410000Y-98460000D03*
D16*
%TO.P,J1,2,PIR_A*%
%TO.N,/PIR_A*%
X76410000Y-101000000D03*
%TO.P,J1,3,GND*%
%TO.N,GND*%
X76410000Y-103540000D03*
%TD*%
D18*
%TO.P,U5,1,GND*%
%TO.N,unconnected-(U5-GND-Pad1)*%
X127420000Y-97000000D03*
D19*
%TO.P,U5,2,VO*%
%TO.N,+3V3*%
X129960000Y-97000000D03*
%TO.P,U5,3,VI*%
%TO.N,Net-(J4-VBAT)*%
X132500000Y-97000000D03*
%TD*%
D15*
%TO.P,U2,1,AVDDVCSEL*%
%TO.N,unconnected-(U2-AVDDVCSEL-Pad1)*%
X54500000Y-94500000D03*
D16*
%TO.P,U2,2,AVSSVCSEL*%
%TO.N,unconnected-(U2-AVSSVCSEL-Pad2)*%
X54500000Y-91960000D03*
%TO.P,U2,3,GND*%
%TO.N,GND*%
X54500000Y-89420000D03*
%TO.P,U2,4,GND*%
X54500000Y-86880000D03*
%TO.P,U2,5,XSHUT*%
%TO.N,/TOF_XSHUT*%
X54500000Y-84340000D03*
%TO.P,U2,6,GND*%
%TO.N,GND*%
X54500000Y-81800000D03*
%TD*%
D14*
%TO.P,R5,1*%
%TO.N,GND*%
X131990000Y-101500000D03*
%TO.P,R5,2*%
%TO.N,Net-(U4-PROG)*%
X142150000Y-101500000D03*
%TD*%
%TO.P,R3,1*%
%TO.N,+3V3*%
X73000000Y-88500000D03*
%TO.P,R3,2*%
%TO.N,/I2C_SCL*%
X62840000Y-88500000D03*
%TD*%
%TO.P,R6,1*%
%TO.N,/LED_GRN*%
X130840000Y-68500000D03*
%TO.P,R6,2*%
%TO.N,Net-(D3-A)*%
X141000000Y-68500000D03*
%TD*%
%TO.P,C1,1*%
%TO.N,GND*%
X59000000Y-89500000D03*
%TO.P,C1,2*%
%TO.N,+3V3*%
X59000000Y-84500000D03*
%TD*%
D20*
%TO.P,U1,41,GND*%
%TO.N,GND*%
X91100000Y-87260000D03*
X91100000Y-88660000D03*
X91800000Y-86560000D03*
X91800000Y-87960000D03*
X91800000Y-89360000D03*
X92500000Y-87260000D03*
X92500000Y-88660000D03*
X93200000Y-86560000D03*
X93200000Y-87960000D03*
X93200000Y-89360000D03*
X93900000Y-87260000D03*
X93900000Y-88660000D03*
%TD*%
D21*
%TO.P,AE1,2*%
%TO.N,N/C*%
X146637500Y-58750000D03*
X146637500Y-67250000D03*
%TD*%
D15*
%TO.P,J3,1*%
%TO.N,N/C*%
X95000000Y-106000000D03*
D16*
%TO.P,J3,2*%
X95000000Y-108540000D03*
%TD*%
D14*
%TO.P,R7,1*%
%TO.N,/LED_AMB*%
X130840000Y-76500000D03*
%TO.P,R7,2*%
%TO.N,Net-(D2-A)*%
X141000000Y-76500000D03*
%TD*%
%TO.P,C3,1*%
%TO.N,Net-(J4-VBAT)*%
X127500000Y-106000000D03*
%TO.P,C3,2*%
%TO.N,GND*%
X132500000Y-106000000D03*
%TD*%
%TO.P,R2,1*%
%TO.N,+3V3*%
X63000000Y-85000000D03*
%TO.P,R2,2*%
%TO.N,/I2C_SDA*%
X73160000Y-85000000D03*
%TD*%
D22*
%TO.N,/LORA_NSS*%
X101106500Y-96370400D03*
X106255900Y-87567500D03*
%TO.N,/LED_GRN*%
X118238900Y-95027600D03*
%TO.N,/LED_RED*%
X101386300Y-95368600D03*
%TO.N,/PIR_B*%
X82311700Y-92642500D03*
%TO.N,/PIR_A*%
X80990700Y-90525600D03*
%TO.N,+3V3*%
X92394900Y-100725300D03*
%TO.N,GND*%
X101339100Y-80245000D03*
X83885200Y-80403100D03*
X158363000Y-89418100D03*
%TD*%
D23*
%TO.N,/LORA_NSS*%
X100618600Y-95882500D02*
X101106500Y-96370400D01*
X100618600Y-93204800D02*
X100618600Y-95882500D01*
X106255900Y-87567500D02*
X100618600Y-93204800D01*
%TO.N,/LED_GRN*%
X125729900Y-73610100D02*
X130840000Y-68500000D01*
X125729900Y-87536600D02*
X125729900Y-73610100D01*
X118238900Y-95027600D02*
X125729900Y-87536600D01*
%TO.N,/LED_RED*%
X101852800Y-95368600D02*
X101386300Y-95368600D01*
X121598300Y-75623100D02*
X101852800Y-95368600D01*
X121598300Y-69546400D02*
X121598300Y-75623100D01*
X129644700Y-61500000D02*
X121598300Y-69546400D01*
X130840000Y-61500000D02*
X129644700Y-61500000D01*
%TO.N,/PIR_B*%
X82311700Y-99688300D02*
X82311700Y-92642500D01*
X81000000Y-101000000D02*
X82311700Y-99688300D01*
%TO.N,/PIR_A*%
X75196400Y-96319900D02*
X80990700Y-90525600D01*
X75196400Y-99786400D02*
X75196400Y-96319900D01*
X76410000Y-101000000D02*
X75196400Y-99786400D01*
D24*
%TO.N,+5V*%
X76410000Y-98460000D02*
X81000000Y-98460000D01*
D23*
%TO.N,Net-(D3-A)*%
X135000000Y-68500000D02*
X127000000Y-76500000D01*
X141000000Y-68500000D02*
X135000000Y-68500000D01*
%TO.N,Net-(J4-VBAT)*%
X127500000Y-100205000D02*
X127500000Y-106000000D01*
X129295000Y-100205000D02*
X127500000Y-100205000D01*
X132500000Y-97000000D02*
X129295000Y-100205000D01*
X120655000Y-100205000D02*
X115000000Y-94550000D01*
X127500000Y-100205000D02*
X120655000Y-100205000D01*
D24*
%TO.N,+3V3*%
X66500000Y-88500000D02*
X73000000Y-88500000D01*
X63000000Y-85000000D02*
X66500000Y-88500000D01*
X73000000Y-88500000D02*
X74449000Y-87051000D01*
X74449000Y-82289000D02*
X73160000Y-81000000D01*
X74449000Y-87051000D02*
X74449000Y-82289000D01*
X78720600Y-87051000D02*
X74449000Y-87051000D01*
X92394900Y-100725300D02*
X78720600Y-87051000D01*
D23*
%TO.N,VCC*%
X148500000Y-73500000D02*
X149500000Y-88500000D01*
X149500000Y-88500000D02*
X125623400Y-109580000D01*
X125623400Y-109580000D02*
X123500000Y-109580000D01*
%TD*%
%TA.AperFunction,Conductor*%
%TO.N,GND*%
G36*
X171442539Y-50020185D02*
G01*
X171488294Y-50072989D01*
X171499500Y-50124500D01*
X171499500Y-120875500D01*
X171479815Y-120942539D01*
X171427011Y-120988294D01*
X171375500Y-120999500D01*
X45124500Y-120999500D01*
X45057461Y-120979815D01*
X45011706Y-120927011D01*
X45000500Y-120875500D01*
X45000500Y-108436530D01*
X93949500Y-108436530D01*
X93949500Y-108643469D01*
X93989868Y-108846412D01*
X93989870Y-108846420D01*
X94069058Y-109037596D01*
X94184024Y-109209657D01*
X94330342Y-109355975D01*
X94330345Y-109355977D01*
X94502402Y-109470941D01*
X94693580Y-109550130D01*
X94896530Y-109590499D01*
X94896534Y-109590500D01*
X94896535Y-109590500D01*
X95103466Y-109590500D01*
X95103467Y-109590499D01*
X95306420Y-109550130D01*
X95497598Y-109470941D01*
X95669655Y-109355977D01*
X95815977Y-109209655D01*
X95930941Y-109037598D01*
X96010130Y-108846420D01*
X96050500Y-108643465D01*
X96050500Y-108436535D01*
X96010130Y-108233580D01*
X95930941Y-108042402D01*
X95815977Y-107870345D01*
X95815975Y-107870342D01*
X95669657Y-107724024D01*
X95583626Y-107666541D01*
X95497598Y-107609059D01*
X95306420Y-107529870D01*
X95306412Y-107529868D01*
X95103469Y-107489500D01*
X95103465Y-107489500D01*
X94896535Y-107489500D01*
X94896530Y-107489500D01*
X94693587Y-107529868D01*
X94693579Y-107529870D01*
X94502403Y-107609058D01*
X94330342Y-107724024D01*
X94184024Y-107870342D01*
X94069058Y-108042403D01*
X93989870Y-108233579D01*
X93989868Y-108233587D01*
X93949500Y-108436530D01*
X45000500Y-108436530D01*
X45000500Y-105130247D01*
X93949500Y-105130247D01*
X93949500Y-106869752D01*
X93961131Y-106928229D01*
X93961132Y-106928230D01*
X94005447Y-106994552D01*
X94071769Y-107038867D01*
X94071770Y-107038868D01*
X94130247Y-107050499D01*
X94130250Y-107050500D01*
X94130252Y-107050500D01*
X95869750Y-107050500D01*
X95869751Y-107050499D01*
X95884568Y-107047552D01*
X95928229Y-107038868D01*
X95928229Y-107038867D01*
X95928231Y-107038867D01*
X95994552Y-106994552D01*
X96038867Y-106928231D01*
X96050022Y-106872151D01*
X96050500Y-106869750D01*
X96050500Y-105130249D01*
X96050499Y-105130247D01*
X96038868Y-105071770D01*
X96038867Y-105071769D01*
X95994552Y-105005447D01*
X95928230Y-104961132D01*
X95928229Y-104961131D01*
X95869752Y-104949500D01*
X95869748Y-104949500D01*
X94130252Y-104949500D01*
X94130247Y-104949500D01*
X94071770Y-104961131D01*
X94071769Y-104961132D01*
X94005447Y-105005447D01*
X93961132Y-105071769D01*
X93961131Y-105071770D01*
X93949500Y-105130247D01*
X45000500Y-105130247D01*
X45000500Y-93630247D01*
X53449500Y-93630247D01*
X53449500Y-95369752D01*
X53461131Y-95428229D01*
X53461132Y-95428230D01*
X53505447Y-95494552D01*
X53571769Y-95538867D01*
X53571770Y-95538868D01*
X53630247Y-95550499D01*
X53630250Y-95550500D01*
X53630252Y-95550500D01*
X55369750Y-95550500D01*
X55369751Y-95550499D01*
X55384568Y-95547552D01*
X55428229Y-95538868D01*
X55428229Y-95538867D01*
X55428231Y-95538867D01*
X55494552Y-95494552D01*
X55538867Y-95428231D01*
X55538867Y-95428229D01*
X55538868Y-95428229D01*
X55550499Y-95369752D01*
X55550500Y-95369750D01*
X55550500Y-93630249D01*
X55550499Y-93630247D01*
X55538868Y-93571770D01*
X55538867Y-93571769D01*
X55494552Y-93505447D01*
X55428230Y-93461132D01*
X55428229Y-93461131D01*
X55369752Y-93449500D01*
X55369748Y-93449500D01*
X53630252Y-93449500D01*
X53630247Y-93449500D01*
X53571770Y-93461131D01*
X53571769Y-93461132D01*
X53505447Y-93505447D01*
X53461132Y-93571769D01*
X53461131Y-93571770D01*
X53449500Y-93630247D01*
X45000500Y-93630247D01*
X45000500Y-81693753D01*
X53150000Y-81693753D01*
X53150000Y-81906246D01*
X53183242Y-82116127D01*
X53183242Y-82116130D01*
X53248904Y-82318217D01*
X53345375Y-82507550D01*
X53384728Y-82561716D01*
X54017037Y-81929408D01*
X54034075Y-81992993D01*
X54099901Y-82107007D01*
X54192993Y-82200099D01*
X54307007Y-82265925D01*
X54370590Y-82282962D01*
X53738282Y-82915269D01*
X53738282Y-82915270D01*
X53792449Y-82954624D01*
X53981782Y-83051095D01*
X54157973Y-83108343D01*
X54215648Y-83147780D01*
X54242847Y-83212139D01*
X54230932Y-83280985D01*
X54183688Y-83332461D01*
X54167108Y-83340835D01*
X54002403Y-83409057D01*
X53830342Y-83524024D01*
X53684024Y-83670342D01*
X53569058Y-83842403D01*
X53489870Y-84033579D01*
X53489868Y-84033587D01*
X53449500Y-84236530D01*
X53449500Y-84443469D01*
X53489868Y-84646412D01*
X53489870Y-84646420D01*
X53569058Y-84837596D01*
X53684024Y-85009657D01*
X53830342Y-85155975D01*
X54002405Y-85270943D01*
X54084622Y-85304998D01*
X54167108Y-85339164D01*
X54221511Y-85383005D01*
X54243576Y-85449299D01*
X54226297Y-85516998D01*
X54175160Y-85564609D01*
X54157974Y-85571656D01*
X53981781Y-85628905D01*
X53792439Y-85725380D01*
X53738282Y-85764727D01*
X53738282Y-85764728D01*
X54370591Y-86397037D01*
X54307007Y-86414075D01*
X54192993Y-86479901D01*
X54099901Y-86572993D01*
X54034075Y-86687007D01*
X54017037Y-86750591D01*
X53384728Y-86118282D01*
X53384727Y-86118282D01*
X53345380Y-86172439D01*
X53248904Y-86361782D01*
X53183242Y-86563869D01*
X53183242Y-86563872D01*
X53150000Y-86773753D01*
X53150000Y-86986246D01*
X53183242Y-87196127D01*
X53183242Y-87196130D01*
X53248904Y-87398217D01*
X53345375Y-87587550D01*
X53384728Y-87641716D01*
X54017037Y-87009408D01*
X54034075Y-87072993D01*
X54099901Y-87187007D01*
X54192993Y-87280099D01*
X54307007Y-87345925D01*
X54370591Y-87362962D01*
X53769971Y-87963581D01*
X53848711Y-88080895D01*
X53849920Y-88084729D01*
X53852844Y-88087491D01*
X53860343Y-88117778D01*
X53869727Y-88147529D01*
X53868671Y-88151408D01*
X53869638Y-88155312D01*
X53859573Y-88184844D01*
X53851383Y-88214947D01*
X53848397Y-88217640D01*
X53847100Y-88221447D01*
X53802051Y-88260483D01*
X53792440Y-88265380D01*
X53738282Y-88304727D01*
X53738282Y-88304728D01*
X54370591Y-88937037D01*
X54307007Y-88954075D01*
X54192993Y-89019901D01*
X54099901Y-89112993D01*
X54034075Y-89227007D01*
X54017037Y-89290591D01*
X53384728Y-88658282D01*
X53384727Y-88658282D01*
X53345380Y-88712439D01*
X53248904Y-88901782D01*
X53183242Y-89103869D01*
X53183242Y-89103872D01*
X53150000Y-89313753D01*
X53150000Y-89526246D01*
X53183242Y-89736127D01*
X53183242Y-89736130D01*
X53248904Y-89938217D01*
X53345375Y-90127550D01*
X53384728Y-90181716D01*
X54017037Y-89549408D01*
X54034075Y-89612993D01*
X54099901Y-89727007D01*
X54192993Y-89820099D01*
X54307007Y-89885925D01*
X54370590Y-89902962D01*
X53738282Y-90535269D01*
X53738282Y-90535270D01*
X53792449Y-90574624D01*
X53981782Y-90671095D01*
X54157973Y-90728343D01*
X54215648Y-90767780D01*
X54242847Y-90832139D01*
X54230932Y-90900985D01*
X54183688Y-90952461D01*
X54167108Y-90960835D01*
X54002403Y-91029057D01*
X53830342Y-91144024D01*
X53684024Y-91290342D01*
X53569058Y-91462403D01*
X53489870Y-91653579D01*
X53489868Y-91653587D01*
X53449500Y-91856530D01*
X53449500Y-92063469D01*
X53489868Y-92266412D01*
X53489870Y-92266420D01*
X53569058Y-92457596D01*
X53684024Y-92629657D01*
X53830342Y-92775975D01*
X53830345Y-92775977D01*
X54002402Y-92890941D01*
X54193580Y-92970130D01*
X54368558Y-93004935D01*
X54396530Y-93010499D01*
X54396534Y-93010500D01*
X54396535Y-93010500D01*
X54603466Y-93010500D01*
X54603467Y-93010499D01*
X54806420Y-92970130D01*
X54997598Y-92890941D01*
X55169655Y-92775977D01*
X55315977Y-92629655D01*
X55430941Y-92457598D01*
X55510130Y-92266420D01*
X55550500Y-92063465D01*
X55550500Y-91856535D01*
X55510130Y-91653580D01*
X55430941Y-91462402D01*
X55315977Y-91290345D01*
X55315975Y-91290342D01*
X55169657Y-91144024D01*
X55081579Y-91085173D01*
X54997598Y-91029059D01*
X54997593Y-91029057D01*
X54935891Y-91003499D01*
X54832890Y-90960834D01*
X54778488Y-90916994D01*
X54756423Y-90850700D01*
X54773702Y-90783001D01*
X54824839Y-90735390D01*
X54842026Y-90728343D01*
X55018217Y-90671095D01*
X55207554Y-90574622D01*
X55261716Y-90535270D01*
X54629408Y-89902962D01*
X54692993Y-89885925D01*
X54807007Y-89820099D01*
X54900099Y-89727007D01*
X54965925Y-89612993D01*
X54982962Y-89549408D01*
X55615270Y-90181717D01*
X55615270Y-90181716D01*
X55654622Y-90127554D01*
X55751095Y-89938217D01*
X55816757Y-89736130D01*
X55816757Y-89736127D01*
X55850000Y-89526246D01*
X55850000Y-89397682D01*
X57700000Y-89397682D01*
X57700000Y-89602317D01*
X57732009Y-89804417D01*
X57795244Y-89999031D01*
X57888141Y-90181350D01*
X57888147Y-90181359D01*
X57920523Y-90225921D01*
X57920524Y-90225922D01*
X58600000Y-89546446D01*
X58600000Y-89552661D01*
X58627259Y-89654394D01*
X58679920Y-89745606D01*
X58754394Y-89820080D01*
X58845606Y-89872741D01*
X58947339Y-89900000D01*
X58953553Y-89900000D01*
X58274076Y-90579474D01*
X58318650Y-90611859D01*
X58500968Y-90704755D01*
X58695582Y-90767990D01*
X58897683Y-90800000D01*
X59102317Y-90800000D01*
X59304417Y-90767990D01*
X59499031Y-90704755D01*
X59681349Y-90611859D01*
X59725921Y-90579474D01*
X59046447Y-89900000D01*
X59052661Y-89900000D01*
X59154394Y-89872741D01*
X59245606Y-89820080D01*
X59320080Y-89745606D01*
X59372741Y-89654394D01*
X59400000Y-89552661D01*
X59400000Y-89546447D01*
X60079474Y-90225921D01*
X60111859Y-90181349D01*
X60204755Y-89999031D01*
X60267990Y-89804417D01*
X60300000Y-89602317D01*
X60300000Y-89397682D01*
X60267990Y-89195582D01*
X60204755Y-89000968D01*
X60111859Y-88818650D01*
X60079474Y-88774077D01*
X60079474Y-88774076D01*
X59400000Y-89453551D01*
X59400000Y-89447339D01*
X59372741Y-89345606D01*
X59320080Y-89254394D01*
X59245606Y-89179920D01*
X59154394Y-89127259D01*
X59052661Y-89100000D01*
X59046446Y-89100000D01*
X59547903Y-88598543D01*
X61839499Y-88598543D01*
X61877947Y-88791829D01*
X61877950Y-88791839D01*
X61953364Y-88973907D01*
X61953371Y-88973920D01*
X62062860Y-89137781D01*
X62062863Y-89137785D01*
X62202214Y-89277136D01*
X62202218Y-89277139D01*
X62366079Y-89386628D01*
X62366092Y-89386635D01*
X62548160Y-89462049D01*
X62548165Y-89462051D01*
X62548169Y-89462051D01*
X62548170Y-89462052D01*
X62741456Y-89500500D01*
X62741459Y-89500500D01*
X62938543Y-89500500D01*
X63068582Y-89474632D01*
X63131835Y-89462051D01*
X63313914Y-89386632D01*
X63477782Y-89277139D01*
X63617139Y-89137782D01*
X63726632Y-88973914D01*
X63802051Y-88791835D01*
X63823880Y-88682093D01*
X63840500Y-88598543D01*
X63840500Y-88401456D01*
X63802052Y-88208170D01*
X63802051Y-88208169D01*
X63802051Y-88208165D01*
X63792352Y-88184750D01*
X63726635Y-88026092D01*
X63726628Y-88026079D01*
X63617139Y-87862218D01*
X63617136Y-87862214D01*
X63477785Y-87722863D01*
X63477781Y-87722860D01*
X63313920Y-87613371D01*
X63313907Y-87613364D01*
X63131839Y-87537950D01*
X63131829Y-87537947D01*
X62938543Y-87499500D01*
X62938541Y-87499500D01*
X62741459Y-87499500D01*
X62741457Y-87499500D01*
X62548170Y-87537947D01*
X62548160Y-87537950D01*
X62366092Y-87613364D01*
X62366079Y-87613371D01*
X62202218Y-87722860D01*
X62202214Y-87722863D01*
X62062863Y-87862214D01*
X62062860Y-87862218D01*
X61953371Y-88026079D01*
X61953364Y-88026092D01*
X61877950Y-88208160D01*
X61877947Y-88208170D01*
X61839500Y-88401456D01*
X61839500Y-88401459D01*
X61839500Y-88598541D01*
X61839500Y-88598543D01*
X61839499Y-88598543D01*
X59547903Y-88598543D01*
X59725922Y-88420524D01*
X59725922Y-88420523D01*
X59681359Y-88388147D01*
X59681350Y-88388141D01*
X59499031Y-88295244D01*
X59304417Y-88232009D01*
X59102317Y-88200000D01*
X58897683Y-88200000D01*
X58695582Y-88232009D01*
X58500968Y-88295244D01*
X58318644Y-88388143D01*
X58274077Y-88420523D01*
X58274077Y-88420524D01*
X58953554Y-89100000D01*
X58947339Y-89100000D01*
X58845606Y-89127259D01*
X58754394Y-89179920D01*
X58679920Y-89254394D01*
X58627259Y-89345606D01*
X58600000Y-89447339D01*
X58600000Y-89453553D01*
X57920524Y-88774077D01*
X57920523Y-88774077D01*
X57888143Y-88818644D01*
X57795244Y-89000968D01*
X57732009Y-89195582D01*
X57700000Y-89397682D01*
X55850000Y-89397682D01*
X55850000Y-89313753D01*
X55816757Y-89103872D01*
X55816757Y-89103869D01*
X55751095Y-88901782D01*
X55654624Y-88712449D01*
X55615270Y-88658282D01*
X55615269Y-88658282D01*
X54982962Y-89290590D01*
X54965925Y-89227007D01*
X54900099Y-89112993D01*
X54807007Y-89019901D01*
X54692993Y-88954075D01*
X54629409Y-88937037D01*
X55186343Y-88380102D01*
X55261716Y-88304728D01*
X55207550Y-88265375D01*
X55197954Y-88260486D01*
X55147157Y-88212512D01*
X55130361Y-88144692D01*
X55152897Y-88078556D01*
X55197954Y-88039514D01*
X55207554Y-88034622D01*
X55261716Y-87995270D01*
X55261717Y-87995270D01*
X54629408Y-87362962D01*
X54692993Y-87345925D01*
X54807007Y-87280099D01*
X54900099Y-87187007D01*
X54965925Y-87072993D01*
X54982962Y-87009408D01*
X55615270Y-87641717D01*
X55615270Y-87641716D01*
X55654622Y-87587554D01*
X55751095Y-87398217D01*
X55816757Y-87196130D01*
X55816757Y-87196127D01*
X55850000Y-86986246D01*
X55850000Y-86773753D01*
X55816757Y-86563872D01*
X55816757Y-86563869D01*
X55751095Y-86361782D01*
X55654624Y-86172449D01*
X55615270Y-86118282D01*
X55615269Y-86118282D01*
X54982962Y-86750590D01*
X54965925Y-86687007D01*
X54900099Y-86572993D01*
X54807007Y-86479901D01*
X54692993Y-86414075D01*
X54629409Y-86397037D01*
X55261716Y-85764728D01*
X55207550Y-85725375D01*
X55018216Y-85628904D01*
X54842026Y-85571656D01*
X54784350Y-85532218D01*
X54757152Y-85467860D01*
X54769067Y-85399013D01*
X54816311Y-85347538D01*
X54832882Y-85339168D01*
X54997598Y-85270941D01*
X55169655Y-85155977D01*
X55315977Y-85009655D01*
X55430941Y-84837598D01*
X55510130Y-84646420D01*
X55519653Y-84598543D01*
X57999499Y-84598543D01*
X58037947Y-84791829D01*
X58037950Y-84791839D01*
X58113364Y-84973907D01*
X58113371Y-84973920D01*
X58222860Y-85137781D01*
X58222863Y-85137785D01*
X58362214Y-85277136D01*
X58362218Y-85277139D01*
X58526079Y-85386628D01*
X58526092Y-85386635D01*
X58708160Y-85462049D01*
X58708165Y-85462051D01*
X58708169Y-85462051D01*
X58708170Y-85462052D01*
X58901456Y-85500500D01*
X58901459Y-85500500D01*
X59098543Y-85500500D01*
X59232196Y-85473914D01*
X59291835Y-85462051D01*
X59473914Y-85386632D01*
X59637782Y-85277139D01*
X59777139Y-85137782D01*
X59803358Y-85098543D01*
X61999499Y-85098543D01*
X62037947Y-85291829D01*
X62037950Y-85291839D01*
X62113364Y-85473907D01*
X62113371Y-85473920D01*
X62222860Y-85637781D01*
X62222863Y-85637785D01*
X62362214Y-85777136D01*
X62362218Y-85777139D01*
X62526079Y-85886628D01*
X62526092Y-85886635D01*
X62684749Y-85952352D01*
X62708165Y-85962051D01*
X62708169Y-85962051D01*
X62708170Y-85962052D01*
X62901456Y-86000500D01*
X62901459Y-86000500D01*
X63098543Y-86000500D01*
X63254448Y-85969488D01*
X63324040Y-85975715D01*
X63366321Y-86003424D01*
X66223386Y-88860489D01*
X66223387Y-88860490D01*
X66223389Y-88860491D01*
X66282693Y-88894729D01*
X66282696Y-88894732D01*
X66316937Y-88914500D01*
X66326114Y-88919799D01*
X66440691Y-88950500D01*
X72031444Y-88950500D01*
X72098483Y-88970185D01*
X72134546Y-89005610D01*
X72222857Y-89137777D01*
X72222863Y-89137785D01*
X72362214Y-89277136D01*
X72362218Y-89277139D01*
X72526079Y-89386628D01*
X72526092Y-89386635D01*
X72708160Y-89462049D01*
X72708165Y-89462051D01*
X72708169Y-89462051D01*
X72708170Y-89462052D01*
X72901456Y-89500500D01*
X72901459Y-89500500D01*
X73098543Y-89500500D01*
X73228582Y-89474632D01*
X73291835Y-89462051D01*
X73473914Y-89386632D01*
X73637782Y-89277139D01*
X73777139Y-89137782D01*
X73886632Y-88973914D01*
X73962051Y-88791835D01*
X73983880Y-88682093D01*
X74000500Y-88598543D01*
X74000500Y-88401456D01*
X73981259Y-88304728D01*
X73969487Y-88245548D01*
X73975714Y-88175960D01*
X74003420Y-88133681D01*
X74599284Y-87537819D01*
X74660607Y-87504334D01*
X74686965Y-87501500D01*
X78482635Y-87501500D01*
X78549674Y-87521185D01*
X78570316Y-87537819D01*
X80797117Y-89764620D01*
X80830602Y-89825943D01*
X80825618Y-89895635D01*
X80783746Y-89951568D01*
X80765841Y-89961764D01*
X80765954Y-89961959D01*
X80621990Y-90045075D01*
X80621982Y-90045081D01*
X80510181Y-90156882D01*
X80510175Y-90156890D01*
X80431126Y-90293809D01*
X80431123Y-90293816D01*
X80390200Y-90446543D01*
X80390200Y-90612784D01*
X80387031Y-90612784D01*
X80378556Y-90667085D01*
X80354070Y-90701902D01*
X74935937Y-96120035D01*
X74935935Y-96120038D01*
X74893080Y-96194263D01*
X74879551Y-96244759D01*
X74870900Y-96277045D01*
X74870900Y-99829252D01*
X74893082Y-99912040D01*
X74914508Y-99949150D01*
X74935935Y-99986262D01*
X74935937Y-99986264D01*
X75412568Y-100462895D01*
X75446053Y-100524218D01*
X75441069Y-100593910D01*
X75439448Y-100598028D01*
X75399871Y-100693575D01*
X75399868Y-100693587D01*
X75359500Y-100896530D01*
X75359500Y-101103469D01*
X75399868Y-101306412D01*
X75399870Y-101306420D01*
X75407897Y-101325800D01*
X75479059Y-101497598D01*
X75480665Y-101500001D01*
X75594024Y-101669657D01*
X75740342Y-101815975D01*
X75912405Y-101930943D01*
X76015043Y-101973456D01*
X76077108Y-101999164D01*
X76131511Y-102043005D01*
X76153576Y-102109299D01*
X76136297Y-102176998D01*
X76085160Y-102224609D01*
X76067974Y-102231656D01*
X75891781Y-102288905D01*
X75702439Y-102385380D01*
X75648282Y-102424727D01*
X75648282Y-102424728D01*
X76280591Y-103057037D01*
X76217007Y-103074075D01*
X76102993Y-103139901D01*
X76009901Y-103232993D01*
X75944075Y-103347007D01*
X75927037Y-103410591D01*
X75294728Y-102778282D01*
X75294727Y-102778282D01*
X75255380Y-102832439D01*
X75158904Y-103021782D01*
X75093242Y-103223869D01*
X75093242Y-103223872D01*
X75060000Y-103433753D01*
X75060000Y-103646246D01*
X75093242Y-103856127D01*
X75093242Y-103856130D01*
X75158904Y-104058217D01*
X75255375Y-104247550D01*
X75294728Y-104301716D01*
X75927037Y-103669408D01*
X75944075Y-103732993D01*
X76009901Y-103847007D01*
X76102993Y-103940099D01*
X76217007Y-104005925D01*
X76280590Y-104022962D01*
X75648282Y-104655269D01*
X75648282Y-104655270D01*
X75702449Y-104694624D01*
X75891782Y-104791095D01*
X76093870Y-104856757D01*
X76303754Y-104890000D01*
X76516246Y-104890000D01*
X76726127Y-104856757D01*
X76726130Y-104856757D01*
X76928217Y-104791095D01*
X77117554Y-104694622D01*
X77171716Y-104655270D01*
X77171717Y-104655270D01*
X76539408Y-104022962D01*
X76602993Y-104005925D01*
X76717007Y-103940099D01*
X76810099Y-103847007D01*
X76875925Y-103732993D01*
X76892962Y-103669408D01*
X77525270Y-104301717D01*
X77525270Y-104301716D01*
X77564622Y-104247554D01*
X77661095Y-104058217D01*
X77726757Y-103856130D01*
X77726757Y-103856127D01*
X77760000Y-103646246D01*
X77760000Y-103433753D01*
X77726757Y-103223872D01*
X77726757Y-103223869D01*
X77661095Y-103021782D01*
X77564624Y-102832449D01*
X77525270Y-102778282D01*
X77525269Y-102778282D01*
X76892962Y-103410590D01*
X76875925Y-103347007D01*
X76810099Y-103232993D01*
X76717007Y-103139901D01*
X76602993Y-103074075D01*
X76539409Y-103057037D01*
X77171716Y-102424728D01*
X77117550Y-102385375D01*
X76928216Y-102288904D01*
X76752026Y-102231656D01*
X76694350Y-102192218D01*
X76667152Y-102127860D01*
X76679067Y-102059013D01*
X76726311Y-102007538D01*
X76742882Y-101999168D01*
X76907598Y-101930941D01*
X77079655Y-101815977D01*
X77225977Y-101669655D01*
X77340941Y-101497598D01*
X77420130Y-101306420D01*
X77460500Y-101103465D01*
X77460500Y-100896535D01*
X77420130Y-100693580D01*
X77340941Y-100502402D01*
X77225977Y-100330345D01*
X77225975Y-100330342D01*
X77079657Y-100184024D01*
X76936842Y-100088599D01*
X76907598Y-100069059D01*
X76888516Y-100061155D01*
X76716420Y-99989870D01*
X76716412Y-99989868D01*
X76513469Y-99949500D01*
X76513465Y-99949500D01*
X76306535Y-99949500D01*
X76306530Y-99949500D01*
X76103587Y-99989868D01*
X76103575Y-99989871D01*
X76008028Y-100029448D01*
X75938559Y-100036917D01*
X75876080Y-100005641D01*
X75872895Y-100002568D01*
X75592508Y-99722181D01*
X75559023Y-99660858D01*
X75564007Y-99591166D01*
X75605879Y-99535233D01*
X75671343Y-99510816D01*
X75680189Y-99510500D01*
X77279750Y-99510500D01*
X77279751Y-99510499D01*
X77298103Y-99506849D01*
X77338229Y-99498868D01*
X77338229Y-99498867D01*
X77338231Y-99498867D01*
X77404552Y-99454552D01*
X77448867Y-99388231D01*
X77448867Y-99388229D01*
X77448868Y-99388229D01*
X77460499Y-99329752D01*
X77460500Y-99329750D01*
X77460500Y-99034500D01*
X77480185Y-98967461D01*
X77532989Y-98921706D01*
X77584500Y-98910500D01*
X79825500Y-98910500D01*
X79892539Y-98930185D01*
X79938294Y-98982989D01*
X79949500Y-99034500D01*
X79949500Y-99329752D01*
X79961131Y-99388229D01*
X79961132Y-99388230D01*
X80005447Y-99454552D01*
X80071769Y-99498867D01*
X80071770Y-99498868D01*
X80130247Y-99510499D01*
X80130250Y-99510500D01*
X81729811Y-99510500D01*
X81796850Y-99530185D01*
X81842605Y-99582989D01*
X81852549Y-99652147D01*
X81823524Y-99715703D01*
X81817509Y-99722162D01*
X81590172Y-99949500D01*
X81537103Y-100002569D01*
X81475780Y-100036053D01*
X81406088Y-100031069D01*
X81401981Y-100029452D01*
X81306420Y-99989870D01*
X81306412Y-99989868D01*
X81103469Y-99949500D01*
X81103465Y-99949500D01*
X80896535Y-99949500D01*
X80896530Y-99949500D01*
X80693587Y-99989868D01*
X80693579Y-99989870D01*
X80502403Y-100069058D01*
X80330342Y-100184024D01*
X80184024Y-100330342D01*
X80069058Y-100502403D01*
X79989870Y-100693579D01*
X79989868Y-100693587D01*
X79949500Y-100896530D01*
X79949500Y-101103469D01*
X79989868Y-101306412D01*
X79989870Y-101306420D01*
X79997897Y-101325800D01*
X80069059Y-101497598D01*
X80070665Y-101500001D01*
X80184024Y-101669657D01*
X80330342Y-101815975D01*
X80502405Y-101930943D01*
X80605043Y-101973456D01*
X80667108Y-101999164D01*
X80721511Y-102043005D01*
X80743576Y-102109299D01*
X80726297Y-102176998D01*
X80675160Y-102224609D01*
X80657974Y-102231656D01*
X80481781Y-102288905D01*
X80292439Y-102385380D01*
X80238282Y-102424727D01*
X80238282Y-102424728D01*
X80870591Y-103057037D01*
X80807007Y-103074075D01*
X80692993Y-103139901D01*
X80599901Y-103232993D01*
X80534075Y-103347007D01*
X80517037Y-103410591D01*
X79884728Y-102778282D01*
X79884727Y-102778282D01*
X79845380Y-102832439D01*
X79748904Y-103021782D01*
X79683242Y-103223869D01*
X79683242Y-103223872D01*
X79650000Y-103433753D01*
X79650000Y-103646246D01*
X79683242Y-103856127D01*
X79683242Y-103856130D01*
X79748904Y-104058217D01*
X79845375Y-104247550D01*
X79884728Y-104301716D01*
X80517037Y-103669408D01*
X80534075Y-103732993D01*
X80599901Y-103847007D01*
X80692993Y-103940099D01*
X80807007Y-104005925D01*
X80870590Y-104022962D01*
X80238282Y-104655269D01*
X80238282Y-104655270D01*
X80292449Y-104694624D01*
X80481782Y-104791095D01*
X80683870Y-104856757D01*
X80893754Y-104890000D01*
X81106246Y-104890000D01*
X81316127Y-104856757D01*
X81316130Y-104856757D01*
X81518217Y-104791095D01*
X81707554Y-104694622D01*
X81761716Y-104655270D01*
X81761717Y-104655270D01*
X81129408Y-104022962D01*
X81192993Y-104005925D01*
X81307007Y-103940099D01*
X81400099Y-103847007D01*
X81465925Y-103732993D01*
X81482962Y-103669408D01*
X82115270Y-104301717D01*
X82115270Y-104301716D01*
X82154622Y-104247554D01*
X82251095Y-104058217D01*
X82316757Y-103856130D01*
X82316757Y-103856127D01*
X82350000Y-103646246D01*
X82350000Y-103433753D01*
X82316757Y-103223872D01*
X82316757Y-103223869D01*
X82251095Y-103021782D01*
X82154624Y-102832449D01*
X82115270Y-102778282D01*
X82115269Y-102778282D01*
X81482962Y-103410590D01*
X81465925Y-103347007D01*
X81400099Y-103232993D01*
X81307007Y-103139901D01*
X81192993Y-103074075D01*
X81129409Y-103057037D01*
X81761716Y-102424728D01*
X81707550Y-102385375D01*
X81518216Y-102288904D01*
X81342026Y-102231656D01*
X81284350Y-102192218D01*
X81257152Y-102127860D01*
X81269067Y-102059013D01*
X81316311Y-102007538D01*
X81332882Y-101999168D01*
X81497598Y-101930941D01*
X81669655Y-101815977D01*
X81815977Y-101669655D01*
X81930941Y-101497598D01*
X82010130Y-101306420D01*
X82050500Y-101103465D01*
X82050500Y-100896535D01*
X82010130Y-100693580D01*
X81970550Y-100598028D01*
X81963082Y-100528560D01*
X81994357Y-100466080D01*
X81997431Y-100462895D01*
X82228317Y-100232009D01*
X82572165Y-99888162D01*
X82615018Y-99813939D01*
X82637200Y-99731153D01*
X82637200Y-99645447D01*
X82637200Y-93217330D01*
X82656885Y-93150291D01*
X82675722Y-93129820D01*
X82674669Y-93128767D01*
X82724275Y-93079161D01*
X82792220Y-93011216D01*
X82871277Y-92874284D01*
X82912200Y-92721557D01*
X82912200Y-92563443D01*
X82871277Y-92410716D01*
X82871273Y-92410709D01*
X82792224Y-92273790D01*
X82792218Y-92273782D01*
X82680417Y-92161981D01*
X82680409Y-92161975D01*
X82543490Y-92082926D01*
X82543486Y-92082924D01*
X82543484Y-92082923D01*
X82390757Y-92042000D01*
X82232643Y-92042000D01*
X82079916Y-92082923D01*
X82079909Y-92082926D01*
X81942990Y-92161975D01*
X81942982Y-92161981D01*
X81831181Y-92273782D01*
X81831175Y-92273790D01*
X81752126Y-92410709D01*
X81752123Y-92410716D01*
X81711200Y-92563443D01*
X81711200Y-92721556D01*
X81752123Y-92874283D01*
X81752126Y-92874290D01*
X81831175Y-93011209D01*
X81831181Y-93011217D01*
X81948731Y-93128767D01*
X81946485Y-93131012D01*
X81978879Y-93175355D01*
X81986200Y-93217330D01*
X81986200Y-97285500D01*
X81966515Y-97352539D01*
X81913711Y-97398294D01*
X81862200Y-97409500D01*
X80130247Y-97409500D01*
X80071770Y-97421131D01*
X80071769Y-97421132D01*
X80005447Y-97465447D01*
X79961132Y-97531769D01*
X79961131Y-97531770D01*
X79949500Y-97590247D01*
X79949500Y-97885500D01*
X79929815Y-97952539D01*
X79877011Y-97998294D01*
X79825500Y-98009500D01*
X77584500Y-98009500D01*
X77517461Y-97989815D01*
X77471706Y-97937011D01*
X77460500Y-97885500D01*
X77460500Y-97590249D01*
X77460499Y-97590247D01*
X77448868Y-97531770D01*
X77448867Y-97531769D01*
X77404552Y-97465447D01*
X77338230Y-97421132D01*
X77338229Y-97421131D01*
X77279752Y-97409500D01*
X77279748Y-97409500D01*
X75645900Y-97409500D01*
X75578861Y-97389815D01*
X75533106Y-97337011D01*
X75521900Y-97285500D01*
X75521900Y-96506087D01*
X75541585Y-96439048D01*
X75558214Y-96418411D01*
X80814397Y-91162227D01*
X80875718Y-91128744D01*
X80903515Y-91127590D01*
X80903515Y-91126100D01*
X81069755Y-91126100D01*
X81069757Y-91126100D01*
X81222484Y-91085177D01*
X81359416Y-91006120D01*
X81471220Y-90894316D01*
X81476230Y-90885637D01*
X81554341Y-90750346D01*
X81555981Y-90751293D01*
X81593267Y-90705015D01*
X81659558Y-90682943D01*
X81727260Y-90700214D01*
X81751679Y-90719182D01*
X91758199Y-100725702D01*
X91791684Y-100787025D01*
X91793456Y-100797193D01*
X91794398Y-100804350D01*
X91794400Y-100804356D01*
X91794400Y-100804357D01*
X91825689Y-100921131D01*
X91835323Y-100957083D01*
X91835326Y-100957090D01*
X91914375Y-101094009D01*
X91914379Y-101094014D01*
X91914380Y-101094016D01*
X92026184Y-101205820D01*
X92026186Y-101205821D01*
X92026190Y-101205824D01*
X92110317Y-101254394D01*
X92163116Y-101284877D01*
X92315843Y-101325800D01*
X92315845Y-101325800D01*
X92473955Y-101325800D01*
X92473957Y-101325800D01*
X92626684Y-101284877D01*
X92763616Y-101205820D01*
X92875420Y-101094016D01*
X92877596Y-101090247D01*
X122449500Y-101090247D01*
X122449500Y-102829752D01*
X122461131Y-102888229D01*
X122461132Y-102888230D01*
X122505447Y-102954552D01*
X122571769Y-102998867D01*
X122571770Y-102998868D01*
X122630247Y-103010499D01*
X122630250Y-103010500D01*
X122630252Y-103010500D01*
X124369750Y-103010500D01*
X124369751Y-103010499D01*
X124384568Y-103007552D01*
X124428229Y-102998868D01*
X124428229Y-102998867D01*
X124428231Y-102998867D01*
X124494552Y-102954552D01*
X124538867Y-102888231D01*
X124538867Y-102888229D01*
X124538868Y-102888229D01*
X124547552Y-102844568D01*
X124550500Y-102829748D01*
X124550500Y-101090252D01*
X124550500Y-101090249D01*
X124550499Y-101090247D01*
X124538868Y-101031770D01*
X124538867Y-101031769D01*
X124494552Y-100965447D01*
X124428230Y-100921132D01*
X124428229Y-100921131D01*
X124369752Y-100909500D01*
X124369748Y-100909500D01*
X122630252Y-100909500D01*
X122630247Y-100909500D01*
X122571770Y-100921131D01*
X122571769Y-100921132D01*
X122505447Y-100965447D01*
X122461132Y-101031769D01*
X122461131Y-101031770D01*
X122449500Y-101090247D01*
X92877596Y-101090247D01*
X92896462Y-101057568D01*
X92916906Y-101022160D01*
X92929141Y-101000968D01*
X92954477Y-100957084D01*
X92995400Y-100804357D01*
X92995400Y-100646243D01*
X92954477Y-100493516D01*
X92936798Y-100462895D01*
X92875424Y-100356590D01*
X92875418Y-100356582D01*
X92763617Y-100244781D01*
X92763609Y-100244775D01*
X92626690Y-100165726D01*
X92626686Y-100165724D01*
X92626684Y-100165723D01*
X92473957Y-100124800D01*
X92473950Y-100124798D01*
X92466793Y-100123856D01*
X92402897Y-100095587D01*
X92395302Y-100088599D01*
X78997216Y-86690513D01*
X78997214Y-86690511D01*
X78945850Y-86660856D01*
X78894488Y-86631201D01*
X78882380Y-86627957D01*
X78870273Y-86624713D01*
X78870270Y-86624712D01*
X78832078Y-86614478D01*
X78779909Y-86600500D01*
X78779908Y-86600500D01*
X75023500Y-86600500D01*
X74956461Y-86580815D01*
X74910706Y-86528011D01*
X74899500Y-86476500D01*
X74899500Y-82229693D01*
X74899500Y-82229691D01*
X74868799Y-82115114D01*
X74868797Y-82115110D01*
X74843731Y-82071694D01*
X74809493Y-82012392D01*
X74809487Y-82012384D01*
X74163424Y-81366321D01*
X74129939Y-81304998D01*
X74129488Y-81254448D01*
X74160500Y-81098543D01*
X74160500Y-80901456D01*
X74122052Y-80708170D01*
X74122051Y-80708169D01*
X74122051Y-80708165D01*
X74096043Y-80645375D01*
X74046635Y-80526092D01*
X74046628Y-80526079D01*
X73937139Y-80362218D01*
X73937136Y-80362214D01*
X73797785Y-80222863D01*
X73797781Y-80222860D01*
X73633920Y-80113371D01*
X73633907Y-80113364D01*
X73451839Y-80037950D01*
X73451829Y-80037947D01*
X73258543Y-79999500D01*
X73258541Y-79999500D01*
X73061459Y-79999500D01*
X73061457Y-79999500D01*
X72868170Y-80037947D01*
X72868160Y-80037950D01*
X72686092Y-80113364D01*
X72686079Y-80113371D01*
X72522218Y-80222860D01*
X72522214Y-80222863D01*
X72382863Y-80362214D01*
X72382860Y-80362218D01*
X72273371Y-80526079D01*
X72273364Y-80526092D01*
X72197950Y-80708160D01*
X72197947Y-80708170D01*
X72159500Y-80901456D01*
X72159500Y-80901459D01*
X72159500Y-81098541D01*
X72159500Y-81098543D01*
X72159499Y-81098543D01*
X72197947Y-81291829D01*
X72197950Y-81291839D01*
X72273364Y-81473907D01*
X72273371Y-81473920D01*
X72382860Y-81637781D01*
X72382863Y-81637785D01*
X72522214Y-81777136D01*
X72522218Y-81777139D01*
X72686079Y-81886628D01*
X72686092Y-81886635D01*
X72844749Y-81952352D01*
X72868165Y-81962051D01*
X72868169Y-81962051D01*
X72868170Y-81962052D01*
X73061456Y-82000500D01*
X73061459Y-82000500D01*
X73258543Y-82000500D01*
X73414448Y-81969488D01*
X73484040Y-81975715D01*
X73526321Y-82003424D01*
X73962181Y-82439284D01*
X73995666Y-82500607D01*
X73998500Y-82526965D01*
X73998500Y-84125409D01*
X73978815Y-84192448D01*
X73926011Y-84238203D01*
X73856853Y-84248147D01*
X73803821Y-84224785D01*
X73802847Y-84226245D01*
X73633920Y-84113371D01*
X73633907Y-84113364D01*
X73451839Y-84037950D01*
X73451829Y-84037947D01*
X73258543Y-83999500D01*
X73258541Y-83999500D01*
X73061459Y-83999500D01*
X73061457Y-83999500D01*
X72868170Y-84037947D01*
X72868160Y-84037950D01*
X72686092Y-84113364D01*
X72686079Y-84113371D01*
X72522218Y-84222860D01*
X72522214Y-84222863D01*
X72382863Y-84362214D01*
X72382860Y-84362218D01*
X72273371Y-84526079D01*
X72273364Y-84526092D01*
X72197950Y-84708160D01*
X72197947Y-84708170D01*
X72159500Y-84901456D01*
X72159500Y-84901459D01*
X72159500Y-85098541D01*
X72159500Y-85098543D01*
X72159499Y-85098543D01*
X72197947Y-85291829D01*
X72197950Y-85291839D01*
X72273364Y-85473907D01*
X72273371Y-85473920D01*
X72382860Y-85637781D01*
X72382863Y-85637785D01*
X72522214Y-85777136D01*
X72522218Y-85777139D01*
X72686079Y-85886628D01*
X72686092Y-85886635D01*
X72844749Y-85952352D01*
X72868165Y-85962051D01*
X72868169Y-85962051D01*
X72868170Y-85962052D01*
X73061456Y-86000500D01*
X73061459Y-86000500D01*
X73258543Y-86000500D01*
X73414447Y-85969488D01*
X73451835Y-85962051D01*
X73633914Y-85886632D01*
X73797782Y-85777139D01*
X73797781Y-85777139D01*
X73802847Y-85773755D01*
X73803890Y-85775317D01*
X73860138Y-85751425D01*
X73929006Y-85763212D01*
X73980569Y-85810361D01*
X73998500Y-85874590D01*
X73998500Y-86813034D01*
X73978815Y-86880073D01*
X73962181Y-86900715D01*
X73366320Y-87496575D01*
X73304997Y-87530060D01*
X73254448Y-87530511D01*
X73098545Y-87499500D01*
X73098541Y-87499500D01*
X72901459Y-87499500D01*
X72901457Y-87499500D01*
X72708170Y-87537947D01*
X72708160Y-87537950D01*
X72526092Y-87613364D01*
X72526079Y-87613371D01*
X72362218Y-87722860D01*
X72362214Y-87722863D01*
X72222863Y-87862214D01*
X72222857Y-87862222D01*
X72134546Y-87994390D01*
X72080934Y-88039196D01*
X72031444Y-88049500D01*
X66737965Y-88049500D01*
X66670926Y-88029815D01*
X66650284Y-88013181D01*
X64003424Y-85366321D01*
X63969939Y-85304998D01*
X63969488Y-85254448D01*
X64000500Y-85098543D01*
X64000500Y-84901456D01*
X63962052Y-84708170D01*
X63962051Y-84708169D01*
X63962051Y-84708165D01*
X63936472Y-84646412D01*
X63886635Y-84526092D01*
X63886628Y-84526079D01*
X63777139Y-84362218D01*
X63777136Y-84362214D01*
X63637785Y-84222863D01*
X63637781Y-84222860D01*
X63473920Y-84113371D01*
X63473907Y-84113364D01*
X63291839Y-84037950D01*
X63291829Y-84037947D01*
X63098543Y-83999500D01*
X63098541Y-83999500D01*
X62901459Y-83999500D01*
X62901457Y-83999500D01*
X62708170Y-84037947D01*
X62708160Y-84037950D01*
X62526092Y-84113364D01*
X62526079Y-84113371D01*
X62362218Y-84222860D01*
X62362214Y-84222863D01*
X62222863Y-84362214D01*
X62222860Y-84362218D01*
X62113371Y-84526079D01*
X62113364Y-84526092D01*
X62037950Y-84708160D01*
X62037947Y-84708170D01*
X61999500Y-84901456D01*
X61999500Y-84901459D01*
X61999500Y-85098541D01*
X61999500Y-85098543D01*
X61999499Y-85098543D01*
X59803358Y-85098543D01*
X59886632Y-84973914D01*
X59962051Y-84791835D01*
X60000500Y-84598541D01*
X60000500Y-84401459D01*
X60000500Y-84401456D01*
X59962052Y-84208170D01*
X59962051Y-84208169D01*
X59962051Y-84208165D01*
X59927773Y-84125409D01*
X59886635Y-84026092D01*
X59886628Y-84026079D01*
X59777139Y-83862218D01*
X59777136Y-83862214D01*
X59637785Y-83722863D01*
X59637781Y-83722860D01*
X59473920Y-83613371D01*
X59473907Y-83613364D01*
X59291839Y-83537950D01*
X59291829Y-83537947D01*
X59098543Y-83499500D01*
X59098541Y-83499500D01*
X58901459Y-83499500D01*
X58901457Y-83499500D01*
X58708170Y-83537947D01*
X58708160Y-83537950D01*
X58526092Y-83613364D01*
X58526079Y-83613371D01*
X58362218Y-83722860D01*
X58362214Y-83722863D01*
X58222863Y-83862214D01*
X58222860Y-83862218D01*
X58113371Y-84026079D01*
X58113364Y-84026092D01*
X58037950Y-84208160D01*
X58037947Y-84208170D01*
X57999500Y-84401456D01*
X57999500Y-84401459D01*
X57999500Y-84598541D01*
X57999500Y-84598543D01*
X57999499Y-84598543D01*
X55519653Y-84598543D01*
X55550500Y-84443465D01*
X55550500Y-84236535D01*
X55510130Y-84033580D01*
X55430941Y-83842402D01*
X55315977Y-83670345D01*
X55315975Y-83670342D01*
X55169657Y-83524024D01*
X55083626Y-83466541D01*
X54997598Y-83409059D01*
X54997593Y-83409057D01*
X54935891Y-83383499D01*
X54832890Y-83340834D01*
X54778488Y-83296994D01*
X54756423Y-83230700D01*
X54773702Y-83163001D01*
X54824839Y-83115390D01*
X54842026Y-83108343D01*
X55018217Y-83051095D01*
X55207554Y-82954622D01*
X55261716Y-82915270D01*
X55261717Y-82915270D01*
X54629408Y-82282962D01*
X54692993Y-82265925D01*
X54807007Y-82200099D01*
X54900099Y-82107007D01*
X54965925Y-81992993D01*
X54982962Y-81929408D01*
X55615270Y-82561717D01*
X55615270Y-82561716D01*
X55654622Y-82507554D01*
X55751095Y-82318217D01*
X55816757Y-82116130D01*
X55816757Y-82116127D01*
X55850000Y-81906246D01*
X55850000Y-81693753D01*
X55816757Y-81483872D01*
X55816757Y-81483869D01*
X55751095Y-81281782D01*
X55657729Y-81098543D01*
X61999499Y-81098543D01*
X62037947Y-81291829D01*
X62037950Y-81291839D01*
X62113364Y-81473907D01*
X62113371Y-81473920D01*
X62222860Y-81637781D01*
X62222863Y-81637785D01*
X62362214Y-81777136D01*
X62362218Y-81777139D01*
X62526079Y-81886628D01*
X62526092Y-81886635D01*
X62684749Y-81952352D01*
X62708165Y-81962051D01*
X62708169Y-81962051D01*
X62708170Y-81962052D01*
X62901456Y-82000500D01*
X62901459Y-82000500D01*
X63098543Y-82000500D01*
X63254447Y-81969488D01*
X63291835Y-81962051D01*
X63473914Y-81886632D01*
X63637782Y-81777139D01*
X63777139Y-81637782D01*
X63886632Y-81473914D01*
X63962051Y-81291835D01*
X64000500Y-81098541D01*
X64000500Y-80901459D01*
X64000500Y-80901456D01*
X63962052Y-80708170D01*
X63962051Y-80708169D01*
X63962051Y-80708165D01*
X63936043Y-80645375D01*
X63886635Y-80526092D01*
X63886628Y-80526079D01*
X63777139Y-80362218D01*
X63777136Y-80362214D01*
X63637785Y-80222863D01*
X63637781Y-80222860D01*
X63473920Y-80113371D01*
X63473907Y-80113364D01*
X63291839Y-80037950D01*
X63291829Y-80037947D01*
X63098543Y-79999500D01*
X63098541Y-79999500D01*
X62901459Y-79999500D01*
X62901457Y-79999500D01*
X62708170Y-80037947D01*
X62708160Y-80037950D01*
X62526092Y-80113364D01*
X62526079Y-80113371D01*
X62362218Y-80222860D01*
X62362214Y-80222863D01*
X62222863Y-80362214D01*
X62222860Y-80362218D01*
X62113371Y-80526079D01*
X62113364Y-80526092D01*
X62037950Y-80708160D01*
X62037947Y-80708170D01*
X61999500Y-80901456D01*
X61999500Y-80901459D01*
X61999500Y-81098541D01*
X61999500Y-81098543D01*
X61999499Y-81098543D01*
X55657729Y-81098543D01*
X55654624Y-81092449D01*
X55615270Y-81038282D01*
X55615269Y-81038282D01*
X54982962Y-81670590D01*
X54965925Y-81607007D01*
X54900099Y-81492993D01*
X54807007Y-81399901D01*
X54692993Y-81334075D01*
X54629409Y-81317037D01*
X55138759Y-80807686D01*
X55261716Y-80684728D01*
X55207550Y-80645375D01*
X55018217Y-80548904D01*
X54816129Y-80483242D01*
X54606246Y-80450000D01*
X54393754Y-80450000D01*
X54183872Y-80483242D01*
X54183869Y-80483242D01*
X53981782Y-80548904D01*
X53792439Y-80645380D01*
X53738282Y-80684727D01*
X53738282Y-80684728D01*
X54370591Y-81317037D01*
X54307007Y-81334075D01*
X54192993Y-81399901D01*
X54099901Y-81492993D01*
X54034075Y-81607007D01*
X54017037Y-81670591D01*
X53384728Y-81038282D01*
X53384727Y-81038282D01*
X53345380Y-81092439D01*
X53248904Y-81281782D01*
X53183242Y-81483869D01*
X53183242Y-81483872D01*
X53150000Y-81693753D01*
X45000500Y-81693753D01*
X45000500Y-78750000D01*
X70000000Y-78750000D01*
X117711711Y-78750000D01*
X117778750Y-78769685D01*
X117824505Y-78822489D01*
X117834449Y-78891647D01*
X117805424Y-78955203D01*
X117799392Y-78961681D01*
X101897090Y-94863981D01*
X101835767Y-94897466D01*
X101766075Y-94892482D01*
X101747410Y-94883688D01*
X101618084Y-94809023D01*
X101465357Y-94768100D01*
X101307243Y-94768100D01*
X101154516Y-94809023D01*
X101154515Y-94809023D01*
X101130099Y-94823120D01*
X101062198Y-94839591D01*
X100996172Y-94816738D01*
X100952982Y-94761817D01*
X100944100Y-94715732D01*
X100944100Y-93390988D01*
X100963785Y-93323949D01*
X100980414Y-93303312D01*
X106079598Y-88204127D01*
X106140919Y-88170644D01*
X106168715Y-88169491D01*
X106168715Y-88168000D01*
X106334955Y-88168000D01*
X106334957Y-88168000D01*
X106487684Y-88127077D01*
X106624616Y-88048020D01*
X106736420Y-87936216D01*
X106815477Y-87799284D01*
X106856400Y-87646557D01*
X106856400Y-87488443D01*
X106815477Y-87335716D01*
X106783367Y-87280099D01*
X106736424Y-87198790D01*
X106736418Y-87198782D01*
X106624617Y-87086981D01*
X106624609Y-87086975D01*
X106487690Y-87007926D01*
X106487686Y-87007924D01*
X106487684Y-87007923D01*
X106334957Y-86967000D01*
X106176843Y-86967000D01*
X106024116Y-87007923D01*
X106024109Y-87007926D01*
X105887190Y-87086975D01*
X105887182Y-87086981D01*
X105775381Y-87198782D01*
X105775375Y-87198790D01*
X105696326Y-87335709D01*
X105696323Y-87335716D01*
X105655400Y-87488443D01*
X105655400Y-87654684D01*
X105652229Y-87654684D01*
X105643760Y-87708974D01*
X105619270Y-87743801D01*
X100358137Y-93004935D01*
X100358133Y-93004941D01*
X100315281Y-93079161D01*
X100315282Y-93079162D01*
X100293100Y-93161947D01*
X100293100Y-95925352D01*
X100315282Y-96008140D01*
X100336708Y-96045250D01*
X100358135Y-96082362D01*
X100358137Y-96082364D01*
X100469870Y-96194097D01*
X100503355Y-96255420D01*
X100504517Y-96283216D01*
X100506000Y-96283216D01*
X100506000Y-96291343D01*
X100506000Y-96449457D01*
X100529712Y-96537949D01*
X100546923Y-96602183D01*
X100546926Y-96602190D01*
X100625975Y-96739109D01*
X100625979Y-96739114D01*
X100625980Y-96739116D01*
X100737784Y-96850920D01*
X100737786Y-96850921D01*
X100737790Y-96850924D01*
X100868295Y-96926270D01*
X100874716Y-96929977D01*
X101027443Y-96970900D01*
X101027445Y-96970900D01*
X101185555Y-96970900D01*
X101185557Y-96970900D01*
X101338284Y-96929977D01*
X101475216Y-96850920D01*
X101587020Y-96739116D01*
X101666077Y-96602184D01*
X101707000Y-96449457D01*
X101707000Y-96291343D01*
X101666077Y-96138616D01*
X101624955Y-96067391D01*
X101608483Y-95999492D01*
X101631336Y-95933465D01*
X101670341Y-95898006D01*
X101755016Y-95849120D01*
X101866820Y-95737316D01*
X101866824Y-95737308D01*
X101871768Y-95730867D01*
X101873427Y-95732140D01*
X101915937Y-95691600D01*
X101940669Y-95682038D01*
X101978439Y-95671918D01*
X102052662Y-95629065D01*
X103810997Y-93870730D01*
X114199500Y-93870730D01*
X114199500Y-95229269D01*
X114202353Y-95259699D01*
X114202353Y-95259701D01*
X114240862Y-95369750D01*
X114247207Y-95387882D01*
X114327850Y-95497150D01*
X114437118Y-95577793D01*
X114463936Y-95587177D01*
X114565299Y-95622646D01*
X114595730Y-95625500D01*
X114595734Y-95625500D01*
X115404270Y-95625500D01*
X115424554Y-95623597D01*
X115434699Y-95622646D01*
X115492736Y-95602337D01*
X115562512Y-95598775D01*
X115621371Y-95631698D01*
X118009422Y-98019748D01*
X120394533Y-100404859D01*
X120394535Y-100404862D01*
X120455138Y-100465465D01*
X120492250Y-100486891D01*
X120501370Y-100492157D01*
X120501373Y-100492159D01*
X120529358Y-100508317D01*
X120529360Y-100508317D01*
X120529361Y-100508318D01*
X120612147Y-100530501D01*
X120612149Y-100530501D01*
X120705449Y-100530501D01*
X120705465Y-100530500D01*
X127050500Y-100530500D01*
X127117539Y-100550185D01*
X127163294Y-100602989D01*
X127174500Y-100654500D01*
X127174500Y-104969038D01*
X127154815Y-105036077D01*
X127102011Y-105081832D01*
X127097953Y-105083599D01*
X127026089Y-105113366D01*
X127026079Y-105113371D01*
X126862218Y-105222860D01*
X126862214Y-105222863D01*
X126722863Y-105362214D01*
X126722860Y-105362218D01*
X126613371Y-105526079D01*
X126613364Y-105526092D01*
X126537950Y-105708160D01*
X126537947Y-105708170D01*
X126499500Y-105901456D01*
X126499500Y-105901459D01*
X126499500Y-106098541D01*
X126499500Y-106098543D01*
X126499499Y-106098543D01*
X126537947Y-106291829D01*
X126537950Y-106291839D01*
X126613364Y-106473907D01*
X126613371Y-106473920D01*
X126722860Y-106637781D01*
X126722863Y-106637785D01*
X126862214Y-106777136D01*
X126862218Y-106777139D01*
X127026079Y-106886628D01*
X127026092Y-106886635D01*
X127185814Y-106952793D01*
X127208165Y-106962051D01*
X127208169Y-106962051D01*
X127208170Y-106962052D01*
X127401456Y-107000500D01*
X127401459Y-107000500D01*
X127598543Y-107000500D01*
X127670313Y-106986223D01*
X127734674Y-106973421D01*
X127804264Y-106979648D01*
X127859442Y-107022510D01*
X127882687Y-107088400D01*
X127866620Y-107156397D01*
X127840933Y-107187994D01*
X125535435Y-109223456D01*
X125472151Y-109253069D01*
X125453367Y-109254500D01*
X124585081Y-109254500D01*
X124518042Y-109234815D01*
X124472287Y-109182011D01*
X124470520Y-109177953D01*
X124430942Y-109082403D01*
X124315975Y-108910342D01*
X124169657Y-108764024D01*
X124083626Y-108706541D01*
X123997598Y-108649059D01*
X123997593Y-108649057D01*
X123935891Y-108623499D01*
X123832890Y-108580834D01*
X123778488Y-108536994D01*
X123756423Y-108470700D01*
X123773702Y-108403001D01*
X123824839Y-108355390D01*
X123842026Y-108348343D01*
X124018217Y-108291095D01*
X124207554Y-108194622D01*
X124261716Y-108155270D01*
X124261717Y-108155270D01*
X123629408Y-107522962D01*
X123692993Y-107505925D01*
X123807007Y-107440099D01*
X123900099Y-107347007D01*
X123965925Y-107232993D01*
X123982962Y-107169409D01*
X124615270Y-107801717D01*
X124615270Y-107801716D01*
X124654622Y-107747554D01*
X124751095Y-107558217D01*
X124816757Y-107356130D01*
X124816757Y-107356127D01*
X124850000Y-107146246D01*
X124850000Y-106933753D01*
X124816757Y-106723872D01*
X124816757Y-106723869D01*
X124751095Y-106521782D01*
X124654624Y-106332449D01*
X124615270Y-106278282D01*
X124615269Y-106278282D01*
X123982962Y-106910590D01*
X123965925Y-106847007D01*
X123900099Y-106732993D01*
X123807007Y-106639901D01*
X123692993Y-106574075D01*
X123629409Y-106557037D01*
X124261716Y-105924728D01*
X124207550Y-105885375D01*
X124018216Y-105788904D01*
X123842026Y-105731656D01*
X123784350Y-105692218D01*
X123757152Y-105627860D01*
X123769067Y-105559013D01*
X123816311Y-105507538D01*
X123832882Y-105499168D01*
X123997598Y-105430941D01*
X124169655Y-105315977D01*
X124315977Y-105169655D01*
X124430941Y-104997598D01*
X124510130Y-104806420D01*
X124550500Y-104603465D01*
X124550500Y-104396535D01*
X124510130Y-104193580D01*
X124430941Y-104002402D01*
X124315977Y-103830345D01*
X124315975Y-103830342D01*
X124169657Y-103684024D01*
X124052624Y-103605826D01*
X123997598Y-103569059D01*
X123927441Y-103539999D01*
X123806420Y-103489870D01*
X123806412Y-103489868D01*
X123603469Y-103449500D01*
X123603465Y-103449500D01*
X123396535Y-103449500D01*
X123396530Y-103449500D01*
X123193587Y-103489868D01*
X123193579Y-103489870D01*
X123002403Y-103569058D01*
X122830342Y-103684024D01*
X122684024Y-103830342D01*
X122569058Y-104002403D01*
X122489870Y-104193579D01*
X122489868Y-104193587D01*
X122449500Y-104396530D01*
X122449500Y-104603469D01*
X122489868Y-104806412D01*
X122489870Y-104806420D01*
X122553954Y-104961133D01*
X122569059Y-104997598D01*
X122605338Y-105051893D01*
X122684024Y-105169657D01*
X122830342Y-105315975D01*
X123002405Y-105430943D01*
X123105043Y-105473456D01*
X123167108Y-105499164D01*
X123221511Y-105543005D01*
X123243576Y-105609299D01*
X123226297Y-105676998D01*
X123175160Y-105724609D01*
X123157974Y-105731656D01*
X122981781Y-105788905D01*
X122792439Y-105885380D01*
X122738282Y-105924727D01*
X122738282Y-105924728D01*
X123370591Y-106557037D01*
X123307007Y-106574075D01*
X123192993Y-106639901D01*
X123099901Y-106732993D01*
X123034075Y-106847007D01*
X123017037Y-106910591D01*
X122384728Y-106278282D01*
X122384727Y-106278282D01*
X122345380Y-106332439D01*
X122248904Y-106521782D01*
X122183242Y-106723869D01*
X122183242Y-106723872D01*
X122150000Y-106933753D01*
X122150000Y-107146246D01*
X122183242Y-107356127D01*
X122183242Y-107356130D01*
X122248904Y-107558217D01*
X122345375Y-107747550D01*
X122384728Y-107801716D01*
X123017037Y-107169408D01*
X123034075Y-107232993D01*
X123099901Y-107347007D01*
X123192993Y-107440099D01*
X123307007Y-107505925D01*
X123370590Y-107522962D01*
X122738282Y-108155269D01*
X122738282Y-108155270D01*
X122792449Y-108194624D01*
X122981782Y-108291095D01*
X123157973Y-108348343D01*
X123215648Y-108387780D01*
X123242847Y-108452139D01*
X123230932Y-108520985D01*
X123183688Y-108572461D01*
X123167108Y-108580835D01*
X123002403Y-108649057D01*
X122830342Y-108764024D01*
X122684024Y-108910342D01*
X122569058Y-109082403D01*
X122489870Y-109273579D01*
X122489868Y-109273587D01*
X122449500Y-109476530D01*
X122449500Y-109683469D01*
X122489868Y-109886412D01*
X122489870Y-109886420D01*
X122569058Y-110077596D01*
X122684024Y-110249657D01*
X122830342Y-110395975D01*
X122830345Y-110395977D01*
X123002402Y-110510941D01*
X123193580Y-110590130D01*
X123396530Y-110630499D01*
X123396534Y-110630500D01*
X123396535Y-110630500D01*
X123603466Y-110630500D01*
X123603467Y-110630499D01*
X123806420Y-110590130D01*
X123997598Y-110510941D01*
X124169655Y-110395977D01*
X124315977Y-110249655D01*
X124430941Y-110077598D01*
X124470520Y-109982047D01*
X124514361Y-109927644D01*
X124580655Y-109905579D01*
X124585081Y-109905500D01*
X125613279Y-109905500D01*
X125645961Y-109907533D01*
X125656007Y-109905500D01*
X125666253Y-109905500D01*
X125697875Y-109897026D01*
X125729964Y-109890533D01*
X125739139Y-109885970D01*
X125749038Y-109883318D01*
X125777392Y-109866947D01*
X125806705Y-109852371D01*
X125814386Y-109845589D01*
X125823262Y-109840465D01*
X125843700Y-109820025D01*
X125849279Y-109814781D01*
X130286045Y-105897682D01*
X131200000Y-105897682D01*
X131200000Y-106102317D01*
X131232009Y-106304417D01*
X131295244Y-106499031D01*
X131388141Y-106681350D01*
X131388147Y-106681359D01*
X131420523Y-106725921D01*
X131420524Y-106725922D01*
X132100000Y-106046446D01*
X132100000Y-106052661D01*
X132127259Y-106154394D01*
X132179920Y-106245606D01*
X132254394Y-106320080D01*
X132345606Y-106372741D01*
X132447339Y-106400000D01*
X132453553Y-106400000D01*
X131774076Y-107079474D01*
X131818650Y-107111859D01*
X132000968Y-107204755D01*
X132195582Y-107267990D01*
X132397683Y-107300000D01*
X132602317Y-107300000D01*
X132804417Y-107267990D01*
X132999031Y-107204755D01*
X133181349Y-107111859D01*
X133225921Y-107079474D01*
X132546447Y-106400000D01*
X132552661Y-106400000D01*
X132654394Y-106372741D01*
X132745606Y-106320080D01*
X132820080Y-106245606D01*
X132872741Y-106154394D01*
X132900000Y-106052661D01*
X132900000Y-106046447D01*
X133579474Y-106725921D01*
X133611859Y-106681349D01*
X133704755Y-106499031D01*
X133767990Y-106304417D01*
X133800000Y-106102317D01*
X133800000Y-105897682D01*
X133767990Y-105695582D01*
X133704755Y-105500968D01*
X133678342Y-105449130D01*
X133651133Y-105395730D01*
X141999500Y-105395730D01*
X141999500Y-106604269D01*
X142002353Y-106634699D01*
X142002353Y-106634701D01*
X142036748Y-106732993D01*
X142047207Y-106762882D01*
X142127850Y-106872150D01*
X142237118Y-106952793D01*
X142263576Y-106962051D01*
X142365299Y-106997646D01*
X142395730Y-107000500D01*
X142395734Y-107000500D01*
X143604270Y-107000500D01*
X143634699Y-106997646D01*
X143634701Y-106997646D01*
X143703930Y-106973421D01*
X143762882Y-106952793D01*
X143872150Y-106872150D01*
X143952793Y-106762882D01*
X143995826Y-106639901D01*
X143997646Y-106634701D01*
X143997646Y-106634699D01*
X144000500Y-106604269D01*
X144000500Y-106374808D01*
X144020185Y-106307769D01*
X144072989Y-106262014D01*
X144142147Y-106252070D01*
X144205703Y-106281095D01*
X144242431Y-106336489D01*
X144295244Y-106499031D01*
X144388141Y-106681350D01*
X144388147Y-106681359D01*
X144420523Y-106725921D01*
X144420524Y-106725922D01*
X145100000Y-106046446D01*
X145100000Y-106052661D01*
X145127259Y-106154394D01*
X145179920Y-106245606D01*
X145254394Y-106320080D01*
X145345606Y-106372741D01*
X145447339Y-106400000D01*
X145453553Y-106400000D01*
X144774076Y-107079474D01*
X144818650Y-107111859D01*
X145000968Y-107204755D01*
X145195582Y-107267990D01*
X145397683Y-107300000D01*
X145602317Y-107300000D01*
X145804417Y-107267990D01*
X145999031Y-107204755D01*
X146181349Y-107111859D01*
X146225921Y-107079474D01*
X145546447Y-106400000D01*
X145552661Y-106400000D01*
X145654394Y-106372741D01*
X145745606Y-106320080D01*
X145820080Y-106245606D01*
X145872741Y-106154394D01*
X145900000Y-106052661D01*
X145900000Y-106046448D01*
X146579474Y-106725922D01*
X146579474Y-106725921D01*
X146611859Y-106681349D01*
X146704755Y-106499031D01*
X146767990Y-106304417D01*
X146800000Y-106102317D01*
X146800000Y-105897682D01*
X146767990Y-105695582D01*
X146704755Y-105500968D01*
X146611859Y-105318650D01*
X146579474Y-105274077D01*
X146579474Y-105274076D01*
X145900000Y-105953551D01*
X145900000Y-105947339D01*
X145872741Y-105845606D01*
X145820080Y-105754394D01*
X145745606Y-105679920D01*
X145654394Y-105627259D01*
X145552661Y-105600000D01*
X145546446Y-105600000D01*
X146225922Y-104920524D01*
X146225921Y-104920523D01*
X146181359Y-104888147D01*
X146181350Y-104888141D01*
X145999031Y-104795244D01*
X145804417Y-104732009D01*
X145602317Y-104700000D01*
X145397683Y-104700000D01*
X145195582Y-104732009D01*
X145000968Y-104795244D01*
X144818644Y-104888143D01*
X144774077Y-104920523D01*
X144774077Y-104920524D01*
X145453554Y-105600000D01*
X145447339Y-105600000D01*
X145345606Y-105627259D01*
X145254394Y-105679920D01*
X145179920Y-105754394D01*
X145127259Y-105845606D01*
X145100000Y-105947339D01*
X145100000Y-105953553D01*
X144420524Y-105274077D01*
X144420523Y-105274077D01*
X144388143Y-105318644D01*
X144295244Y-105500968D01*
X144242431Y-105663510D01*
X144202993Y-105721185D01*
X144138634Y-105748383D01*
X144069788Y-105736468D01*
X144018312Y-105689224D01*
X144000500Y-105625191D01*
X144000500Y-105395730D01*
X143997646Y-105365300D01*
X143997646Y-105365298D01*
X143952793Y-105237119D01*
X143952792Y-105237117D01*
X143942270Y-105222860D01*
X143872150Y-105127850D01*
X143762882Y-105047207D01*
X143762880Y-105047206D01*
X143634700Y-105002353D01*
X143604270Y-104999500D01*
X143604266Y-104999500D01*
X142395734Y-104999500D01*
X142395730Y-104999500D01*
X142365300Y-105002353D01*
X142365298Y-105002353D01*
X142237119Y-105047206D01*
X142237117Y-105047207D01*
X142127850Y-105127850D01*
X142047207Y-105237117D01*
X142047206Y-105237119D01*
X142002353Y-105365298D01*
X142002353Y-105365300D01*
X141999500Y-105395730D01*
X133651133Y-105395730D01*
X133611859Y-105318650D01*
X133579474Y-105274077D01*
X133579474Y-105274076D01*
X132900000Y-105953551D01*
X132900000Y-105947339D01*
X132872741Y-105845606D01*
X132820080Y-105754394D01*
X132745606Y-105679920D01*
X132654394Y-105627259D01*
X132552661Y-105600000D01*
X132546446Y-105600000D01*
X133225922Y-104920524D01*
X133225921Y-104920523D01*
X133181359Y-104888147D01*
X133181350Y-104888141D01*
X132999031Y-104795244D01*
X132804417Y-104732009D01*
X132602317Y-104700000D01*
X132397683Y-104700000D01*
X132195582Y-104732009D01*
X132000968Y-104795244D01*
X131818644Y-104888144D01*
X131774077Y-104920523D01*
X132453554Y-105600000D01*
X132447339Y-105600000D01*
X132345606Y-105627259D01*
X132254394Y-105679920D01*
X132179920Y-105754394D01*
X132127259Y-105845606D01*
X132100000Y-105947339D01*
X132100000Y-105953553D01*
X131420524Y-105274077D01*
X131420523Y-105274077D01*
X131388143Y-105318644D01*
X131295244Y-105500968D01*
X131232009Y-105695582D01*
X131200000Y-105897682D01*
X130286045Y-105897682D01*
X131572818Y-104761625D01*
X131574268Y-104760946D01*
X131577508Y-104757484D01*
X135155533Y-101598543D01*
X141149499Y-101598543D01*
X141187947Y-101791829D01*
X141187950Y-101791839D01*
X141263364Y-101973907D01*
X141263371Y-101973920D01*
X141372860Y-102137781D01*
X141372863Y-102137785D01*
X141512214Y-102277136D01*
X141512218Y-102277139D01*
X141676079Y-102386628D01*
X141676092Y-102386635D01*
X141816872Y-102444947D01*
X141858165Y-102462051D01*
X141858169Y-102462051D01*
X141858170Y-102462052D01*
X142051456Y-102500500D01*
X142051459Y-102500500D01*
X142248543Y-102500500D01*
X142378949Y-102474560D01*
X142441835Y-102462051D01*
X142623914Y-102386632D01*
X142787782Y-102277139D01*
X142927139Y-102137782D01*
X143036632Y-101973914D01*
X143112051Y-101791835D01*
X143136354Y-101669657D01*
X143150500Y-101598543D01*
X143150500Y-101401456D01*
X143112052Y-101208170D01*
X143112051Y-101208169D01*
X143112051Y-101208165D01*
X143100352Y-101179920D01*
X143036635Y-101026092D01*
X143036628Y-101026079D01*
X142927139Y-100862218D01*
X142927136Y-100862214D01*
X142787785Y-100722863D01*
X142787781Y-100722860D01*
X142623920Y-100613371D01*
X142623907Y-100613364D01*
X142441839Y-100537950D01*
X142441829Y-100537947D01*
X142248543Y-100499500D01*
X142248541Y-100499500D01*
X142051459Y-100499500D01*
X142051457Y-100499500D01*
X141858170Y-100537947D01*
X141858160Y-100537950D01*
X141676092Y-100613364D01*
X141676079Y-100613371D01*
X141512218Y-100722860D01*
X141512214Y-100722863D01*
X141372863Y-100862214D01*
X141372860Y-100862218D01*
X141263371Y-101026079D01*
X141263364Y-101026092D01*
X141187950Y-101208160D01*
X141187947Y-101208170D01*
X141149500Y-101401456D01*
X141149500Y-101401459D01*
X141149500Y-101598541D01*
X141149500Y-101598543D01*
X141149499Y-101598543D01*
X135155533Y-101598543D01*
X139686197Y-97598543D01*
X148519499Y-97598543D01*
X148557947Y-97791829D01*
X148557950Y-97791839D01*
X148633364Y-97973907D01*
X148633371Y-97973920D01*
X148742860Y-98137781D01*
X148742863Y-98137785D01*
X148882214Y-98277136D01*
X148882218Y-98277139D01*
X149046079Y-98386628D01*
X149046092Y-98386635D01*
X149120980Y-98417654D01*
X149228165Y-98462051D01*
X149228169Y-98462051D01*
X149228170Y-98462052D01*
X149421456Y-98500500D01*
X149421459Y-98500500D01*
X149618543Y-98500500D01*
X149748582Y-98474632D01*
X149811835Y-98462051D01*
X149853164Y-98444931D01*
X149919021Y-98417654D01*
X149993907Y-98386635D01*
X149993907Y-98386634D01*
X149993914Y-98386632D01*
X150157782Y-98277139D01*
X150297139Y-98137782D01*
X150406632Y-97973914D01*
X150482051Y-97791835D01*
X150520500Y-97598541D01*
X150520500Y-97401459D01*
X150519749Y-97397682D01*
X153220000Y-97397682D01*
X153220000Y-97602317D01*
X153252009Y-97804417D01*
X153315244Y-97999031D01*
X153408141Y-98181350D01*
X153408147Y-98181359D01*
X153440523Y-98225921D01*
X153440524Y-98225922D01*
X154120000Y-97546446D01*
X154120000Y-97552661D01*
X154147259Y-97654394D01*
X154199920Y-97745606D01*
X154274394Y-97820080D01*
X154365606Y-97872741D01*
X154467339Y-97900000D01*
X154473553Y-97900000D01*
X153794076Y-98579474D01*
X153838650Y-98611859D01*
X154020968Y-98704755D01*
X154215582Y-98767990D01*
X154417683Y-98800000D01*
X154622317Y-98800000D01*
X154824417Y-98767990D01*
X155019031Y-98704755D01*
X155201349Y-98611859D01*
X155245921Y-98579474D01*
X154566447Y-97900000D01*
X154572661Y-97900000D01*
X154674394Y-97872741D01*
X154765606Y-97820080D01*
X154840080Y-97745606D01*
X154892741Y-97654394D01*
X154920000Y-97552661D01*
X154920000Y-97546447D01*
X155599474Y-98225921D01*
X155631859Y-98181349D01*
X155724755Y-97999031D01*
X155787990Y-97804417D01*
X155820000Y-97602317D01*
X155820000Y-97397682D01*
X155787990Y-97195582D01*
X155724755Y-97000968D01*
X155631859Y-96818650D01*
X155599474Y-96774077D01*
X155599474Y-96774076D01*
X154920000Y-97453551D01*
X154920000Y-97447339D01*
X154892741Y-97345606D01*
X154840080Y-97254394D01*
X154765606Y-97179920D01*
X154674394Y-97127259D01*
X154572661Y-97100000D01*
X154566446Y-97100000D01*
X155245922Y-96420524D01*
X155245921Y-96420523D01*
X155201359Y-96388147D01*
X155201350Y-96388141D01*
X155019031Y-96295244D01*
X154824417Y-96232009D01*
X154622317Y-96200000D01*
X154417683Y-96200000D01*
X154215582Y-96232009D01*
X154020968Y-96295244D01*
X153838644Y-96388143D01*
X153794077Y-96420523D01*
X153794077Y-96420524D01*
X154473554Y-97100000D01*
X154467339Y-97100000D01*
X154365606Y-97127259D01*
X154274394Y-97179920D01*
X154199920Y-97254394D01*
X154147259Y-97345606D01*
X154120000Y-97447339D01*
X154120000Y-97453553D01*
X153440524Y-96774077D01*
X153440523Y-96774077D01*
X153408143Y-96818644D01*
X153315244Y-97000968D01*
X153252009Y-97195582D01*
X153220000Y-97397682D01*
X150519749Y-97397682D01*
X150482051Y-97208165D01*
X150465974Y-97169352D01*
X150406635Y-97026092D01*
X150406628Y-97026079D01*
X150297139Y-96862218D01*
X150297136Y-96862214D01*
X150157785Y-96722863D01*
X150157781Y-96722860D01*
X149993920Y-96613371D01*
X149993907Y-96613364D01*
X149919016Y-96582344D01*
X149811839Y-96537950D01*
X149811829Y-96537947D01*
X149618543Y-96499500D01*
X149618541Y-96499500D01*
X149421459Y-96499500D01*
X149421457Y-96499500D01*
X149228170Y-96537947D01*
X149228160Y-96537950D01*
X149046092Y-96613364D01*
X149046079Y-96613371D01*
X148882218Y-96722860D01*
X148882214Y-96722863D01*
X148742863Y-96862214D01*
X148742860Y-96862218D01*
X148633371Y-97026079D01*
X148633364Y-97026092D01*
X148557950Y-97208160D01*
X148557947Y-97208170D01*
X148519500Y-97401456D01*
X148519500Y-97401458D01*
X148519500Y-97401459D01*
X148519500Y-97598541D01*
X148519500Y-97598543D01*
X148519499Y-97598543D01*
X139686197Y-97598543D01*
X149699165Y-88758367D01*
X149716745Y-88746593D01*
X149731152Y-88730127D01*
X149747554Y-88715647D01*
X149754681Y-88704902D01*
X149764694Y-88691793D01*
X149773183Y-88682093D01*
X149782837Y-88662459D01*
X149794932Y-88644228D01*
X149801667Y-88624167D01*
X149811003Y-88605183D01*
X149813696Y-88591561D01*
X149817791Y-88576144D01*
X149822212Y-88562978D01*
X149822212Y-88562975D01*
X149823012Y-88550114D01*
X149823012Y-88550106D01*
X149823525Y-88541860D01*
X149827630Y-88521106D01*
X149826174Y-88499275D01*
X149827533Y-88477439D01*
X149824974Y-88464796D01*
X149822786Y-88448462D01*
X148893629Y-74511098D01*
X148908811Y-74442901D01*
X148958455Y-74393735D01*
X148969901Y-74388293D01*
X148973914Y-74386632D01*
X149137782Y-74277139D01*
X149277139Y-74137782D01*
X149386632Y-73973914D01*
X149462051Y-73791835D01*
X149500500Y-73598541D01*
X149500500Y-73401459D01*
X149499749Y-73397682D01*
X152200000Y-73397682D01*
X152200000Y-73602317D01*
X152232009Y-73804417D01*
X152295244Y-73999031D01*
X152388141Y-74181350D01*
X152388147Y-74181359D01*
X152420523Y-74225921D01*
X152420524Y-74225922D01*
X153100000Y-73546446D01*
X153100000Y-73552661D01*
X153127259Y-73654394D01*
X153179920Y-73745606D01*
X153254394Y-73820080D01*
X153345606Y-73872741D01*
X153447339Y-73900000D01*
X153453553Y-73900000D01*
X152774076Y-74579474D01*
X152818650Y-74611859D01*
X153000968Y-74704755D01*
X153195582Y-74767990D01*
X153397683Y-74800000D01*
X153602317Y-74800000D01*
X153804417Y-74767990D01*
X153999031Y-74704755D01*
X154181349Y-74611859D01*
X154225921Y-74579474D01*
X153546447Y-73900000D01*
X153552661Y-73900000D01*
X153654394Y-73872741D01*
X153745606Y-73820080D01*
X153820080Y-73745606D01*
X153872741Y-73654394D01*
X153900000Y-73552661D01*
X153900000Y-73546447D01*
X154579474Y-74225921D01*
X154611859Y-74181349D01*
X154704755Y-73999031D01*
X154767990Y-73804417D01*
X154800000Y-73602317D01*
X154800000Y-73397682D01*
X154767990Y-73195582D01*
X154704755Y-73000968D01*
X154611859Y-72818650D01*
X154579474Y-72774077D01*
X154579474Y-72774076D01*
X153900000Y-73453551D01*
X153900000Y-73447339D01*
X153872741Y-73345606D01*
X153820080Y-73254394D01*
X153745606Y-73179920D01*
X153654394Y-73127259D01*
X153552661Y-73100000D01*
X153546446Y-73100000D01*
X154225922Y-72420524D01*
X154225921Y-72420523D01*
X154181359Y-72388147D01*
X154181350Y-72388141D01*
X153999031Y-72295244D01*
X153804417Y-72232009D01*
X153602317Y-72200000D01*
X153397683Y-72200000D01*
X153195582Y-72232009D01*
X153000968Y-72295244D01*
X152818644Y-72388143D01*
X152774077Y-72420523D01*
X152774077Y-72420524D01*
X153453554Y-73100000D01*
X153447339Y-73100000D01*
X153345606Y-73127259D01*
X153254394Y-73179920D01*
X153179920Y-73254394D01*
X153127259Y-73345606D01*
X153100000Y-73447339D01*
X153100000Y-73453553D01*
X152420524Y-72774077D01*
X152420523Y-72774077D01*
X152388143Y-72818644D01*
X152295244Y-73000968D01*
X152232009Y-73195582D01*
X152200000Y-73397682D01*
X149499749Y-73397682D01*
X149462051Y-73208165D01*
X149450352Y-73179920D01*
X149386635Y-73026092D01*
X149386628Y-73026079D01*
X149277139Y-72862218D01*
X149277136Y-72862214D01*
X149137785Y-72722863D01*
X149137781Y-72722860D01*
X148973920Y-72613371D01*
X148973907Y-72613364D01*
X148899016Y-72582344D01*
X148791839Y-72537950D01*
X148791829Y-72537947D01*
X148598543Y-72499500D01*
X148598541Y-72499500D01*
X148401459Y-72499500D01*
X148401457Y-72499500D01*
X148208170Y-72537947D01*
X148208160Y-72537950D01*
X148026092Y-72613364D01*
X148026079Y-72613371D01*
X147862218Y-72722860D01*
X147862214Y-72722863D01*
X147722863Y-72862214D01*
X147722860Y-72862218D01*
X147613371Y-73026079D01*
X147613364Y-73026092D01*
X147537950Y-73208160D01*
X147537947Y-73208170D01*
X147499500Y-73401456D01*
X147499500Y-73401458D01*
X147499500Y-73401459D01*
X147499500Y-73598541D01*
X147499500Y-73598543D01*
X147499499Y-73598543D01*
X147537947Y-73791829D01*
X147537950Y-73791839D01*
X147613364Y-73973907D01*
X147613371Y-73973920D01*
X147722860Y-74137781D01*
X147722863Y-74137785D01*
X147862214Y-74277136D01*
X147862218Y-74277139D01*
X148026079Y-74386628D01*
X148026092Y-74386635D01*
X148167607Y-74445252D01*
X148222011Y-74489093D01*
X148243880Y-74551565D01*
X149160515Y-88301088D01*
X149145334Y-88369288D01*
X149118858Y-88402292D01*
X133213221Y-102444947D01*
X133149937Y-102474560D01*
X133080690Y-102465258D01*
X133027464Y-102419995D01*
X133007158Y-102353141D01*
X133026220Y-102285922D01*
X133030835Y-102279105D01*
X133101859Y-102181349D01*
X133194755Y-101999031D01*
X133257990Y-101804417D01*
X133290000Y-101602317D01*
X133290000Y-101397682D01*
X133257990Y-101195582D01*
X133194755Y-101000968D01*
X133101859Y-100818650D01*
X133069474Y-100774077D01*
X133069474Y-100774076D01*
X132390000Y-101453553D01*
X132390000Y-101447339D01*
X132362741Y-101345606D01*
X132310080Y-101254394D01*
X132235606Y-101179920D01*
X132144394Y-101127259D01*
X132042661Y-101100000D01*
X132036446Y-101100000D01*
X132715922Y-100420524D01*
X132715921Y-100420523D01*
X132671359Y-100388147D01*
X132671350Y-100388141D01*
X132489031Y-100295244D01*
X132294417Y-100232009D01*
X132092317Y-100200000D01*
X131887683Y-100200000D01*
X131685582Y-100232009D01*
X131490968Y-100295244D01*
X131308644Y-100388143D01*
X131264077Y-100420523D01*
X131264077Y-100420524D01*
X131943554Y-101100000D01*
X131937339Y-101100000D01*
X131835606Y-101127259D01*
X131744394Y-101179920D01*
X131669920Y-101254394D01*
X131617259Y-101345606D01*
X131590000Y-101447339D01*
X131590000Y-101453553D01*
X130910524Y-100774077D01*
X130910523Y-100774077D01*
X130878143Y-100818644D01*
X130785244Y-101000968D01*
X130722009Y-101195582D01*
X130690000Y-101397682D01*
X130690000Y-101602317D01*
X130722009Y-101804417D01*
X130785244Y-101999031D01*
X130878141Y-102181350D01*
X130878147Y-102181359D01*
X130910523Y-102225921D01*
X130910524Y-102225922D01*
X131590000Y-101546446D01*
X131590000Y-101552661D01*
X131617259Y-101654394D01*
X131669920Y-101745606D01*
X131744394Y-101820080D01*
X131835606Y-101872741D01*
X131937339Y-101900000D01*
X131943553Y-101900000D01*
X131264076Y-102579474D01*
X131308650Y-102611859D01*
X131490968Y-102704755D01*
X131685582Y-102767990D01*
X131887683Y-102800000D01*
X132092317Y-102800000D01*
X132294417Y-102767990D01*
X132489031Y-102704755D01*
X132633566Y-102631110D01*
X132702235Y-102618214D01*
X132766975Y-102644490D01*
X132807233Y-102701596D01*
X132810225Y-102771402D01*
X132775003Y-102831744D01*
X132771929Y-102834551D01*
X128636618Y-106485505D01*
X128573334Y-106515118D01*
X128504087Y-106505816D01*
X128450861Y-106460553D01*
X128430555Y-106393699D01*
X128439988Y-106345099D01*
X128462051Y-106291835D01*
X128500500Y-106098541D01*
X128500500Y-105901459D01*
X128500500Y-105901456D01*
X128462052Y-105708170D01*
X128462051Y-105708169D01*
X128462051Y-105708165D01*
X128455446Y-105692218D01*
X128386635Y-105526092D01*
X128386628Y-105526079D01*
X128277139Y-105362218D01*
X128277136Y-105362214D01*
X128137785Y-105222863D01*
X128137781Y-105222860D01*
X127973920Y-105113371D01*
X127973910Y-105113366D01*
X127902047Y-105083599D01*
X127847643Y-105039757D01*
X127825579Y-104973463D01*
X127825500Y-104969038D01*
X127825500Y-100654500D01*
X127845185Y-100587461D01*
X127897989Y-100541706D01*
X127949500Y-100530500D01*
X129337851Y-100530500D01*
X129337853Y-100530500D01*
X129420639Y-100508318D01*
X129494862Y-100465465D01*
X131852527Y-98107798D01*
X131913848Y-98074315D01*
X131983540Y-98079299D01*
X131996502Y-98084997D01*
X132057395Y-98116024D01*
X132057398Y-98116024D01*
X132057402Y-98116027D01*
X132230005Y-98172109D01*
X132409257Y-98200500D01*
X132409258Y-98200500D01*
X132590742Y-98200500D01*
X132590743Y-98200500D01*
X132769995Y-98172109D01*
X132769998Y-98172108D01*
X132769999Y-98172108D01*
X132942595Y-98116028D01*
X132942595Y-98116027D01*
X132942598Y-98116027D01*
X133104304Y-98033634D01*
X133251129Y-97926959D01*
X133379459Y-97798629D01*
X133486134Y-97651804D01*
X133568527Y-97490098D01*
X133590935Y-97421133D01*
X133624608Y-97317499D01*
X133624608Y-97317498D01*
X133624609Y-97317495D01*
X133653000Y-97138243D01*
X133653000Y-96861757D01*
X133624609Y-96682505D01*
X133624608Y-96682501D01*
X133624608Y-96682500D01*
X133568528Y-96509904D01*
X133563227Y-96499500D01*
X133486134Y-96348196D01*
X133379459Y-96201371D01*
X133251129Y-96073041D01*
X133104304Y-95966366D01*
X133029354Y-95928177D01*
X132942595Y-95883971D01*
X132769998Y-95827891D01*
X132635556Y-95806597D01*
X132590743Y-95799500D01*
X132409257Y-95799500D01*
X132349506Y-95808963D01*
X132230003Y-95827891D01*
X132230000Y-95827891D01*
X132057404Y-95883971D01*
X131895695Y-95966366D01*
X131838199Y-96008140D01*
X131748871Y-96073041D01*
X131748869Y-96073043D01*
X131748868Y-96073043D01*
X131620543Y-96201368D01*
X131620543Y-96201369D01*
X131620541Y-96201371D01*
X131589018Y-96244759D01*
X131513866Y-96348195D01*
X131431471Y-96509904D01*
X131375391Y-96682500D01*
X131375391Y-96682503D01*
X131352473Y-96827202D01*
X131322544Y-96890337D01*
X131263232Y-96927268D01*
X131193370Y-96926270D01*
X131135137Y-96887660D01*
X131107527Y-96827202D01*
X131106172Y-96818650D01*
X131084609Y-96682505D01*
X131084608Y-96682501D01*
X131084608Y-96682500D01*
X131028528Y-96509904D01*
X131023227Y-96499500D01*
X130946134Y-96348196D01*
X130839459Y-96201371D01*
X130711129Y-96073041D01*
X130564304Y-95966366D01*
X130489354Y-95928177D01*
X130402595Y-95883971D01*
X130229998Y-95827891D01*
X130095556Y-95806597D01*
X130050743Y-95799500D01*
X129869257Y-95799500D01*
X129809506Y-95808963D01*
X129690003Y-95827891D01*
X129690000Y-95827891D01*
X129517404Y-95883971D01*
X129355695Y-95966366D01*
X129298199Y-96008140D01*
X129208871Y-96073041D01*
X129208869Y-96073043D01*
X129208868Y-96073043D01*
X129080543Y-96201368D01*
X129080543Y-96201369D01*
X129080541Y-96201371D01*
X129049018Y-96244759D01*
X128973866Y-96348195D01*
X128891471Y-96509904D01*
X128835391Y-96682500D01*
X128835391Y-96682503D01*
X128819473Y-96783006D01*
X128789544Y-96846141D01*
X128730232Y-96883072D01*
X128660370Y-96882074D01*
X128602137Y-96843464D01*
X128574023Y-96779501D01*
X128573000Y-96763608D01*
X128573000Y-95980249D01*
X128572999Y-95980247D01*
X128561368Y-95921770D01*
X128561367Y-95921769D01*
X128517052Y-95855447D01*
X128450730Y-95811132D01*
X128450729Y-95811131D01*
X128392252Y-95799500D01*
X128392248Y-95799500D01*
X126447752Y-95799500D01*
X126447747Y-95799500D01*
X126389270Y-95811131D01*
X126389269Y-95811132D01*
X126322947Y-95855447D01*
X126278632Y-95921769D01*
X126278631Y-95921770D01*
X126267000Y-95980247D01*
X126267000Y-98019752D01*
X126278631Y-98078229D01*
X126278632Y-98078230D01*
X126322947Y-98144552D01*
X126389269Y-98188867D01*
X126389270Y-98188868D01*
X126447747Y-98200499D01*
X126447750Y-98200500D01*
X126447752Y-98200500D01*
X128392250Y-98200500D01*
X128392251Y-98200499D01*
X128407068Y-98197552D01*
X128450729Y-98188868D01*
X128450729Y-98188867D01*
X128450731Y-98188867D01*
X128517052Y-98144552D01*
X128561367Y-98078231D01*
X128561367Y-98078229D01*
X128561368Y-98078229D01*
X128572999Y-98019752D01*
X128573000Y-98019750D01*
X128573000Y-97236391D01*
X128592685Y-97169352D01*
X128645489Y-97123597D01*
X128714647Y-97113653D01*
X128778203Y-97142678D01*
X128815977Y-97201456D01*
X128819473Y-97216993D01*
X128835391Y-97317496D01*
X128835391Y-97317499D01*
X128891471Y-97490095D01*
X128942501Y-97590247D01*
X128973866Y-97651804D01*
X129080541Y-97798629D01*
X129208871Y-97926959D01*
X129355696Y-98033634D01*
X129443219Y-98078229D01*
X129517404Y-98116028D01*
X129690001Y-98172108D01*
X129690002Y-98172108D01*
X129690005Y-98172109D01*
X129869257Y-98200500D01*
X129869258Y-98200500D01*
X130050742Y-98200500D01*
X130050743Y-98200500D01*
X130229995Y-98172109D01*
X130229998Y-98172108D01*
X130229999Y-98172108D01*
X130402595Y-98116028D01*
X130402595Y-98116027D01*
X130402598Y-98116027D01*
X130564304Y-98033634D01*
X130711129Y-97926959D01*
X130839459Y-97798629D01*
X130946134Y-97651804D01*
X131028527Y-97490098D01*
X131050935Y-97421133D01*
X131084608Y-97317499D01*
X131084608Y-97317498D01*
X131084609Y-97317495D01*
X131107527Y-97172796D01*
X131137456Y-97109662D01*
X131196768Y-97072731D01*
X131266630Y-97073729D01*
X131324863Y-97112339D01*
X131352472Y-97172796D01*
X131375391Y-97317495D01*
X131431473Y-97490098D01*
X131431475Y-97490102D01*
X131431477Y-97490108D01*
X131433340Y-97494607D01*
X131431785Y-97495250D01*
X131443332Y-97556731D01*
X131417057Y-97621472D01*
X131407632Y-97632039D01*
X129196492Y-99843181D01*
X129135169Y-99876666D01*
X129108811Y-99879500D01*
X120841188Y-99879500D01*
X120774149Y-99859815D01*
X120753507Y-99843181D01*
X116786319Y-95875992D01*
X116752834Y-95814669D01*
X116750000Y-95788311D01*
X116750000Y-94830330D01*
X116769745Y-94850075D01*
X116855255Y-94899444D01*
X116950630Y-94925000D01*
X117049370Y-94925000D01*
X117144745Y-94899444D01*
X117230255Y-94850075D01*
X117250000Y-94830330D01*
X117250000Y-95899115D01*
X117257584Y-95897914D01*
X117422255Y-95844408D01*
X117576524Y-95765804D01*
X117716602Y-95664032D01*
X117804382Y-95576253D01*
X117865705Y-95542768D01*
X117935397Y-95547752D01*
X117954061Y-95556546D01*
X118007116Y-95587177D01*
X118159843Y-95628100D01*
X118159845Y-95628100D01*
X118317955Y-95628100D01*
X118317957Y-95628100D01*
X118470684Y-95587177D01*
X118607616Y-95508120D01*
X118719420Y-95396316D01*
X118798477Y-95259384D01*
X118839400Y-95106657D01*
X118839400Y-94948543D01*
X118839400Y-94940415D01*
X118842580Y-94940415D01*
X118851012Y-94886179D01*
X118875526Y-94851299D01*
X125929759Y-87797066D01*
X125929762Y-87797065D01*
X125990365Y-87736462D01*
X126015377Y-87693139D01*
X126033218Y-87662239D01*
X126055400Y-87579453D01*
X126055400Y-87493747D01*
X126055400Y-77411104D01*
X126075085Y-77344065D01*
X126127889Y-77298310D01*
X126197047Y-77288366D01*
X126260603Y-77317391D01*
X126267081Y-77323423D01*
X126283072Y-77339414D01*
X126423212Y-77441232D01*
X126577555Y-77519873D01*
X126742299Y-77573402D01*
X126913389Y-77600500D01*
X126913390Y-77600500D01*
X127086610Y-77600500D01*
X127086611Y-77600500D01*
X127257701Y-77573402D01*
X127422445Y-77519873D01*
X127576788Y-77441232D01*
X127716928Y-77339414D01*
X127839414Y-77216928D01*
X127941232Y-77076788D01*
X128019873Y-76922445D01*
X128073402Y-76757701D01*
X128098610Y-76598543D01*
X129839499Y-76598543D01*
X129877947Y-76791829D01*
X129877950Y-76791839D01*
X129953364Y-76973907D01*
X129953371Y-76973920D01*
X130062860Y-77137781D01*
X130062863Y-77137785D01*
X130202214Y-77277136D01*
X130202218Y-77277139D01*
X130366079Y-77386628D01*
X130366092Y-77386635D01*
X130497903Y-77441232D01*
X130548165Y-77462051D01*
X130548169Y-77462051D01*
X130548170Y-77462052D01*
X130741456Y-77500500D01*
X130741459Y-77500500D01*
X130938543Y-77500500D01*
X131068582Y-77474632D01*
X131131835Y-77462051D01*
X131313914Y-77386632D01*
X131477782Y-77277139D01*
X131617139Y-77137782D01*
X131726632Y-76973914D01*
X131802051Y-76791835D01*
X131825551Y-76673694D01*
X131840500Y-76598543D01*
X139999499Y-76598543D01*
X140037947Y-76791829D01*
X140037950Y-76791839D01*
X140113364Y-76973907D01*
X140113371Y-76973920D01*
X140222860Y-77137781D01*
X140222863Y-77137785D01*
X140362214Y-77277136D01*
X140362218Y-77277139D01*
X140526079Y-77386628D01*
X140526092Y-77386635D01*
X140657903Y-77441232D01*
X140708165Y-77462051D01*
X140708169Y-77462051D01*
X140708170Y-77462052D01*
X140901456Y-77500500D01*
X140901459Y-77500500D01*
X141098543Y-77500500D01*
X141228582Y-77474632D01*
X141291835Y-77462051D01*
X141473914Y-77386632D01*
X141637782Y-77277139D01*
X141777139Y-77137782D01*
X141886632Y-76973914D01*
X141962051Y-76791835D01*
X141985551Y-76673694D01*
X142000500Y-76598543D01*
X142000500Y-76401456D01*
X141962052Y-76208170D01*
X141962051Y-76208169D01*
X141962051Y-76208165D01*
X141903581Y-76067005D01*
X141886635Y-76026092D01*
X141886628Y-76026079D01*
X141777139Y-75862218D01*
X141777136Y-75862214D01*
X141637785Y-75722863D01*
X141637781Y-75722860D01*
X141473920Y-75613371D01*
X141473907Y-75613364D01*
X141291839Y-75537950D01*
X141291829Y-75537947D01*
X141098543Y-75499500D01*
X141098541Y-75499500D01*
X140901459Y-75499500D01*
X140901457Y-75499500D01*
X140708170Y-75537947D01*
X140708160Y-75537950D01*
X140526092Y-75613364D01*
X140526079Y-75613371D01*
X140362218Y-75722860D01*
X140362214Y-75722863D01*
X140222863Y-75862214D01*
X140222860Y-75862218D01*
X140113371Y-76026079D01*
X140113364Y-76026092D01*
X140037950Y-76208160D01*
X140037947Y-76208170D01*
X139999500Y-76401456D01*
X139999500Y-76401459D01*
X139999500Y-76598541D01*
X139999500Y-76598543D01*
X139999499Y-76598543D01*
X131840500Y-76598543D01*
X131840500Y-76401456D01*
X131802052Y-76208170D01*
X131802051Y-76208169D01*
X131802051Y-76208165D01*
X131743581Y-76067005D01*
X131726635Y-76026092D01*
X131726628Y-76026079D01*
X131617139Y-75862218D01*
X131617136Y-75862214D01*
X131477785Y-75722863D01*
X131477781Y-75722860D01*
X131313920Y-75613371D01*
X131313907Y-75613364D01*
X131131839Y-75537950D01*
X131131829Y-75537947D01*
X130938543Y-75499500D01*
X130938541Y-75499500D01*
X130741459Y-75499500D01*
X130741457Y-75499500D01*
X130548170Y-75537947D01*
X130548160Y-75537950D01*
X130366092Y-75613364D01*
X130366079Y-75613371D01*
X130202218Y-75722860D01*
X130202214Y-75722863D01*
X130062863Y-75862214D01*
X130062860Y-75862218D01*
X129953371Y-76026079D01*
X129953364Y-76026092D01*
X129877950Y-76208160D01*
X129877947Y-76208170D01*
X129839500Y-76401456D01*
X129839500Y-76401459D01*
X129839500Y-76598541D01*
X129839500Y-76598543D01*
X129839499Y-76598543D01*
X128098610Y-76598543D01*
X128100500Y-76586611D01*
X128100500Y-76413389D01*
X128098610Y-76401459D01*
X128086707Y-76326306D01*
X128073402Y-76242299D01*
X128019873Y-76077555D01*
X128014496Y-76067003D01*
X128001599Y-75998337D01*
X128027873Y-75933595D01*
X128037290Y-75923035D01*
X135098508Y-68861819D01*
X135159831Y-68828334D01*
X135186189Y-68825500D01*
X139969039Y-68825500D01*
X140036078Y-68845185D01*
X140081833Y-68897989D01*
X140083600Y-68902048D01*
X140113364Y-68973907D01*
X140113371Y-68973920D01*
X140222860Y-69137781D01*
X140222863Y-69137785D01*
X140362214Y-69277136D01*
X140362218Y-69277139D01*
X140526079Y-69386628D01*
X140526092Y-69386635D01*
X140679071Y-69450000D01*
X140708165Y-69462051D01*
X140708169Y-69462051D01*
X140708170Y-69462052D01*
X140901456Y-69500500D01*
X140901459Y-69500500D01*
X141098543Y-69500500D01*
X141228582Y-69474632D01*
X141291835Y-69462051D01*
X141473914Y-69386632D01*
X141637782Y-69277139D01*
X141777139Y-69137782D01*
X141886632Y-68973914D01*
X141962051Y-68791835D01*
X142000500Y-68598541D01*
X142000500Y-68401459D01*
X142000500Y-68401456D01*
X141962052Y-68208170D01*
X141962051Y-68208166D01*
X141962051Y-68208165D01*
X141942343Y-68160586D01*
X141886635Y-68026092D01*
X141886628Y-68026079D01*
X141777139Y-67862218D01*
X141777136Y-67862214D01*
X141637785Y-67722863D01*
X141637781Y-67722860D01*
X141473920Y-67613371D01*
X141473907Y-67613364D01*
X141291839Y-67537950D01*
X141291829Y-67537947D01*
X141098543Y-67499500D01*
X141098541Y-67499500D01*
X140901459Y-67499500D01*
X140901457Y-67499500D01*
X140708170Y-67537947D01*
X140708160Y-67537950D01*
X140526092Y-67613364D01*
X140526079Y-67613371D01*
X140362218Y-67722860D01*
X140362214Y-67722863D01*
X140222863Y-67862214D01*
X140222860Y-67862218D01*
X140113371Y-68026079D01*
X140113364Y-68026092D01*
X140083600Y-68097952D01*
X140039760Y-68152356D01*
X139973466Y-68174421D01*
X139969039Y-68174500D01*
X134957147Y-68174500D01*
X134874359Y-68196682D01*
X134856105Y-68207222D01*
X134854473Y-68208165D01*
X134838329Y-68217485D01*
X134800138Y-68239534D01*
X134800136Y-68239536D01*
X127576972Y-75462699D01*
X127515649Y-75496184D01*
X127445957Y-75491200D01*
X127432998Y-75485504D01*
X127422440Y-75480124D01*
X127257698Y-75426597D01*
X127126271Y-75405781D01*
X127086611Y-75399500D01*
X126913389Y-75399500D01*
X126873728Y-75405781D01*
X126742302Y-75426597D01*
X126577552Y-75480128D01*
X126423211Y-75558768D01*
X126381744Y-75588896D01*
X126283072Y-75660586D01*
X126283070Y-75660588D01*
X126283069Y-75660588D01*
X126267081Y-75676577D01*
X126205758Y-75710062D01*
X126136066Y-75705078D01*
X126080133Y-75663206D01*
X126055716Y-75597742D01*
X126055400Y-75588896D01*
X126055400Y-73796288D01*
X126075085Y-73729249D01*
X126091719Y-73708607D01*
X127600326Y-72200000D01*
X130341165Y-69459160D01*
X130402486Y-69425677D01*
X130472178Y-69430661D01*
X130476270Y-69432271D01*
X130548165Y-69462051D01*
X130548169Y-69462051D01*
X130548170Y-69462052D01*
X130741456Y-69500500D01*
X130741459Y-69500500D01*
X130938543Y-69500500D01*
X131068582Y-69474632D01*
X131131835Y-69462051D01*
X131313914Y-69386632D01*
X131477782Y-69277139D01*
X131617139Y-69137782D01*
X131726632Y-68973914D01*
X131802051Y-68791835D01*
X131840500Y-68598541D01*
X131840500Y-68401459D01*
X131840500Y-68401456D01*
X131802052Y-68208170D01*
X131802051Y-68208166D01*
X131802051Y-68208165D01*
X131782343Y-68160586D01*
X131726635Y-68026092D01*
X131726628Y-68026079D01*
X131617139Y-67862218D01*
X131617136Y-67862214D01*
X131477785Y-67722863D01*
X131477781Y-67722860D01*
X131313920Y-67613371D01*
X131313907Y-67613364D01*
X131131839Y-67537950D01*
X131131829Y-67537947D01*
X130938543Y-67499500D01*
X130938541Y-67499500D01*
X130741459Y-67499500D01*
X130741457Y-67499500D01*
X130548170Y-67537947D01*
X130548160Y-67537950D01*
X130366092Y-67613364D01*
X130366079Y-67613371D01*
X130202218Y-67722860D01*
X130202214Y-67722863D01*
X130062863Y-67862214D01*
X130062860Y-67862218D01*
X129953371Y-68026079D01*
X129953364Y-68026092D01*
X129877950Y-68208160D01*
X129877947Y-68208170D01*
X129839500Y-68401456D01*
X129839500Y-68401459D01*
X129839500Y-68598541D01*
X129839500Y-68598543D01*
X129839499Y-68598543D01*
X129877947Y-68791828D01*
X129877948Y-68791831D01*
X129877949Y-68791835D01*
X129892227Y-68826306D01*
X129907717Y-68863703D01*
X129915184Y-68933173D01*
X129883909Y-68995651D01*
X129880836Y-68998835D01*
X125469437Y-73410235D01*
X125469433Y-73410241D01*
X125426581Y-73484461D01*
X125426582Y-73484462D01*
X125404400Y-73567247D01*
X125404400Y-74976000D01*
X125384715Y-75043039D01*
X125331911Y-75088794D01*
X125280400Y-75100000D01*
X124710000Y-75100000D01*
X124710000Y-76124722D01*
X124633694Y-76080667D01*
X124519244Y-76050000D01*
X124400756Y-76050000D01*
X124286306Y-76080667D01*
X124210000Y-76124722D01*
X124210000Y-75100000D01*
X123512155Y-75100000D01*
X123452627Y-75106401D01*
X123452620Y-75106403D01*
X123317913Y-75156645D01*
X123317906Y-75156649D01*
X123202812Y-75242809D01*
X123202809Y-75242812D01*
X123116649Y-75357906D01*
X123116645Y-75357913D01*
X123066403Y-75492620D01*
X123066401Y-75492627D01*
X123060000Y-75552155D01*
X123060000Y-76250000D01*
X124084722Y-76250000D01*
X124040667Y-76326306D01*
X124010000Y-76440756D01*
X124010000Y-76559244D01*
X124040667Y-76673694D01*
X124084722Y-76750000D01*
X123060000Y-76750000D01*
X123060000Y-77447844D01*
X123066401Y-77507372D01*
X123066403Y-77507379D01*
X123116645Y-77642086D01*
X123116649Y-77642093D01*
X123202809Y-77757187D01*
X123202812Y-77757190D01*
X123317906Y-77843350D01*
X123317913Y-77843354D01*
X123452620Y-77893596D01*
X123452627Y-77893598D01*
X123512155Y-77899999D01*
X123512172Y-77900000D01*
X124210000Y-77900000D01*
X124210000Y-76875277D01*
X124286306Y-76919333D01*
X124400756Y-76950000D01*
X124519244Y-76950000D01*
X124633694Y-76919333D01*
X124710000Y-76875277D01*
X124710000Y-77900000D01*
X125280400Y-77900000D01*
X125347439Y-77919685D01*
X125393194Y-77972489D01*
X125404400Y-78024000D01*
X125404400Y-87350410D01*
X125384715Y-87417449D01*
X125368081Y-87438091D01*
X118415201Y-94390970D01*
X118388183Y-94405722D01*
X118362238Y-94422330D01*
X118357040Y-94422728D01*
X118353878Y-94424455D01*
X118327294Y-94427289D01*
X118318603Y-94427273D01*
X118317957Y-94427100D01*
X118223774Y-94427100D01*
X118190159Y-94417163D01*
X118156961Y-94407415D01*
X118156884Y-94407326D01*
X118156770Y-94407293D01*
X118133835Y-94380726D01*
X118111206Y-94354611D01*
X118111177Y-94354481D01*
X118111112Y-94354405D01*
X118111019Y-94353754D01*
X118100000Y-94303100D01*
X118100000Y-94188428D01*
X118072914Y-94017415D01*
X118019408Y-93852742D01*
X117940804Y-93698475D01*
X117839032Y-93558397D01*
X117716602Y-93435967D01*
X117576524Y-93334195D01*
X117422257Y-93255591D01*
X117257589Y-93202087D01*
X117257581Y-93202085D01*
X117250000Y-93200884D01*
X117250000Y-94269670D01*
X117230255Y-94249925D01*
X117144745Y-94200556D01*
X117049370Y-94175000D01*
X116950630Y-94175000D01*
X116855255Y-94200556D01*
X116769745Y-94249925D01*
X116750000Y-94269670D01*
X116750000Y-93200884D01*
X116749999Y-93200884D01*
X116742418Y-93202085D01*
X116742410Y-93202087D01*
X116577742Y-93255591D01*
X116423475Y-93334195D01*
X116283397Y-93435967D01*
X116160967Y-93558397D01*
X116059194Y-93698478D01*
X116006419Y-93802052D01*
X115958444Y-93852848D01*
X115890623Y-93869642D01*
X115824488Y-93847104D01*
X115781038Y-93792388D01*
X115778908Y-93786751D01*
X115752793Y-93712118D01*
X115672150Y-93602850D01*
X115562882Y-93522207D01*
X115562880Y-93522206D01*
X115434700Y-93477353D01*
X115404270Y-93474500D01*
X115404266Y-93474500D01*
X114595734Y-93474500D01*
X114595730Y-93474500D01*
X114565300Y-93477353D01*
X114565298Y-93477353D01*
X114437119Y-93522206D01*
X114437117Y-93522207D01*
X114327850Y-93602850D01*
X114247207Y-93712117D01*
X114247206Y-93712119D01*
X114202353Y-93840298D01*
X114202353Y-93840300D01*
X114199500Y-93870730D01*
X103810997Y-93870730D01*
X121858765Y-75822962D01*
X121901618Y-75748739D01*
X121923800Y-75665953D01*
X121923800Y-75580247D01*
X121923800Y-69732589D01*
X121943485Y-69665550D01*
X121960119Y-69644908D01*
X122218399Y-69386628D01*
X122869834Y-68735192D01*
X122931155Y-68701709D01*
X123000847Y-68706693D01*
X123045194Y-68735194D01*
X123060000Y-68750000D01*
X124084722Y-68750000D01*
X124040667Y-68826306D01*
X124010000Y-68940756D01*
X124010000Y-69059244D01*
X124040667Y-69173694D01*
X124084722Y-69250000D01*
X123060000Y-69250000D01*
X123060000Y-69947844D01*
X123066401Y-70007372D01*
X123066403Y-70007379D01*
X123116645Y-70142086D01*
X123116649Y-70142093D01*
X123202809Y-70257187D01*
X123202812Y-70257190D01*
X123317906Y-70343350D01*
X123317913Y-70343354D01*
X123452620Y-70393596D01*
X123452627Y-70393598D01*
X123512155Y-70399999D01*
X123512172Y-70400000D01*
X124210000Y-70400000D01*
X124210000Y-69375277D01*
X124286306Y-69419333D01*
X124400756Y-69450000D01*
X124519244Y-69450000D01*
X124633694Y-69419333D01*
X124710000Y-69375277D01*
X124710000Y-70400000D01*
X125407828Y-70400000D01*
X125407844Y-70399999D01*
X125467372Y-70393598D01*
X125467379Y-70393596D01*
X125602086Y-70343354D01*
X125602093Y-70343350D01*
X125717187Y-70257190D01*
X125717190Y-70257187D01*
X125803350Y-70142093D01*
X125803354Y-70142086D01*
X125853596Y-70007379D01*
X125853598Y-70007372D01*
X125859999Y-69947844D01*
X125860000Y-69947827D01*
X125860000Y-69684840D01*
X125879685Y-69617801D01*
X125932489Y-69572046D01*
X126001647Y-69562102D01*
X126065203Y-69591127D01*
X126084316Y-69611952D01*
X126160586Y-69716928D01*
X126283072Y-69839414D01*
X126423212Y-69941232D01*
X126577555Y-70019873D01*
X126742299Y-70073402D01*
X126913389Y-70100500D01*
X126913390Y-70100500D01*
X127086610Y-70100500D01*
X127086611Y-70100500D01*
X127257701Y-70073402D01*
X127422445Y-70019873D01*
X127576788Y-69941232D01*
X127716928Y-69839414D01*
X127839414Y-69716928D01*
X127941232Y-69576788D01*
X128019873Y-69422445D01*
X128073402Y-69257701D01*
X128100500Y-69086611D01*
X128100500Y-68913389D01*
X128073402Y-68742299D01*
X128019873Y-68577555D01*
X127941232Y-68423212D01*
X127839414Y-68283072D01*
X127716928Y-68160586D01*
X127576788Y-68058768D01*
X127422445Y-67980127D01*
X127257701Y-67926598D01*
X127257699Y-67926597D01*
X127257698Y-67926597D01*
X127126271Y-67905781D01*
X127086611Y-67899500D01*
X126913389Y-67899500D01*
X126873728Y-67905781D01*
X126742302Y-67926597D01*
X126577552Y-67980128D01*
X126423211Y-68058768D01*
X126369280Y-68097952D01*
X126283072Y-68160586D01*
X126283070Y-68160588D01*
X126283069Y-68160588D01*
X126160587Y-68283070D01*
X126084318Y-68388045D01*
X126028987Y-68430711D01*
X125959374Y-68436689D01*
X125897579Y-68404083D01*
X125863222Y-68343244D01*
X125860000Y-68315159D01*
X125860000Y-68052172D01*
X125859999Y-68052155D01*
X125853598Y-67992627D01*
X125853596Y-67992620D01*
X125803354Y-67857913D01*
X125803350Y-67857906D01*
X125717190Y-67742812D01*
X125717187Y-67742809D01*
X125602093Y-67656649D01*
X125602086Y-67656645D01*
X125467379Y-67606403D01*
X125467372Y-67606401D01*
X125407844Y-67600000D01*
X124710000Y-67600000D01*
X124710000Y-68624722D01*
X124633694Y-68580667D01*
X124519244Y-68550000D01*
X124400756Y-68550000D01*
X124286306Y-68580667D01*
X124210000Y-68624722D01*
X124210000Y-67600000D01*
X124195194Y-67585194D01*
X124161709Y-67523871D01*
X124166693Y-67454179D01*
X124195192Y-67409834D01*
X125124779Y-66480247D01*
X143897000Y-66480247D01*
X143897000Y-68019752D01*
X143908631Y-68078229D01*
X143908632Y-68078230D01*
X143952947Y-68144552D01*
X144019269Y-68188867D01*
X144019270Y-68188868D01*
X144077747Y-68200499D01*
X144077750Y-68200500D01*
X144077752Y-68200500D01*
X149197250Y-68200500D01*
X149197251Y-68200499D01*
X149212068Y-68197552D01*
X149255729Y-68188868D01*
X149255729Y-68188867D01*
X149255731Y-68188867D01*
X149322052Y-68144552D01*
X149366367Y-68078231D01*
X149366367Y-68078229D01*
X149366368Y-68078229D01*
X149377999Y-68019752D01*
X149378000Y-68019750D01*
X149378000Y-66480249D01*
X149377999Y-66480247D01*
X149366368Y-66421770D01*
X149366367Y-66421769D01*
X149322052Y-66355447D01*
X149255730Y-66311132D01*
X149255729Y-66311131D01*
X149197252Y-66299500D01*
X149197248Y-66299500D01*
X144077752Y-66299500D01*
X144077747Y-66299500D01*
X144019270Y-66311131D01*
X144019269Y-66311132D01*
X143952947Y-66355447D01*
X143908632Y-66421769D01*
X143908631Y-66421770D01*
X143897000Y-66480247D01*
X125124779Y-66480247D01*
X129727759Y-61877267D01*
X129789080Y-61843784D01*
X129858772Y-61848768D01*
X129914705Y-61890640D01*
X129929999Y-61917497D01*
X129953366Y-61973910D01*
X129953371Y-61973920D01*
X130062860Y-62137781D01*
X130062863Y-62137785D01*
X130202214Y-62277136D01*
X130202218Y-62277139D01*
X130366079Y-62386628D01*
X130366092Y-62386635D01*
X130497903Y-62441232D01*
X130548165Y-62462051D01*
X130548169Y-62462051D01*
X130548170Y-62462052D01*
X130741456Y-62500500D01*
X130741459Y-62500500D01*
X130938543Y-62500500D01*
X131068582Y-62474632D01*
X131131835Y-62462051D01*
X131313914Y-62386632D01*
X131477782Y-62277139D01*
X131617139Y-62137782D01*
X131726632Y-61973914D01*
X131802051Y-61791835D01*
X131840500Y-61598543D01*
X139999499Y-61598543D01*
X140037947Y-61791829D01*
X140037950Y-61791839D01*
X140113364Y-61973907D01*
X140113371Y-61973920D01*
X140222860Y-62137781D01*
X140222863Y-62137785D01*
X140362214Y-62277136D01*
X140362218Y-62277139D01*
X140526079Y-62386628D01*
X140526092Y-62386635D01*
X140657903Y-62441232D01*
X140708165Y-62462051D01*
X140708169Y-62462051D01*
X140708170Y-62462052D01*
X140901456Y-62500500D01*
X140901459Y-62500500D01*
X141098543Y-62500500D01*
X141228582Y-62474632D01*
X141291835Y-62462051D01*
X141473914Y-62386632D01*
X141637782Y-62277139D01*
X141777139Y-62137782D01*
X141886632Y-61973914D01*
X141962051Y-61791835D01*
X142000500Y-61598541D01*
X142000500Y-61401459D01*
X142000500Y-61401456D01*
X141962052Y-61208170D01*
X141962051Y-61208169D01*
X141962051Y-61208165D01*
X141948074Y-61174421D01*
X141886635Y-61026092D01*
X141886628Y-61026079D01*
X141777139Y-60862218D01*
X141777136Y-60862214D01*
X141637785Y-60722863D01*
X141637781Y-60722860D01*
X141473920Y-60613371D01*
X141473907Y-60613364D01*
X141291839Y-60537950D01*
X141291829Y-60537947D01*
X141098543Y-60499500D01*
X141098541Y-60499500D01*
X140901459Y-60499500D01*
X140901457Y-60499500D01*
X140708170Y-60537947D01*
X140708160Y-60537950D01*
X140526092Y-60613364D01*
X140526079Y-60613371D01*
X140362218Y-60722860D01*
X140362214Y-60722863D01*
X140222863Y-60862214D01*
X140222860Y-60862218D01*
X140113371Y-61026079D01*
X140113364Y-61026092D01*
X140037950Y-61208160D01*
X140037947Y-61208170D01*
X139999500Y-61401456D01*
X139999500Y-61401459D01*
X139999500Y-61598541D01*
X139999500Y-61598543D01*
X139999499Y-61598543D01*
X131840500Y-61598543D01*
X131840500Y-61598541D01*
X131840500Y-61401459D01*
X131840500Y-61401456D01*
X131802052Y-61208170D01*
X131802051Y-61208169D01*
X131802051Y-61208165D01*
X131788074Y-61174421D01*
X131726635Y-61026092D01*
X131726628Y-61026079D01*
X131617139Y-60862218D01*
X131617136Y-60862214D01*
X131477785Y-60722863D01*
X131477781Y-60722860D01*
X131313920Y-60613371D01*
X131313907Y-60613364D01*
X131131839Y-60537950D01*
X131131829Y-60537947D01*
X130938543Y-60499500D01*
X130938541Y-60499500D01*
X130741459Y-60499500D01*
X130741457Y-60499500D01*
X130548170Y-60537947D01*
X130548160Y-60537950D01*
X130366092Y-60613364D01*
X130366079Y-60613371D01*
X130202218Y-60722860D01*
X130202214Y-60722863D01*
X130062863Y-60862214D01*
X130062860Y-60862218D01*
X129953371Y-61026079D01*
X129953364Y-61026092D01*
X129923600Y-61097952D01*
X129879760Y-61152356D01*
X129813466Y-61174421D01*
X129809039Y-61174500D01*
X129601847Y-61174500D01*
X129519059Y-61196682D01*
X129444838Y-61239535D01*
X129444835Y-61239537D01*
X121337837Y-69346535D01*
X121337833Y-69346541D01*
X121294982Y-69420760D01*
X121293665Y-69425677D01*
X121273616Y-69500500D01*
X121272800Y-69503547D01*
X121272800Y-75436910D01*
X121253115Y-75503949D01*
X121236481Y-75524591D01*
X118211681Y-78549391D01*
X118150358Y-78582876D01*
X118080666Y-78577892D01*
X118024733Y-78536020D01*
X118000316Y-78470556D01*
X118000000Y-78461710D01*
X118000000Y-60552155D01*
X123060000Y-60552155D01*
X123060000Y-61250000D01*
X124084722Y-61250000D01*
X124040667Y-61326306D01*
X124010000Y-61440756D01*
X124010000Y-61559244D01*
X124040667Y-61673694D01*
X124084722Y-61750000D01*
X123060000Y-61750000D01*
X123060000Y-62447844D01*
X123066401Y-62507372D01*
X123066403Y-62507379D01*
X123116645Y-62642086D01*
X123116649Y-62642093D01*
X123202809Y-62757187D01*
X123202812Y-62757190D01*
X123317906Y-62843350D01*
X123317913Y-62843354D01*
X123452620Y-62893596D01*
X123452627Y-62893598D01*
X123512155Y-62899999D01*
X123512172Y-62900000D01*
X124210000Y-62900000D01*
X124210000Y-61875277D01*
X124286306Y-61919333D01*
X124400756Y-61950000D01*
X124519244Y-61950000D01*
X124633694Y-61919333D01*
X124710000Y-61875277D01*
X124710000Y-62900000D01*
X125407828Y-62900000D01*
X125407844Y-62899999D01*
X125467372Y-62893598D01*
X125467379Y-62893596D01*
X125602086Y-62843354D01*
X125602093Y-62843350D01*
X125717187Y-62757190D01*
X125717190Y-62757187D01*
X125803350Y-62642093D01*
X125803354Y-62642086D01*
X125853596Y-62507379D01*
X125853598Y-62507372D01*
X125859999Y-62447844D01*
X125860000Y-62447827D01*
X125860000Y-62184840D01*
X125879685Y-62117801D01*
X125932489Y-62072046D01*
X126001647Y-62062102D01*
X126065203Y-62091127D01*
X126084316Y-62111952D01*
X126160586Y-62216928D01*
X126283072Y-62339414D01*
X126423212Y-62441232D01*
X126577555Y-62519873D01*
X126742299Y-62573402D01*
X126913389Y-62600500D01*
X126913390Y-62600500D01*
X127086610Y-62600500D01*
X127086611Y-62600500D01*
X127257701Y-62573402D01*
X127422445Y-62519873D01*
X127576788Y-62441232D01*
X127716928Y-62339414D01*
X127839414Y-62216928D01*
X127941232Y-62076788D01*
X128019873Y-61922445D01*
X128073402Y-61757701D01*
X128100500Y-61586611D01*
X128100500Y-61413389D01*
X128073402Y-61242299D01*
X128019873Y-61077555D01*
X127941232Y-60923212D01*
X127839414Y-60783072D01*
X127716928Y-60660586D01*
X127576788Y-60558768D01*
X127422445Y-60480127D01*
X127257701Y-60426598D01*
X127257699Y-60426597D01*
X127257698Y-60426597D01*
X127126271Y-60405781D01*
X127086611Y-60399500D01*
X126913389Y-60399500D01*
X126873728Y-60405781D01*
X126742302Y-60426597D01*
X126577552Y-60480128D01*
X126423211Y-60558768D01*
X126348067Y-60613364D01*
X126283072Y-60660586D01*
X126283070Y-60660588D01*
X126283069Y-60660588D01*
X126160587Y-60783070D01*
X126084318Y-60888045D01*
X126028987Y-60930711D01*
X125959374Y-60936689D01*
X125897579Y-60904083D01*
X125863222Y-60843244D01*
X125860000Y-60815159D01*
X125860000Y-60552172D01*
X125859999Y-60552155D01*
X125853598Y-60492627D01*
X125853596Y-60492620D01*
X125803354Y-60357913D01*
X125803350Y-60357906D01*
X125717190Y-60242812D01*
X125717187Y-60242809D01*
X125602093Y-60156649D01*
X125602086Y-60156645D01*
X125467379Y-60106403D01*
X125467372Y-60106401D01*
X125407844Y-60100000D01*
X124710000Y-60100000D01*
X124710000Y-61124722D01*
X124633694Y-61080667D01*
X124519244Y-61050000D01*
X124400756Y-61050000D01*
X124286306Y-61080667D01*
X124210000Y-61124722D01*
X124210000Y-60100000D01*
X123512155Y-60100000D01*
X123452627Y-60106401D01*
X123452620Y-60106403D01*
X123317913Y-60156645D01*
X123317906Y-60156649D01*
X123202812Y-60242809D01*
X123202809Y-60242812D01*
X123116649Y-60357906D01*
X123116645Y-60357913D01*
X123066403Y-60492620D01*
X123066401Y-60492627D01*
X123060000Y-60552155D01*
X118000000Y-60552155D01*
X118000000Y-57980247D01*
X143897000Y-57980247D01*
X143897000Y-59519752D01*
X143908631Y-59578229D01*
X143908632Y-59578230D01*
X143952947Y-59644552D01*
X144019269Y-59688867D01*
X144019270Y-59688868D01*
X144077747Y-59700499D01*
X144077750Y-59700500D01*
X144077752Y-59700500D01*
X149197250Y-59700500D01*
X149197251Y-59700499D01*
X149212068Y-59697552D01*
X149255729Y-59688868D01*
X149255729Y-59688867D01*
X149255731Y-59688867D01*
X149322052Y-59644552D01*
X149366367Y-59578231D01*
X149366367Y-59578229D01*
X149366368Y-59578229D01*
X149377999Y-59519752D01*
X149378000Y-59519750D01*
X149378000Y-57980249D01*
X149377999Y-57980247D01*
X149366368Y-57921770D01*
X149366367Y-57921769D01*
X149322052Y-57855447D01*
X149255730Y-57811132D01*
X149255729Y-57811131D01*
X149197252Y-57799500D01*
X149197248Y-57799500D01*
X144077752Y-57799500D01*
X144077747Y-57799500D01*
X144019270Y-57811131D01*
X144019269Y-57811132D01*
X143952947Y-57855447D01*
X143908632Y-57921769D01*
X143908631Y-57921770D01*
X143897000Y-57980247D01*
X118000000Y-57980247D01*
X118000000Y-57750000D01*
X70000000Y-57750000D01*
X70000000Y-78750000D01*
X45000500Y-78750000D01*
X45000500Y-50124500D01*
X45020185Y-50057461D01*
X45072989Y-50011706D01*
X45124500Y-50000500D01*
X171375500Y-50000500D01*
X171442539Y-50020185D01*
G37*
%TD.AperFunction*%
%TD*%
M02*
